<?xml version='1.0' encoding='UTF-8' standalone='no'?>
<!-- Created with Fritzing (http://www.fritzing.org/) -->
<svg xmlns="http://www.w3.org/2000/svg"  baseProfile="tiny" x="0in" width="1.61369in" height="0.612776in" viewBox="0 0 116.186 44.1198" xmlns:svg="http://www.w3.org/2000/svg" version="1.2" y="0in">
 <g partID="20759180">
  <g  id="board">
   <rect  fill-opacity="0.5" fill="none" width="115.61" height="43.5438" x="0.288" id="boardoutline" stroke="black" stroke-width="0.5" y="0.288"/>
  </g>
 </g>
 <g partID="20773411">
  <g transform="translate(109.84,-1.04)">
   <g transform="matrix(0,1,-1,0,0,0)">
    <g  id="copper1">
     <g  id="copper0">
      <circle  r="2.088" fill="black" id="connector0pin" cx="5.04" cy="5.04" stroke="black" stroke-width="2.16"/>
      <circle  r="2.088" fill="black" id="connector1pin" cx="5.04" cy="12.24" stroke="black" stroke-width="2.16"/>
      <circle  r="2.088" fill="black" id="connector2pin" cx="5.04" cy="19.44" stroke="black" stroke-width="2.16"/>
      <circle  r="2.088" fill="black" id="connector3pin" cx="5.04" cy="26.64" stroke="black" stroke-width="2.16"/>
      <circle  r="2.088" fill="black" id="connector4pin" cx="5.04" cy="33.84" stroke="black" stroke-width="2.16"/>
      <circle  r="2.088" fill="black" id="connector5pin" cx="5.04" cy="41.04" stroke="black" stroke-width="2.16"/>
      <circle  r="2.088" fill="black" id="connector6pin" cx="5.04" cy="48.24" stroke="black" stroke-width="2.16"/>
      <circle  r="2.088" fill="black" id="connector7pin" cx="5.04" cy="55.44" stroke="black" stroke-width="2.16"/>
     </g>
    </g>
   </g>
  </g>
 </g>
 <g partID="20773371">
  <g transform="translate(37.84,-1.04)">
   <g transform="matrix(0,1,-1,0,0,0)">
    <g  id="copper1">
     <g  id="copper0">
      <circle  r="2.088" fill="black" id="connector0pin" cx="5.04" cy="5.04" stroke="black" stroke-width="2.16"/>
      <circle  r="2.088" fill="black" id="connector1pin" cx="5.04" cy="12.24" stroke="black" stroke-width="2.16"/>
      <circle  r="2.088" fill="black" id="connector2pin" cx="5.04" cy="19.44" stroke="black" stroke-width="2.16"/>
      <circle  r="2.088" fill="black" id="connector3pin" cx="5.04" cy="26.64" stroke="black" stroke-width="2.16"/>
     </g>
    </g>
   </g>
  </g>
 </g>
 <g partID="20759251">
  <g transform="translate(109.12,6.88)">
   <g transform="matrix(0,1,-1,0,0,0)">
    <g  id="copper1" stroke-width="0">
     <g  id="copper0" stroke-width="0">
      <rect  width="3.96" x="2.34" fill="black" height="3.96" stroke="black" y="2.34" stroke-width="2.16"/>
      <circle  r="1.98" fill="black" id="connector0pin" cx="4.32" cy="4.32" stroke="black" stroke-width="2.16"/>
      <circle  r="1.98" fill="black" id="connector27pin" cx="25.92" cy="4.32" stroke="black" stroke-width="2.16"/>
      <circle  r="1.98" fill="black" id="connector1pin" cx="4.32" cy="11.52" stroke="black" stroke-width="2.16"/>
      <circle  r="1.98" fill="black" id="connector26pin" cx="25.92" cy="11.52" stroke="black" stroke-width="2.16"/>
      <circle  r="1.98" fill="black" id="connector2pin" cx="4.32" cy="18.72" stroke="black" stroke-width="2.16"/>
      <circle  r="1.98" fill="black" id="connector25pin" cx="25.92" cy="18.72" stroke="black" stroke-width="2.16"/>
      <circle  r="1.98" fill="black" id="connector3pin" cx="4.32" cy="25.92" stroke="black" stroke-width="2.16"/>
      <circle  r="1.98" fill="black" id="connector24pin" cx="25.92" cy="25.92" stroke="black" stroke-width="2.16"/>
      <circle  r="1.98" fill="black" id="connector4pin" cx="4.32" cy="33.12" stroke="black" stroke-width="2.16"/>
      <circle  r="1.98" fill="black" id="connector23pin" cx="25.92" cy="33.12" stroke="black" stroke-width="2.16"/>
      <circle  r="1.98" fill="black" id="connector5pin" cx="4.32" cy="40.32" stroke="black" stroke-width="2.16"/>
      <circle  r="1.98" fill="black" id="connector22pin" cx="25.92" cy="40.32" stroke="black" stroke-width="2.16"/>
      <circle  r="1.98" fill="black" id="connector6pin" cx="4.32" cy="47.52" stroke="black" stroke-width="2.16"/>
      <circle  r="1.98" fill="black" id="connector21pin" cx="25.92" cy="47.52" stroke="black" stroke-width="2.16"/>
      <circle  r="1.98" fill="black" id="connector7pin" cx="4.32" cy="54.72" stroke="black" stroke-width="2.16"/>
      <circle  r="1.98" fill="black" id="connector20pin" cx="25.92" cy="54.72" stroke="black" stroke-width="2.16"/>
      <circle  r="1.98" fill="black" id="connector8pin" cx="4.32" cy="61.92" stroke="black" stroke-width="2.16"/>
      <circle  r="1.98" fill="black" id="connector19pin" cx="25.92" cy="61.92" stroke="black" stroke-width="2.16"/>
      <circle  r="1.98" fill="black" id="connector9pin" cx="4.32" cy="69.12" stroke="black" stroke-width="2.16"/>
      <circle  r="1.98" fill="black" id="connector18pin" cx="25.92" cy="69.12" stroke="black" stroke-width="2.16"/>
      <circle  r="1.98" fill="black" id="connector10pin" cx="4.32" cy="76.32" stroke="black" stroke-width="2.16"/>
      <circle  r="1.98" fill="black" id="connector17pin" cx="25.92" cy="76.32" stroke="black" stroke-width="2.16"/>
      <circle  r="1.98" fill="black" id="connector11pin" cx="4.32" cy="83.52" stroke="black" stroke-width="2.16"/>
      <circle  r="1.98" fill="black" id="connector16pin" cx="25.92" cy="83.52" stroke="black" stroke-width="2.16"/>
      <circle  r="1.98" fill="black" id="connector12pin" cx="4.32" cy="90.72" stroke="black" stroke-width="2.16"/>
      <circle  r="1.98" fill="black" id="connector15pin" cx="25.92" cy="90.72" stroke="black" stroke-width="2.16"/>
      <circle  r="1.98" fill="black" id="connector13pin" cx="4.32" cy="97.92" stroke="black" stroke-width="2.16"/>
      <circle  r="1.98" fill="black" id="connector14pin" cx="25.92" cy="97.92" stroke="black" stroke-width="2.16"/>
     </g>
    </g>
   </g>
  </g>
 </g>
 <g partID="20759271">
  <g transform="translate(27.7544,14.9134)">
   <g  id="copper1">
    <circle  r="1.84465" fill="black" id="connector1pin" cx="22.5479" cy="7.08448" stroke="black" stroke-width="2.13732"/>
    <circle  r="1.84252" fill="black" id="connector0pin" cx="8.64567" cy="7.08661" stroke="black" stroke-width="2.13732"/>
   </g>
  </g>
 </g>
 <g partID="20759471">
  <g transform="translate(64.48,15.52)">
   <g transform="matrix(0,1,-1,0,0,0)">
    <g  id="copper1">
     <circle  r="1.8" fill="black" id="connector0pin" cx="2.88" cy="2.88" stroke="black" stroke-width="2.16"/>
     <circle  r="1.8" fill="black" id="connector1pin" cx="10.0933" cy="2.88" stroke="black" stroke-width="2.16"/>
    </g>
   </g>
  </g>
 </g>
 <g partID="20759441">
  <g transform="translate(28.48,15.52)">
   <g transform="matrix(0,1,-1,0,0,0)">
    <g  id="copper1">
     <circle  r="1.8" fill="black" id="connector0pin" cx="2.88" cy="2.88" stroke="black" stroke-width="2.16"/>
     <circle  r="1.8" fill="black" id="connector1pin" cx="10.0933" cy="2.88" stroke="black" stroke-width="2.16"/>
    </g>
   </g>
  </g>
 </g>
 <g partID="20759511">
  <g transform="translate(73.3,15.304)">
   <g  id="copper1">
    <!-- <rect width="55" x="10" y="15.5" fill="none" height="55" stroke="rgb(255, 191, 0)" stroke-width="20" />  -->
    <circle  r="1.98" fill="black" id="connector0pin" cx="2.7" cy="3.096" stroke="black" stroke-width="2.16"/>
    <circle  r="1.98" fill="black" id="connector1pin" cx="31.5" cy="3.096" stroke="black" stroke-width="2.16"/>
   </g>
  </g>
 </g>
 <g partID="20766241">
  <g transform="translate(-1.04,27.76)">
   <g  id="copper1">
    <g  id="copper0">
     <circle  r="2.088" fill="black" id="connector0pin" cx="5.04" cy="5.04" stroke="black" stroke-width="2.16"/>
     <circle  r="2.088" fill="black" id="connector1pin" cx="5.04" cy="12.24" stroke="black" stroke-width="2.16"/>
    </g>
   </g>
  </g>
 </g>
 <g partID="20766201">
  <g transform="translate(-1.04,-1.04)">
   <g  id="copper1">
    <g  id="copper0">
     <circle  r="2.088" fill="black" id="connector0pin" cx="5.04" cy="5.04" stroke="black" stroke-width="2.16"/>
     <circle  r="2.088" fill="black" id="connector1pin" cx="5.04" cy="12.24" stroke="black" stroke-width="2.16"/>
     <circle  r="2.088" fill="black" id="connector2pin" cx="5.04" cy="19.44" stroke="black" stroke-width="2.16"/>
    </g>
   </g>
  </g>
 </g>
 <g partID="20759661">
  <g transform="translate(106.96,-1.04)">
   <g  id="copper1">
    <g  id="copper0">
     <circle  r="2.088" fill="black" id="connector0pin" cx="5.04" cy="5.04" stroke="black" stroke-width="2.16"/>
     <circle  r="2.088" fill="black" id="connector1pin" cx="5.04" cy="12.24" stroke="black" stroke-width="2.16"/>
     <circle  r="2.088" fill="black" id="connector2pin" cx="5.04" cy="19.44" stroke="black" stroke-width="2.16"/>
     <circle  r="2.088" fill="black" id="connector3pin" cx="5.04" cy="26.64" stroke="black" stroke-width="2.16"/>
     <circle  r="2.088" fill="black" id="connector4pin" cx="5.04" cy="33.84" stroke="black" stroke-width="2.16"/>
     <circle  r="2.088" fill="black" id="connector5pin" cx="5.04" cy="41.04" stroke="black" stroke-width="2.16"/>
    </g>
   </g>
  </g>
 </g>
 <g partID="20759621">
  <g transform="translate(109.84,34.96)">
   <g transform="matrix(0,1,-1,0,0,0)">
    <g  id="copper1">
     <g  id="copper0">
      <circle  r="2.088" fill="black" id="connector0pin" cx="5.04" cy="5.04" stroke="black" stroke-width="2.16"/>
      <circle  r="2.088" fill="black" id="connector1pin" cx="5.04" cy="12.24" stroke="black" stroke-width="2.16"/>
      <circle  r="2.088" fill="black" id="connector2pin" cx="5.04" cy="19.44" stroke="black" stroke-width="2.16"/>
      <circle  r="2.088" fill="black" id="connector3pin" cx="5.04" cy="26.64" stroke="black" stroke-width="2.16"/>
      <circle  r="2.088" fill="black" id="connector4pin" cx="5.04" cy="33.84" stroke="black" stroke-width="2.16"/>
      <circle  r="2.088" fill="black" id="connector5pin" cx="5.04" cy="41.04" stroke="black" stroke-width="2.16"/>
      <circle  r="2.088" fill="black" id="connector6pin" cx="5.04" cy="48.24" stroke="black" stroke-width="2.16"/>
      <circle  r="2.088" fill="black" id="connector7pin" cx="5.04" cy="55.44" stroke="black" stroke-width="2.16"/>
      <circle  r="2.088" fill="black" id="connector8pin" cx="5.04" cy="62.64" stroke="black" stroke-width="2.16"/>
      <circle  r="2.088" fill="black" id="connector9pin" cx="5.04" cy="69.84" stroke="black" stroke-width="2.16"/>
      <circle  r="2.088" fill="black" id="connector10pin" cx="5.04" cy="77.04" stroke="black" stroke-width="2.16"/>
      <circle  r="2.088" fill="black" id="connector11pin" cx="5.04" cy="84.24" stroke="black" stroke-width="2.16"/>
      <circle  r="2.088" fill="black" id="connector12pin" cx="5.04" cy="91.44" stroke="black" stroke-width="2.16"/>
      <circle  r="2.088" fill="black" id="connector13pin" cx="5.04" cy="98.64" stroke="black" stroke-width="2.16"/>
     </g>
    </g>
   </g>
  </g>
 </g>
 <g partID="20766171">
  <g transform="translate(83.92,17.32)">
   <g  id="copper1">
    <circle  r="1.8" fill="black" id="connector0pin" cx="2.88" cy="2.88" stroke="black" stroke-width="2.16"/>
    <circle  r="1.8" fill="black" id="connector1pin" cx="10.0933" cy="2.88" stroke="black" stroke-width="2.16"/>
   </g>
  </g>
 </g>
</svg>
