G75*
%MOIN*%
%OFA0B0*%
%FSLAX26Y26*%
%IPPOS*%
%LPD*%
%AMOC8*
5,1,8,0,0,1.08239X$1,22.5*
%
%ADD10C,0.060000*%
%ADD11C,0.051496*%
%ADD12C,0.051496*%
%ADD13C,0.074000*%
%ADD14C,0.043559*%
%ADD15C,0.016000*%
%ADD16C,0.010000*%
%ADD17C,0.165984*%
%ADD18C,0.126614*%
D10*
X00670000Y01300000D02*
X00730000Y01300000D01*
X00730000Y01400000D02*
X00670000Y01400000D01*
X00670000Y01500000D02*
X00730000Y01500000D01*
X00730000Y01600000D02*
X00670000Y01600000D01*
X00670000Y01700000D02*
X00730000Y01700000D01*
X00730000Y01800000D02*
X00670000Y01800000D01*
X00670000Y01900000D02*
X00730000Y01900000D01*
X00730000Y02200000D02*
X00670000Y02200000D01*
X00670000Y02300000D02*
X00730000Y02300000D01*
X00730000Y02400000D02*
X00670000Y02400000D01*
X00670000Y02500000D02*
X00730000Y02500000D01*
X00730000Y02600000D02*
X00670000Y02600000D01*
X00670000Y02700000D02*
X00730000Y02700000D01*
X00730000Y02800000D02*
X00670000Y02800000D01*
X00670000Y02900000D02*
X00730000Y02900000D01*
X00730000Y03000000D02*
X00670000Y03000000D01*
X00130000Y02800000D02*
X00070000Y02800000D01*
X00070000Y02700000D02*
X00130000Y02700000D01*
X00130000Y02600000D02*
X00070000Y02600000D01*
X00070000Y02500000D02*
X00130000Y02500000D01*
X00130000Y02400000D02*
X00070000Y02400000D01*
D11*
X00974252Y02400000D02*
X01025748Y02400000D01*
X01025748Y02300000D02*
X00974252Y02300000D01*
X00974252Y02200000D02*
X01025748Y02200000D01*
X01025748Y02100000D02*
X00974252Y02100000D01*
X00974252Y02000000D02*
X01025748Y02000000D01*
X01025748Y01900000D02*
X00974252Y01900000D01*
X00974252Y01800000D02*
X01025748Y01800000D01*
X01025748Y01700000D02*
X00974252Y01700000D01*
X00974252Y01600000D02*
X01025748Y01600000D01*
X01574252Y01600000D02*
X01625748Y01600000D01*
X01625748Y01700000D02*
X01574252Y01700000D01*
X01574252Y01800000D02*
X01625748Y01800000D01*
X01625748Y01900000D02*
X01574252Y01900000D01*
X01574252Y02000000D02*
X01625748Y02000000D01*
X01625748Y02100000D02*
X01574252Y02100000D01*
X01574252Y02200000D02*
X01625748Y02200000D01*
X01625748Y02300000D02*
X01574252Y02300000D01*
X01574252Y02400000D02*
X01625748Y02400000D01*
X01625748Y02500000D02*
X01574252Y02500000D01*
X01574252Y02600000D02*
X01625748Y02600000D01*
X01625748Y02700000D02*
X01574252Y02700000D01*
X01574252Y02800000D02*
X01625748Y02800000D01*
X01625748Y02900000D02*
X01574252Y02900000D01*
X01574252Y03000000D02*
X01625748Y03000000D01*
X01025748Y03000000D02*
X00974252Y03000000D01*
X00974252Y02900000D02*
X01025748Y02900000D01*
X01025748Y02800000D02*
X00974252Y02800000D01*
X00974252Y02700000D02*
X01025748Y02700000D01*
X01025748Y02600000D02*
X00974252Y02600000D01*
X00974252Y02500000D02*
X01025748Y02500000D01*
D12*
X01200000Y02950000D03*
X01200000Y03050000D03*
X01300000Y03050000D03*
X01300000Y02950000D03*
X01400000Y02950000D03*
X01400000Y03050000D03*
D13*
X01500000Y03000000D03*
X01500000Y02900000D03*
X01400000Y02800000D03*
X01400000Y02700000D03*
X01400000Y02600000D03*
X01400000Y02500000D03*
X01400000Y02400000D03*
X01400000Y02300000D03*
X01400000Y02200000D03*
X01400000Y02100000D03*
X01300000Y02100000D03*
X01300000Y02200000D03*
X01300000Y02300000D03*
X01300000Y02400000D03*
X01300000Y02500000D03*
X01300000Y02600000D03*
X01300000Y02700000D03*
X01300000Y02800000D03*
X01500000Y02600000D03*
X01500000Y02500000D03*
X01500000Y02400000D03*
X01500000Y02300000D03*
X01500000Y02200000D03*
X01500000Y02100000D03*
X01500000Y02000000D03*
X01500000Y01900000D03*
X01500000Y01800000D03*
X01500000Y01700000D03*
X01500000Y01600000D03*
X01500000Y01500000D03*
X01400000Y01500000D03*
X01400000Y01600000D03*
X01400000Y01700000D03*
X01400000Y01800000D03*
X01400000Y01900000D03*
X01400000Y02000000D03*
X01300000Y02000000D03*
X01300000Y01900000D03*
X01300000Y01800000D03*
X01300000Y01700000D03*
X01300000Y01600000D03*
X01300000Y01500000D03*
X01100000Y01800000D03*
X01100000Y01900000D03*
X01100000Y02000000D03*
X01100000Y02100000D03*
X01100000Y02200000D03*
X01100000Y02300000D03*
X01100000Y02400000D03*
X01100000Y02500000D03*
X01100000Y02600000D03*
D14*
X00850000Y02600000D03*
X00800000Y02500000D03*
X00800000Y02400000D03*
X00850000Y02300000D03*
X00850000Y01800000D03*
X00800000Y01600000D03*
D15*
X00050000Y01250000D02*
X00050000Y02358494D01*
X00060850Y02354000D01*
X00139150Y02354000D01*
X00156057Y02361003D01*
X00168997Y02373943D01*
X00176000Y02390850D01*
X00176000Y02409150D01*
X00168997Y02426057D01*
X00156057Y02438997D01*
X00139150Y02446000D01*
X00060850Y02446000D01*
X00050000Y02441506D01*
X00050000Y02458494D01*
X00060850Y02454000D01*
X00139150Y02454000D01*
X00156057Y02461003D01*
X00168997Y02473943D01*
X00176000Y02490850D01*
X00176000Y02509150D01*
X00168997Y02526057D01*
X00156057Y02538997D01*
X00139150Y02546000D01*
X00060850Y02546000D01*
X00050000Y02541506D01*
X00050000Y02558494D01*
X00060850Y02554000D01*
X00139150Y02554000D01*
X00156057Y02561003D01*
X00168997Y02573943D01*
X00176000Y02590850D01*
X00176000Y02609150D01*
X00168997Y02626057D01*
X00156057Y02638997D01*
X00139150Y02646000D01*
X00060850Y02646000D01*
X00050000Y02641506D01*
X00050000Y02658494D01*
X00060850Y02654000D01*
X00139150Y02654000D01*
X00156057Y02661003D01*
X00168997Y02673943D01*
X00176000Y02690850D01*
X00176000Y02709150D01*
X00168997Y02726057D01*
X00156057Y02738997D01*
X00139150Y02746000D01*
X00060850Y02746000D01*
X00050000Y02741506D01*
X00050000Y02758494D01*
X00060850Y02754000D01*
X00139150Y02754000D01*
X00156057Y02761003D01*
X00168997Y02773943D01*
X00176000Y02790850D01*
X00176000Y02809150D01*
X00168997Y02826057D01*
X00156057Y02838997D01*
X00139150Y02846000D01*
X00060850Y02846000D01*
X00050000Y02841506D01*
X00050000Y03050000D01*
X00063562Y03050000D01*
X00051008Y03019691D01*
X00051008Y02980309D01*
X00066078Y02943925D01*
X00093925Y02916078D01*
X00130309Y02901008D01*
X00169691Y02901008D01*
X00206074Y02916078D01*
X00233921Y02943925D01*
X00248992Y02980309D01*
X00248992Y03019691D01*
X00236438Y03050000D01*
X00787843Y03050000D01*
X00782767Y03044924D01*
X00771974Y03018868D01*
X00768997Y03026057D01*
X00756057Y03038997D01*
X00739150Y03046000D01*
X00660850Y03046000D01*
X00643943Y03038997D01*
X00631003Y03026057D01*
X00624000Y03009150D01*
X00624000Y02990850D01*
X00631003Y02973943D01*
X00643943Y02961003D01*
X00660850Y02954000D01*
X00739150Y02954000D01*
X00756057Y02961003D01*
X00768997Y02973943D01*
X00771974Y02981131D01*
X00782767Y02955076D01*
X00805076Y02932767D01*
X00834225Y02920693D01*
X00865775Y02920693D01*
X00894924Y02932767D01*
X00917233Y02955076D01*
X00929307Y02984225D01*
X00929307Y03015775D01*
X00917233Y03044924D01*
X00912157Y03050000D01*
X01158252Y03050000D01*
X01158252Y03041696D01*
X01164608Y03026352D01*
X01176352Y03014608D01*
X01191696Y03008252D01*
X01208304Y03008252D01*
X01223648Y03014608D01*
X01235392Y03026352D01*
X01241748Y03041696D01*
X01241748Y03050000D01*
X01258252Y03050000D01*
X01258252Y03041696D01*
X01264608Y03026352D01*
X01276352Y03014608D01*
X01291696Y03008252D01*
X01308304Y03008252D01*
X01323648Y03014608D01*
X01335392Y03026352D01*
X01341748Y03041696D01*
X01341748Y03050000D01*
X01358252Y03050000D01*
X01358252Y03041696D01*
X01364608Y03026352D01*
X01376352Y03014608D01*
X01391696Y03008252D01*
X01408304Y03008252D01*
X01423648Y03014608D01*
X01435392Y03026352D01*
X01441748Y03041696D01*
X01441748Y03050000D01*
X01482215Y03050000D01*
X01469978Y03044931D01*
X01455069Y03030022D01*
X01447000Y03010542D01*
X01447000Y02989458D01*
X01455069Y02969978D01*
X01469978Y02955069D01*
X01482215Y02950000D01*
X01469978Y02944931D01*
X01455069Y02930022D01*
X01447000Y02910542D01*
X01447000Y02889458D01*
X01455069Y02869978D01*
X01469978Y02855069D01*
X01489458Y02847000D01*
X01510542Y02847000D01*
X01530022Y02855069D01*
X01544931Y02869978D01*
X01545020Y02870192D01*
X01550604Y02864608D01*
X01565948Y02858252D01*
X01634052Y02858252D01*
X01649396Y02864608D01*
X01650000Y02865211D01*
X01650000Y02834789D01*
X01649396Y02835392D01*
X01634052Y02841748D01*
X01565948Y02841748D01*
X01550604Y02835392D01*
X01538860Y02823648D01*
X01532504Y02808304D01*
X01532504Y02791696D01*
X01538860Y02776352D01*
X01550604Y02764608D01*
X01565948Y02758252D01*
X01634052Y02758252D01*
X01649396Y02764608D01*
X01650000Y02765211D01*
X01650000Y02734789D01*
X01649396Y02735392D01*
X01634052Y02741748D01*
X01565948Y02741748D01*
X01550604Y02735392D01*
X01538860Y02723648D01*
X01532504Y02708304D01*
X01532504Y02691696D01*
X01538860Y02676352D01*
X01550604Y02664608D01*
X01565948Y02658252D01*
X01634052Y02658252D01*
X01649396Y02664608D01*
X01650000Y02665211D01*
X01650000Y02634789D01*
X01649396Y02635392D01*
X01634052Y02641748D01*
X01565948Y02641748D01*
X01550604Y02635392D01*
X01545020Y02629808D01*
X01544931Y02630022D01*
X01530022Y02644931D01*
X01510542Y02653000D01*
X01489458Y02653000D01*
X01469978Y02644931D01*
X01455069Y02630022D01*
X01451150Y02620560D01*
X01450970Y02621113D01*
X01447040Y02628826D01*
X01441952Y02635830D01*
X01435830Y02641952D01*
X01428826Y02647040D01*
X01423017Y02650000D01*
X01428826Y02652960D01*
X01435830Y02658048D01*
X01441952Y02664170D01*
X01447040Y02671174D01*
X01450970Y02678887D01*
X01453646Y02687121D01*
X01455000Y02695671D01*
X01455000Y02698000D01*
X01402001Y02698000D01*
X01402001Y02702000D01*
X01455000Y02702000D01*
X01455000Y02704329D01*
X01453646Y02712879D01*
X01450970Y02721113D01*
X01447040Y02728826D01*
X01441952Y02735830D01*
X01435830Y02741952D01*
X01428826Y02747040D01*
X01423017Y02750000D01*
X01428826Y02752960D01*
X01435830Y02758048D01*
X01441952Y02764170D01*
X01447040Y02771174D01*
X01450970Y02778887D01*
X01453646Y02787121D01*
X01455000Y02795671D01*
X01455000Y02798000D01*
X01402001Y02798000D01*
X01402001Y02802000D01*
X01455000Y02802000D01*
X01455000Y02804329D01*
X01453646Y02812879D01*
X01450970Y02821113D01*
X01447040Y02828826D01*
X01441952Y02835830D01*
X01435830Y02841952D01*
X01428826Y02847040D01*
X01421113Y02850970D01*
X01412879Y02853646D01*
X01404329Y02855000D01*
X01402000Y02855000D01*
X01402000Y02802001D01*
X01398000Y02802001D01*
X01398000Y02855000D01*
X01395671Y02855000D01*
X01387121Y02853646D01*
X01378887Y02850970D01*
X01371174Y02847040D01*
X01364170Y02841952D01*
X01358048Y02835830D01*
X01352960Y02828826D01*
X01349030Y02821113D01*
X01348850Y02820560D01*
X01344931Y02830022D01*
X01330022Y02844931D01*
X01310542Y02853000D01*
X01289458Y02853000D01*
X01269978Y02844931D01*
X01255069Y02830022D01*
X01247000Y02810542D01*
X01247000Y02789458D01*
X01255069Y02769978D01*
X01269978Y02755069D01*
X01282215Y02750000D01*
X01269978Y02744931D01*
X01255069Y02730022D01*
X01247000Y02710542D01*
X01247000Y02689458D01*
X01255069Y02669978D01*
X01269978Y02655069D01*
X01282215Y02650000D01*
X01269978Y02644931D01*
X01255069Y02630022D01*
X01247000Y02610542D01*
X01247000Y02589458D01*
X01255069Y02569978D01*
X01269978Y02555069D01*
X01282215Y02550000D01*
X01269978Y02544931D01*
X01255069Y02530022D01*
X01247000Y02510542D01*
X01247000Y02489458D01*
X01255069Y02469978D01*
X01269978Y02455069D01*
X01282215Y02450000D01*
X01269978Y02444931D01*
X01255069Y02430022D01*
X01247000Y02410542D01*
X01247000Y02389458D01*
X01255069Y02369978D01*
X01269978Y02355069D01*
X01282215Y02350000D01*
X01269978Y02344931D01*
X01255069Y02330022D01*
X01247000Y02310542D01*
X01247000Y02289458D01*
X01255069Y02269978D01*
X01269978Y02255069D01*
X01282215Y02250000D01*
X01269978Y02244931D01*
X01255069Y02230022D01*
X01247000Y02210542D01*
X01247000Y02189458D01*
X01255069Y02169978D01*
X01269978Y02155069D01*
X01282215Y02150000D01*
X01269978Y02144931D01*
X01255069Y02130022D01*
X01247000Y02110542D01*
X01247000Y02089458D01*
X01255069Y02069978D01*
X01269978Y02055069D01*
X01282215Y02050000D01*
X01269978Y02044931D01*
X01255069Y02030022D01*
X01247000Y02010542D01*
X01247000Y01989458D01*
X01255069Y01969978D01*
X01269978Y01955069D01*
X01282215Y01950000D01*
X01269978Y01944931D01*
X01255069Y01930022D01*
X01247000Y01910542D01*
X01247000Y01889458D01*
X01255069Y01869978D01*
X01269978Y01855069D01*
X01282215Y01850000D01*
X01269978Y01844931D01*
X01255069Y01830022D01*
X01247000Y01810542D01*
X01247000Y01789458D01*
X01255069Y01769978D01*
X01269978Y01755069D01*
X01282215Y01750000D01*
X01269978Y01744931D01*
X01255069Y01730022D01*
X01247000Y01710542D01*
X01247000Y01689458D01*
X01255069Y01669978D01*
X01269978Y01655069D01*
X01282215Y01650000D01*
X01269978Y01644931D01*
X01255069Y01630022D01*
X01247000Y01610542D01*
X01247000Y01589458D01*
X01255069Y01569978D01*
X01269978Y01555069D01*
X01282215Y01550000D01*
X01269978Y01544931D01*
X01255069Y01530022D01*
X01247000Y01510542D01*
X01247000Y01489458D01*
X01255069Y01469978D01*
X01269978Y01455069D01*
X01289458Y01447000D01*
X01310542Y01447000D01*
X01330022Y01455069D01*
X01344931Y01469978D01*
X01348850Y01479439D01*
X01349030Y01478887D01*
X01352960Y01471174D01*
X01358048Y01464170D01*
X01364170Y01458048D01*
X01371174Y01452960D01*
X01378887Y01449030D01*
X01387121Y01446354D01*
X01395671Y01445000D01*
X01398000Y01445000D01*
X01398000Y01497999D01*
X01402000Y01497999D01*
X01402000Y01445000D01*
X01404329Y01445000D01*
X01412879Y01446354D01*
X01421113Y01449030D01*
X01428826Y01452960D01*
X01435830Y01458048D01*
X01441952Y01464170D01*
X01447040Y01471174D01*
X01450970Y01478887D01*
X01451150Y01479439D01*
X01455069Y01469978D01*
X01469978Y01455069D01*
X01489458Y01447000D01*
X01510542Y01447000D01*
X01530022Y01455069D01*
X01544931Y01469978D01*
X01553000Y01489458D01*
X01553000Y01510542D01*
X01544931Y01530022D01*
X01530022Y01544931D01*
X01517785Y01550000D01*
X01530022Y01555069D01*
X01544931Y01569978D01*
X01545020Y01570192D01*
X01550604Y01564608D01*
X01565948Y01558252D01*
X01634052Y01558252D01*
X01649396Y01564608D01*
X01650000Y01565211D01*
X01650000Y01436438D01*
X01619691Y01448992D01*
X01580309Y01448992D01*
X01543925Y01433921D01*
X01516078Y01406074D01*
X01501008Y01369691D01*
X01501008Y01330309D01*
X01516078Y01293925D01*
X01543925Y01266078D01*
X01580309Y01251008D01*
X01619691Y01251008D01*
X01650000Y01263562D01*
X01650000Y01250000D01*
X00050000Y01250000D01*
X00050000Y01263883D02*
X00099225Y01263883D01*
X00093925Y01266078D02*
X00130309Y01251008D01*
X00169691Y01251008D01*
X00206074Y01266078D01*
X00233921Y01293925D01*
X00248992Y01330309D01*
X00248992Y01369691D01*
X00233921Y01406074D01*
X00206074Y01433921D01*
X00169691Y01448992D01*
X00130309Y01448992D01*
X00093925Y01433921D01*
X00066078Y01406074D01*
X00051008Y01369691D01*
X00051008Y01330309D01*
X00066078Y01293925D01*
X00093925Y01266078D01*
X00080122Y01279882D02*
X00050000Y01279882D01*
X00050000Y01295880D02*
X00065269Y01295880D01*
X00058642Y01311879D02*
X00050000Y01311879D01*
X00050000Y01327877D02*
X00052015Y01327877D01*
X00051008Y01343876D02*
X00050000Y01343876D01*
X00050000Y01359875D02*
X00051008Y01359875D01*
X00050000Y01375873D02*
X00053569Y01375873D01*
X00050000Y01391872D02*
X00060195Y01391872D01*
X00067874Y01407870D02*
X00050000Y01407870D01*
X00050000Y01423869D02*
X00083873Y01423869D01*
X00108280Y01439867D02*
X00050000Y01439867D01*
X00050000Y01455866D02*
X00217961Y01455866D01*
X00217961Y01449615D02*
X00225576Y01442000D01*
X00282385Y01442000D01*
X00290000Y01449615D01*
X00290000Y01483404D01*
X00284978Y01488426D01*
X00282327Y01491077D01*
X00282327Y01491078D01*
X00279840Y01493564D01*
X00282385Y01493564D01*
X00290000Y01501179D01*
X00290000Y01511949D01*
X00282385Y01519564D01*
X00267038Y01519564D01*
X00259307Y01527295D01*
X00259307Y01534968D01*
X00257741Y01536534D01*
X00274712Y01536534D01*
X00290000Y01551822D01*
X00290000Y01577938D01*
X00284978Y01582960D01*
X00282327Y01585611D01*
X00282327Y01585611D01*
X00279840Y01588098D01*
X00282385Y01588098D01*
X00290000Y01595713D01*
X00290000Y01606483D01*
X00282385Y01614098D01*
X00259307Y01614098D01*
X00259307Y01618733D01*
X00259365Y01618791D01*
X00282385Y01618791D01*
X00290000Y01626406D01*
X00290000Y01637175D01*
X00282385Y01644791D01*
X00279840Y01644791D01*
X00282327Y01647277D01*
X00290000Y01654950D01*
X00290000Y01665720D01*
X00290000Y01681066D01*
X00282385Y01688681D01*
X00274654Y01688681D01*
X00274654Y01688739D01*
X00267038Y01696355D01*
X00248596Y01696355D01*
X00240980Y01688739D01*
X00233307Y01681066D01*
X00233307Y01654950D01*
X00238329Y01649928D01*
X00240922Y01647335D01*
X00240922Y01647335D01*
X00243574Y01644684D01*
X00246031Y01642226D01*
X00240980Y01637175D01*
X00233307Y01629502D01*
X00233307Y01595713D01*
X00240922Y01588098D01*
X00243467Y01588098D01*
X00240922Y01585553D01*
X00233307Y01577938D01*
X00233307Y01551822D01*
X00238477Y01546652D01*
X00240922Y01544207D01*
X00240922Y01544207D01*
X00242546Y01542583D01*
X00240922Y01542583D01*
X00233307Y01534968D01*
X00233307Y01516525D01*
X00235596Y01514237D01*
X00233307Y01511949D01*
X00233307Y01501179D01*
X00235794Y01498693D01*
X00233249Y01498693D01*
X00225576Y01491019D01*
X00217961Y01483404D01*
X00217961Y01449615D01*
X00217961Y01471864D02*
X00050000Y01471864D01*
X00050000Y01487863D02*
X00222419Y01487863D01*
X00233307Y01503861D02*
X00050000Y01503861D01*
X00050000Y01519860D02*
X00233307Y01519860D01*
X00234197Y01535858D02*
X00050000Y01535858D01*
X00050000Y01551857D02*
X00233307Y01551857D01*
X00233307Y01567855D02*
X00050000Y01567855D01*
X00050000Y01583854D02*
X00239223Y01583854D01*
X00233307Y01599852D02*
X00050000Y01599852D01*
X00050000Y01615851D02*
X00233307Y01615851D01*
X00235654Y01631849D02*
X00050000Y01631849D01*
X00050000Y01647848D02*
X00240409Y01647848D01*
X00233307Y01663846D02*
X00050000Y01663846D01*
X00050000Y01679845D02*
X00233307Y01679845D01*
X00248085Y01695844D02*
X00050000Y01695844D01*
X00050000Y01711842D02*
X00305227Y01711842D01*
X00307131Y01709938D02*
X00309576Y01707493D01*
X00312079Y01704990D01*
X00317249Y01699820D01*
X00317952Y01699820D01*
X00317307Y01699175D01*
X00317307Y01699117D01*
X00317249Y01699117D01*
X00309634Y01691502D01*
X00309634Y01680732D01*
X00317249Y01673117D01*
X00317307Y01673117D01*
X00317307Y01673059D01*
X00324922Y01665444D01*
X00327467Y01665444D01*
X00324980Y01662957D01*
X00317307Y01655284D01*
X00317307Y01639880D01*
X00309576Y01639880D01*
X00301961Y01632265D01*
X00301961Y01621495D01*
X00309576Y01613880D01*
X00319794Y01613880D01*
X00317307Y01611393D01*
X00317307Y01577604D01*
X00322477Y01572434D01*
X00324922Y01569989D01*
X00324922Y01569989D01*
X00327426Y01567486D01*
X00332596Y01562316D01*
X00348645Y01562316D01*
X00348000Y01561671D01*
X00348000Y01561613D01*
X00324922Y01561613D01*
X00322634Y01559324D01*
X00320345Y01561613D01*
X00301903Y01561613D01*
X00294288Y01553998D01*
X00294288Y01543228D01*
X00301903Y01535613D01*
X00317307Y01535613D01*
X00317307Y01535555D01*
X00324922Y01527940D01*
X00335692Y01527940D01*
X00343307Y01535555D01*
X00343307Y01535613D01*
X00348000Y01535613D01*
X00348000Y01535555D01*
X00352130Y01531425D01*
X00348000Y01527295D01*
X00348000Y01527237D01*
X00309576Y01527237D01*
X00301961Y01519622D01*
X00301961Y01501179D01*
X00307012Y01496128D01*
X00301961Y01491078D01*
X00301961Y01449615D01*
X00309576Y01442000D01*
X00366385Y01442000D01*
X00374000Y01449615D01*
X00374000Y01460385D01*
X00366385Y01468000D01*
X00350980Y01468000D01*
X00350980Y01475731D01*
X00343365Y01483346D01*
X00332596Y01483346D01*
X00327961Y01478711D01*
X00327961Y01491078D01*
X00322910Y01496128D01*
X00327961Y01501179D01*
X00327961Y01501237D01*
X00348000Y01501237D01*
X00348000Y01501179D01*
X00355615Y01493564D01*
X00366385Y01493564D01*
X00374000Y01501179D01*
X00374000Y01527295D01*
X00369870Y01531425D01*
X00374000Y01535555D01*
X00374000Y01561671D01*
X00366385Y01569286D01*
X00365682Y01569286D01*
X00366385Y01569989D01*
X00374000Y01577604D01*
X00374000Y01577662D01*
X00381731Y01577662D01*
X00389346Y01585277D01*
X00389346Y01590486D01*
X00393576Y01586256D01*
X00408922Y01570910D01*
X00419692Y01570910D01*
X00427307Y01578525D01*
X00427307Y01586256D01*
X00432000Y01586256D01*
X00432000Y01578801D01*
X00431942Y01578801D01*
X00424327Y01571186D01*
X00424327Y01552743D01*
X00431942Y01545128D01*
X00434487Y01545128D01*
X00432000Y01542641D01*
X00432000Y01534910D01*
X00393576Y01534910D01*
X00385961Y01527295D01*
X00385961Y01516525D01*
X00393576Y01508910D01*
X00405895Y01496592D01*
X00405088Y01496323D01*
X00400272Y01486690D01*
X00403677Y01476473D01*
X00415931Y01470346D01*
X00403677Y01464219D01*
X00400272Y01454002D01*
X00405088Y01444370D01*
X00415305Y01440964D01*
X00449988Y01458306D01*
X00454219Y01459716D01*
X00454689Y01460657D01*
X00455630Y01461127D01*
X00457040Y01465359D01*
X00459036Y01469349D01*
X00458703Y01470346D01*
X00459036Y01471344D01*
X00457040Y01475334D01*
X00455630Y01479566D01*
X00454689Y01480036D01*
X00454219Y01480976D01*
X00449988Y01482387D01*
X00422339Y01496211D01*
X00427307Y01501179D01*
X00427307Y01508910D01*
X00432000Y01508910D01*
X00432000Y01501179D01*
X00439615Y01493564D01*
X00450385Y01493564D01*
X00458000Y01501179D01*
X00458000Y01542641D01*
X00452949Y01547692D01*
X00458000Y01552743D01*
X00458000Y01571186D01*
X00454330Y01574855D01*
X00458000Y01578525D01*
X00458000Y01619987D01*
X00450385Y01627603D01*
X00439615Y01627603D01*
X00432000Y01619987D01*
X00432000Y01612256D01*
X00393576Y01612256D01*
X00387193Y01605873D01*
X00381673Y01611393D01*
X00381673Y01611393D01*
X00374058Y01619009D01*
X00371513Y01619009D01*
X00374000Y01621495D01*
X00374000Y01632265D01*
X00366385Y01639880D01*
X00343365Y01639880D01*
X00343307Y01639938D01*
X00343307Y01644515D01*
X00343365Y01644573D01*
X00366385Y01644573D01*
X00374000Y01652188D01*
X00374000Y01662957D01*
X00366385Y01670573D01*
X00340820Y01670573D01*
X00343307Y01673059D01*
X00343307Y01673117D01*
X00358712Y01673117D01*
X00363882Y01678287D01*
X00366327Y01680732D01*
X00374000Y01688406D01*
X00374000Y01699175D01*
X00366385Y01706790D01*
X00365682Y01706790D01*
X00366385Y01707493D01*
X00374000Y01715108D01*
X00374000Y01741224D01*
X00368978Y01746246D01*
X00361276Y01753948D01*
X00374000Y01766672D01*
X00374000Y01792788D01*
X00368978Y01797810D01*
X00366327Y01800461D01*
X00366327Y01800461D01*
X00363840Y01802948D01*
X00366385Y01802948D01*
X00374000Y01810563D01*
X00374000Y01821333D01*
X00366385Y01828948D01*
X00343307Y01828948D01*
X00343307Y01833583D01*
X00343365Y01833641D01*
X00366385Y01833641D01*
X00374000Y01841256D01*
X00374000Y01852025D01*
X00366385Y01859641D01*
X00340820Y01859641D01*
X00343307Y01862127D01*
X00343307Y01862185D01*
X00358712Y01862185D01*
X00361218Y01864692D01*
X00366327Y01869800D01*
X00374000Y01877473D01*
X00374000Y01888243D01*
X00369870Y01892373D01*
X00374000Y01896503D01*
X00374000Y01907273D01*
X00366385Y01914888D01*
X00351038Y01914888D01*
X00343307Y01922619D01*
X00343307Y01930292D01*
X00341741Y01931858D01*
X00358712Y01931858D01*
X00374000Y01947146D01*
X00374000Y01973262D01*
X00368978Y01978284D01*
X00366327Y01980935D01*
X00363840Y01983422D01*
X00366385Y01983422D01*
X00374000Y01991037D01*
X00374000Y02017153D01*
X00369870Y02021283D01*
X00374000Y02025413D01*
X00374000Y02051529D01*
X00366385Y02059144D01*
X00365682Y02059144D01*
X00366327Y02059789D01*
X00374000Y02067462D01*
X00374000Y02093578D01*
X00366385Y02101193D01*
X00358654Y02101193D01*
X00358654Y02101251D01*
X00356167Y02103738D01*
X00366385Y02103738D01*
X00374000Y02111353D01*
X00374000Y02122122D01*
X00366385Y02129738D01*
X00351038Y02129738D01*
X00343307Y02137469D01*
X00343307Y02145142D01*
X00335692Y02152757D01*
X00324922Y02152757D01*
X00317307Y02145142D01*
X00317307Y02126699D01*
X00319596Y02124411D01*
X00317307Y02122122D01*
X00317307Y02111353D01*
X00324922Y02103738D01*
X00327467Y02103738D01*
X00324980Y02101251D01*
X00317307Y02093578D01*
X00317307Y02067462D01*
X00322329Y02062440D01*
X00324922Y02059847D01*
X00324922Y02059847D01*
X00327574Y02057196D01*
X00332596Y02052174D01*
X00348645Y02052174D01*
X00348000Y02051529D01*
X00348000Y02051471D01*
X00309576Y02051471D01*
X00301961Y02043856D01*
X00301961Y02025413D01*
X00309576Y02017798D01*
X00320345Y02017798D01*
X00327961Y02025413D01*
X00327961Y02025471D01*
X00348000Y02025471D01*
X00348000Y02025413D01*
X00352130Y02021283D01*
X00348000Y02017153D01*
X00348000Y02017095D01*
X00309576Y02017095D01*
X00301961Y02009480D01*
X00301961Y01991037D01*
X00309576Y01983422D01*
X00320345Y01983422D01*
X00327961Y01991037D01*
X00327961Y01991095D01*
X00348000Y01991095D01*
X00348000Y01991037D01*
X00350487Y01988550D01*
X00332596Y01988550D01*
X00324922Y01980877D01*
X00317307Y01973262D01*
X00317307Y01947146D01*
X00322477Y01941976D01*
X00324922Y01939531D01*
X00324922Y01939531D01*
X00326546Y01937907D01*
X00324922Y01937907D01*
X00317307Y01930292D01*
X00317307Y01911849D01*
X00319596Y01909561D01*
X00317307Y01907273D01*
X00317307Y01896503D01*
X00321437Y01892373D01*
X00317307Y01888243D01*
X00317307Y01888185D01*
X00317249Y01888185D01*
X00309634Y01880570D01*
X00309634Y01869800D01*
X00317249Y01862185D01*
X00317307Y01862185D01*
X00317307Y01862127D01*
X00324922Y01854512D01*
X00327467Y01854512D01*
X00324980Y01852025D01*
X00317307Y01844352D01*
X00317307Y01810563D01*
X00324922Y01802948D01*
X00327467Y01802948D01*
X00324922Y01800403D01*
X00317307Y01792788D01*
X00317307Y01766672D01*
X00322477Y01761502D01*
X00324922Y01759057D01*
X00324922Y01759057D01*
X00327426Y01756554D01*
X00327467Y01756513D01*
X00317249Y01756513D01*
X00309576Y01748839D01*
X00301961Y01741224D01*
X00301961Y01715108D01*
X00307131Y01709938D01*
X00309576Y01707493D02*
X00309576Y01707493D01*
X00313976Y01695844D02*
X00267549Y01695844D01*
X00290000Y01679845D02*
X00310521Y01679845D01*
X00325870Y01663846D02*
X00290000Y01663846D01*
X00282898Y01647848D02*
X00317307Y01647848D01*
X00301961Y01631849D02*
X00290000Y01631849D01*
X00307605Y01615851D02*
X00259307Y01615851D01*
X00290000Y01599852D02*
X00317307Y01599852D01*
X00317307Y01583854D02*
X00284084Y01583854D01*
X00290000Y01567855D02*
X00327056Y01567855D01*
X00294288Y01551857D02*
X00290000Y01551857D01*
X00301657Y01535858D02*
X00258417Y01535858D01*
X00266742Y01519860D02*
X00302199Y01519860D01*
X00301961Y01503861D02*
X00290000Y01503861D01*
X00285541Y01487863D02*
X00301961Y01487863D01*
X00301961Y01471864D02*
X00290000Y01471864D01*
X00290000Y01455866D02*
X00301961Y01455866D01*
X00327961Y01487863D02*
X00400858Y01487863D01*
X00398625Y01503861D02*
X00374000Y01503861D01*
X00374000Y01519860D02*
X00385961Y01519860D01*
X00393576Y01508910D02*
X00393576Y01508910D01*
X00374000Y01535858D02*
X00432000Y01535858D01*
X00425213Y01551857D02*
X00374000Y01551857D01*
X00367816Y01567855D02*
X00424327Y01567855D01*
X00427307Y01583854D02*
X00432000Y01583854D01*
X00458000Y01583854D02*
X00626898Y01583854D01*
X00624000Y01590850D02*
X00631003Y01573943D01*
X00643943Y01561003D01*
X00660850Y01554000D01*
X00739150Y01554000D01*
X00756057Y01561003D01*
X00768997Y01573943D01*
X00770061Y01576511D01*
X00778600Y01567972D01*
X00792485Y01562220D01*
X00807515Y01562220D01*
X00821400Y01567972D01*
X00832028Y01578600D01*
X00837779Y01592485D01*
X00837779Y01607515D01*
X00832028Y01621400D01*
X00824000Y01629428D01*
X00824000Y01772572D01*
X00828600Y01767972D01*
X00842485Y01762220D01*
X00857515Y01762220D01*
X00871400Y01767972D01*
X00882028Y01778600D01*
X00887779Y01792485D01*
X00887779Y01807515D01*
X00882028Y01821400D01*
X00874000Y01829428D01*
X00874000Y02270572D01*
X00882028Y02278600D01*
X00887779Y02292485D01*
X00887779Y02307515D01*
X00882028Y02321400D01*
X00874000Y02329428D01*
X00874000Y02570572D01*
X00882028Y02578600D01*
X00887779Y02592485D01*
X00887779Y02607515D01*
X00882028Y02621400D01*
X00871400Y02632028D01*
X00857515Y02637779D01*
X00842485Y02637779D01*
X00828600Y02632028D01*
X00817972Y02621400D01*
X00812220Y02607515D01*
X00812220Y02592485D01*
X00817972Y02578600D01*
X00826000Y02570572D01*
X00826000Y02527428D01*
X00821400Y02532028D01*
X00807515Y02537779D01*
X00792485Y02537779D01*
X00778600Y02532028D01*
X00770061Y02523489D01*
X00768997Y02526057D01*
X00756057Y02538997D01*
X00739150Y02546000D01*
X00660850Y02546000D01*
X00643943Y02538997D01*
X00631003Y02526057D01*
X00624000Y02509150D01*
X00624000Y02490850D01*
X00631003Y02473943D01*
X00643943Y02461003D01*
X00660850Y02454000D01*
X00739150Y02454000D01*
X00756057Y02461003D01*
X00768997Y02473943D01*
X00770061Y02476511D01*
X00776000Y02470572D01*
X00776000Y02429428D01*
X00770061Y02423489D01*
X00768997Y02426057D01*
X00756057Y02438997D01*
X00739150Y02446000D01*
X00660850Y02446000D01*
X00643943Y02438997D01*
X00631003Y02426057D01*
X00624000Y02409150D01*
X00624000Y02390850D01*
X00631003Y02373943D01*
X00643943Y02361003D01*
X00660850Y02354000D01*
X00739150Y02354000D01*
X00756057Y02361003D01*
X00768997Y02373943D01*
X00770061Y02376511D01*
X00776000Y02370572D01*
X00776000Y02213757D01*
X00774483Y02218426D01*
X00771053Y02225157D01*
X00766612Y02231270D01*
X00761270Y02236612D01*
X00755157Y02241053D01*
X00748426Y02244483D01*
X00741240Y02246818D01*
X00733778Y02248000D01*
X00702000Y02248000D01*
X00702000Y02202001D01*
X00698000Y02202001D01*
X00698000Y02248000D01*
X00666222Y02248000D01*
X00658760Y02246818D01*
X00651574Y02244483D01*
X00644843Y02241053D01*
X00638730Y02236612D01*
X00633388Y02231270D01*
X00628947Y02225157D01*
X00625517Y02218426D01*
X00623182Y02211240D01*
X00622000Y02203778D01*
X00622000Y02202000D01*
X00697999Y02202000D01*
X00697999Y02198000D01*
X00622000Y02198000D01*
X00622000Y02196222D01*
X00623182Y02188760D01*
X00625517Y02181574D01*
X00628947Y02174843D01*
X00633388Y02168730D01*
X00638730Y02163388D01*
X00644843Y02158947D01*
X00651574Y02155517D01*
X00658760Y02153182D01*
X00666222Y02152000D01*
X00698000Y02152000D01*
X00698000Y02197999D01*
X00702000Y02197999D01*
X00702000Y02152000D01*
X00733778Y02152000D01*
X00741240Y02153182D01*
X00748426Y02155517D01*
X00755157Y02158947D01*
X00761270Y02163388D01*
X00766612Y02168730D01*
X00771053Y02174843D01*
X00774483Y02181574D01*
X00776000Y02186243D01*
X00776000Y01629428D01*
X00770061Y01623489D01*
X00768997Y01626057D01*
X00756057Y01638997D01*
X00739150Y01646000D01*
X00660850Y01646000D01*
X00643943Y01638997D01*
X00631003Y01626057D01*
X00624000Y01609150D01*
X00624000Y01590850D01*
X00624000Y01599852D02*
X00458000Y01599852D01*
X00458000Y01615851D02*
X00626776Y01615851D01*
X00636796Y01631849D02*
X00374000Y01631849D01*
X00377216Y01615851D02*
X00432000Y01615851D01*
X00395978Y01583854D02*
X00387923Y01583854D01*
X00393576Y01586256D02*
X00393576Y01586256D01*
X00369660Y01647848D02*
X00776000Y01647848D01*
X00776000Y01663846D02*
X00758900Y01663846D01*
X00756057Y01661003D02*
X00768997Y01673943D01*
X00776000Y01690850D01*
X00776000Y01709150D01*
X00768997Y01726057D01*
X00756057Y01738997D01*
X00739150Y01746000D01*
X00660850Y01746000D01*
X00643943Y01738997D01*
X00631003Y01726057D01*
X00624000Y01709150D01*
X00624000Y01690850D01*
X00631003Y01673943D01*
X00643943Y01661003D01*
X00660850Y01654000D01*
X00739150Y01654000D01*
X00756057Y01661003D01*
X00771441Y01679845D02*
X00776000Y01679845D01*
X00776000Y01695844D02*
X00776000Y01695844D01*
X00776000Y01711842D02*
X00774885Y01711842D01*
X00776000Y01727841D02*
X00767213Y01727841D01*
X00776000Y01743839D02*
X00744367Y01743839D01*
X00739150Y01754000D02*
X00756057Y01761003D01*
X00768997Y01773943D01*
X00776000Y01790850D01*
X00776000Y01809150D01*
X00768997Y01826057D01*
X00756057Y01838997D01*
X00739150Y01846000D01*
X00660850Y01846000D01*
X00643943Y01838997D01*
X00631003Y01826057D01*
X00624000Y01809150D01*
X00624000Y01790850D01*
X00631003Y01773943D01*
X00643943Y01761003D01*
X00660850Y01754000D01*
X00739150Y01754000D01*
X00753243Y01759838D02*
X00776000Y01759838D01*
X00776000Y01775836D02*
X00769781Y01775836D01*
X00776000Y01791835D02*
X00776000Y01791835D01*
X00776000Y01807833D02*
X00776000Y01807833D01*
X00776000Y01823832D02*
X00769919Y01823832D01*
X00776000Y01839830D02*
X00754045Y01839830D01*
X00743565Y01855829D02*
X00776000Y01855829D01*
X00776000Y01871827D02*
X00766881Y01871827D01*
X00768997Y01873943D02*
X00776000Y01890850D01*
X00776000Y01909150D01*
X00768997Y01926057D01*
X00756057Y01938997D01*
X00739150Y01946000D01*
X00660850Y01946000D01*
X00643943Y01938997D01*
X00631003Y01926057D01*
X00624000Y01909150D01*
X00624000Y01890850D01*
X00631003Y01873943D01*
X00643943Y01861003D01*
X00660850Y01854000D01*
X00739150Y01854000D01*
X00756057Y01861003D01*
X00768997Y01873943D01*
X00774747Y01887826D02*
X00776000Y01887826D01*
X00776000Y01903824D02*
X00776000Y01903824D01*
X00776000Y01919823D02*
X00771579Y01919823D01*
X00776000Y01935821D02*
X00759232Y01935821D01*
X00776000Y01951820D02*
X00455000Y01951820D01*
X00458000Y01954819D02*
X00450385Y01947204D01*
X00424269Y01947204D01*
X00411961Y01959512D01*
X00411961Y01957916D01*
X00419634Y01950243D01*
X00419634Y01939473D01*
X00417147Y01936986D01*
X00419692Y01936986D01*
X00435038Y01921640D01*
X00450385Y01921640D01*
X00458000Y01914025D01*
X00458000Y01903255D01*
X00450385Y01895640D01*
X00424269Y01895640D01*
X00411961Y01907948D01*
X00411961Y01906352D01*
X00419634Y01898679D01*
X00419634Y01887909D01*
X00417147Y01885422D01*
X00419692Y01885422D01*
X00421980Y01883134D01*
X00424269Y01885422D01*
X00442712Y01885422D01*
X00447882Y01880252D01*
X00450327Y01877807D01*
X00450327Y01877807D01*
X00452830Y01875304D01*
X00458000Y01870134D01*
X00458000Y01844018D01*
X00450327Y01836345D01*
X00447840Y01833859D01*
X00450385Y01833859D01*
X00458000Y01826243D01*
X00458000Y01784781D01*
X00450385Y01777166D01*
X00447840Y01777166D01*
X00447882Y01777124D01*
X00450327Y01774679D01*
X00450327Y01774679D01*
X00452830Y01772176D01*
X00458000Y01767006D01*
X00458000Y01740890D01*
X00450327Y01733217D01*
X00447840Y01730731D01*
X00450385Y01730731D01*
X00458000Y01723115D01*
X00458000Y01681653D01*
X00450385Y01674038D01*
X00439615Y01674038D01*
X00411961Y01701693D01*
X00411961Y01700096D01*
X00419634Y01692423D01*
X00419634Y01681653D01*
X00412019Y01674038D01*
X00401249Y01674038D01*
X00393576Y01681711D01*
X00393576Y01681711D01*
X00391131Y01684156D01*
X00385961Y01689326D01*
X00385961Y01715442D01*
X00393576Y01723057D01*
X00398685Y01728166D01*
X00396227Y01730624D01*
X00393576Y01733275D01*
X00393576Y01733275D01*
X00390983Y01735868D01*
X00385961Y01740890D01*
X00385961Y01767006D01*
X00393634Y01774679D01*
X00401249Y01782295D01*
X00403794Y01782295D01*
X00393576Y01792512D01*
X00393576Y01792512D01*
X00385961Y01800127D01*
X00385961Y01810897D01*
X00393576Y01818512D01*
X00432000Y01818512D01*
X00432000Y01826243D01*
X00434487Y01828730D01*
X00424269Y01828730D01*
X00421980Y01831018D01*
X00419692Y01828730D01*
X00401249Y01828730D01*
X00397855Y01832124D01*
X00393576Y01836403D01*
X00393576Y01836403D01*
X00390983Y01838996D01*
X00385961Y01844018D01*
X00385961Y01844018D01*
X00385961Y01870134D01*
X00393634Y01877807D01*
X00398685Y01882858D01*
X00393576Y01887967D01*
X00393576Y01887967D01*
X00390983Y01890560D01*
X00385961Y01895582D01*
X00385961Y01921698D01*
X00393634Y01929371D01*
X00398685Y01934422D01*
X00393576Y01939531D01*
X00393576Y01939531D01*
X00390983Y01942124D01*
X00385961Y01947146D01*
X00385961Y01973262D01*
X00393634Y01980935D01*
X00398685Y01985986D01*
X00393576Y01991095D01*
X00393576Y01991095D01*
X00390983Y01993688D01*
X00385961Y01998710D01*
X00385961Y02024826D01*
X00393634Y02032499D01*
X00398685Y02037550D01*
X00393576Y02042659D01*
X00393576Y02042659D01*
X00390983Y02045252D01*
X00385961Y02050274D01*
X00385961Y02076390D01*
X00393634Y02084063D01*
X00396121Y02086550D01*
X00393576Y02086550D01*
X00385961Y02094165D01*
X00385961Y02135627D01*
X00391012Y02140678D01*
X00385961Y02145729D01*
X00385961Y02156498D01*
X00393576Y02164114D01*
X00431942Y02164114D01*
X00432000Y02164172D01*
X00432000Y02168749D01*
X00431942Y02168806D01*
X00393576Y02168806D01*
X00385961Y02176422D01*
X00385961Y02187191D01*
X00393576Y02194806D01*
X00396121Y02194806D01*
X00396079Y02194848D01*
X00393576Y02197351D01*
X00393576Y02197351D01*
X00391131Y02199796D01*
X00385961Y02204966D01*
X00385961Y02231082D01*
X00393576Y02238697D01*
X00393576Y02238697D01*
X00401249Y02246370D01*
X00412019Y02246370D01*
X00418144Y02240245D01*
X00424269Y02246370D01*
X00442712Y02246370D01*
X00447882Y02241200D01*
X00450327Y02238755D01*
X00450327Y02238755D01*
X00452830Y02236252D01*
X00458000Y02231082D01*
X00458000Y02204966D01*
X00445276Y02192242D01*
X00452978Y02184540D01*
X00458000Y02179518D01*
X00458000Y02153402D01*
X00450385Y02145787D01*
X00447840Y02143242D01*
X00450385Y02143242D01*
X00458000Y02135627D01*
X00458000Y02094165D01*
X00450385Y02086550D01*
X00431942Y02086550D01*
X00431386Y02087106D01*
X00411961Y02106531D01*
X00411961Y02094165D01*
X00409474Y02091678D01*
X00419692Y02091678D01*
X00435038Y02076332D01*
X00450385Y02076332D01*
X00458000Y02068717D01*
X00458000Y02057947D01*
X00450385Y02050332D01*
X00424269Y02050332D01*
X00411961Y02062640D01*
X00411961Y02061044D01*
X00419634Y02053371D01*
X00419634Y02042601D01*
X00417147Y02040114D01*
X00419692Y02040114D01*
X00435038Y02024768D01*
X00450385Y02024768D01*
X00458000Y02017153D01*
X00458000Y02006383D01*
X00450385Y01998768D01*
X00424269Y01998768D01*
X00411961Y02011076D01*
X00411961Y02009480D01*
X00419634Y02001807D01*
X00419634Y01991037D01*
X00417147Y01988550D01*
X00419692Y01988550D01*
X00435038Y01973204D01*
X00450385Y01973204D01*
X00458000Y01965589D01*
X00458000Y01954819D01*
X00455770Y01967818D02*
X00776000Y01967818D01*
X00776000Y01983817D02*
X00424425Y01983817D01*
X00423221Y01999815D02*
X00419634Y01999815D01*
X00396516Y01983817D02*
X00366780Y01983817D01*
X00366327Y01980935D02*
X00366327Y01980935D01*
X00374000Y01967818D02*
X00385961Y01967818D01*
X00385961Y01951820D02*
X00374000Y01951820D01*
X00362675Y01935821D02*
X00397286Y01935821D01*
X00385961Y01919823D02*
X00346103Y01919823D01*
X00322836Y01935821D02*
X00290000Y01935821D01*
X00290000Y01948401D02*
X00290000Y01922285D01*
X00285870Y01918155D01*
X00290000Y01914025D01*
X00290000Y01903255D01*
X00282327Y01895582D01*
X00282327Y01895582D01*
X00279882Y01893137D01*
X00274712Y01887967D01*
X00259307Y01887967D01*
X00259307Y01887909D01*
X00251692Y01880294D01*
X00240922Y01880294D01*
X00233307Y01887909D01*
X00233307Y01887967D01*
X00233249Y01887967D01*
X00225634Y01895582D01*
X00225634Y01906352D01*
X00233249Y01913967D01*
X00233307Y01913967D01*
X00233307Y01914025D01*
X00237437Y01918155D01*
X00233307Y01922285D01*
X00233307Y01922343D01*
X00217903Y01922343D01*
X00210288Y01929958D01*
X00210288Y01940728D01*
X00217903Y01948343D01*
X00236345Y01948343D01*
X00238634Y01946054D01*
X00240922Y01948343D01*
X00264000Y01948343D01*
X00264000Y01948401D01*
X00264645Y01949046D01*
X00225576Y01949046D01*
X00217961Y01956661D01*
X00217961Y01967430D01*
X00225576Y01975046D01*
X00248654Y01975046D01*
X00248654Y01979739D01*
X00225576Y01979739D01*
X00217961Y01987354D01*
X00217961Y01998123D01*
X00225576Y02005738D01*
X00235794Y02005738D01*
X00233307Y02008225D01*
X00233307Y02008283D01*
X00217903Y02008283D01*
X00210288Y02015898D01*
X00210288Y02026668D01*
X00217903Y02034283D01*
X00236345Y02034283D01*
X00238634Y02031994D01*
X00240922Y02034283D01*
X00264000Y02034283D01*
X00264000Y02034341D01*
X00268130Y02038471D01*
X00264000Y02042601D01*
X00264000Y02042659D01*
X00259307Y02042659D01*
X00259307Y02042601D01*
X00251692Y02034986D01*
X00240922Y02034986D01*
X00233307Y02042601D01*
X00233307Y02042659D01*
X00217903Y02042659D01*
X00210288Y02050274D01*
X00210288Y02061044D01*
X00217903Y02068659D01*
X00236345Y02068659D01*
X00238634Y02066370D01*
X00240922Y02068659D01*
X00264000Y02068659D01*
X00264000Y02068717D01*
X00271615Y02076332D01*
X00282385Y02076332D01*
X00290000Y02068717D01*
X00290000Y02042601D01*
X00285870Y02038471D01*
X00290000Y02034341D01*
X00290000Y02008225D01*
X00284949Y02003174D01*
X00290000Y01998123D01*
X00290000Y01987354D01*
X00289667Y01987020D01*
X00280038Y01977392D01*
X00290000Y01967430D01*
X00290000Y01956661D01*
X00285870Y01952531D01*
X00290000Y01948401D01*
X00286581Y01951820D02*
X00317307Y01951820D01*
X00317307Y01967818D02*
X00289612Y01967818D01*
X00286463Y01983817D02*
X00309181Y01983817D01*
X00320741Y01983817D02*
X00327862Y01983817D01*
X00301961Y01999815D02*
X00288308Y01999815D01*
X00290000Y02015814D02*
X00308295Y02015814D01*
X00301961Y02031813D02*
X00290000Y02031813D01*
X00290000Y02047811D02*
X00305916Y02047811D01*
X00320960Y02063810D02*
X00290000Y02063810D01*
X00317307Y02079808D02*
X00219804Y02079808D01*
X00213054Y02063810D02*
X00200597Y02063810D01*
X00206074Y02066078D02*
X00233921Y02093925D01*
X00248992Y02130309D01*
X00248992Y02169691D01*
X00233921Y02206074D01*
X00206074Y02233921D01*
X00169691Y02248992D01*
X00130309Y02248992D01*
X00093925Y02233921D01*
X00066078Y02206074D01*
X00051008Y02169691D01*
X00051008Y02130309D01*
X00066078Y02093925D01*
X00093925Y02066078D01*
X00130309Y02051008D01*
X00169691Y02051008D01*
X00206074Y02066078D01*
X00212750Y02047811D02*
X00050000Y02047811D01*
X00050000Y02031813D02*
X00215432Y02031813D01*
X00210372Y02015814D02*
X00050000Y02015814D01*
X00050000Y01999815D02*
X00219653Y01999815D01*
X00221498Y01983817D02*
X00050000Y01983817D01*
X00050000Y01967818D02*
X00218349Y01967818D01*
X00222802Y01951820D02*
X00050000Y01951820D01*
X00050000Y01935821D02*
X00210288Y01935821D01*
X00235769Y01919823D02*
X00050000Y01919823D01*
X00050000Y01903824D02*
X00225634Y01903824D01*
X00233390Y01887826D02*
X00050000Y01887826D01*
X00050000Y01871827D02*
X00217961Y01871827D01*
X00217961Y01871976D02*
X00217961Y01853533D01*
X00225576Y01845918D01*
X00235794Y01845918D01*
X00233307Y01843431D01*
X00233307Y01832662D01*
X00240922Y01825047D01*
X00264000Y01825047D01*
X00264000Y01820412D01*
X00263942Y01820354D01*
X00240922Y01820354D01*
X00233307Y01812739D01*
X00233307Y01801969D01*
X00235794Y01799483D01*
X00225576Y01799483D01*
X00217961Y01791867D01*
X00217961Y01781098D01*
X00225576Y01773483D01*
X00227922Y01771136D01*
X00225576Y01768790D01*
X00218294Y01761508D01*
X00217961Y01761175D01*
X00217961Y01750405D01*
X00225576Y01742790D01*
X00236345Y01742790D01*
X00282385Y01742790D01*
X00290000Y01750405D01*
X00290000Y01761175D01*
X00282385Y01768790D01*
X00259307Y01768790D01*
X00259307Y01773483D01*
X00282385Y01773483D01*
X00290000Y01781098D01*
X00290000Y01791867D01*
X00282385Y01799483D01*
X00279840Y01799483D01*
X00282385Y01802027D01*
X00290000Y01809642D01*
X00290000Y01843431D01*
X00284949Y01848482D01*
X00290000Y01853533D01*
X00290000Y01879649D01*
X00282385Y01887264D01*
X00271615Y01887264D01*
X00264000Y01879649D01*
X00264000Y01879591D01*
X00225576Y01879591D01*
X00217961Y01871976D01*
X00217961Y01855829D02*
X00050000Y01855829D01*
X00050000Y01839830D02*
X00233307Y01839830D01*
X00233307Y01807833D02*
X00050000Y01807833D01*
X00050000Y01791835D02*
X00217961Y01791835D01*
X00223222Y01775836D02*
X00050000Y01775836D01*
X00050000Y01759838D02*
X00217961Y01759838D01*
X00225576Y01768790D02*
X00225576Y01768790D01*
X00224527Y01743839D02*
X00050000Y01743839D01*
X00050000Y01727841D02*
X00301961Y01727841D01*
X00304576Y01743839D02*
X00283434Y01743839D01*
X00290000Y01759838D02*
X00324142Y01759838D01*
X00317307Y01775836D02*
X00284738Y01775836D01*
X00290000Y01791835D02*
X00317307Y01791835D01*
X00320037Y01807833D02*
X00288191Y01807833D01*
X00282385Y01802027D02*
X00282385Y01802027D01*
X00290000Y01823832D02*
X00317307Y01823832D01*
X00317307Y01839830D02*
X00290000Y01839830D01*
X00290000Y01855829D02*
X00323605Y01855829D01*
X00309634Y01871827D02*
X00290000Y01871827D01*
X00316890Y01887826D02*
X00259224Y01887826D01*
X00290000Y01903824D02*
X00317307Y01903824D01*
X00317307Y01919823D02*
X00287538Y01919823D01*
X00366327Y01869800D02*
X00366327Y01869800D01*
X00368354Y01871827D02*
X00387654Y01871827D01*
X00385961Y01855829D02*
X00370196Y01855829D01*
X00372574Y01839830D02*
X00390149Y01839830D01*
X00371501Y01823832D02*
X00432000Y01823832D01*
X00453812Y01839830D02*
X00645955Y01839830D01*
X00656435Y01855829D02*
X00458000Y01855829D01*
X00456307Y01871827D02*
X00633119Y01871827D01*
X00625253Y01887826D02*
X00419551Y01887826D01*
X00416085Y01903824D02*
X00414488Y01903824D01*
X00393717Y01887826D02*
X00374000Y01887826D01*
X00374000Y01903824D02*
X00385961Y01903824D01*
X00420857Y01935821D02*
X00640768Y01935821D01*
X00628421Y01919823D02*
X00452202Y01919823D01*
X00458000Y01903824D02*
X00624000Y01903824D01*
X00630081Y01823832D02*
X00458000Y01823832D01*
X00458000Y01807833D02*
X00624000Y01807833D01*
X00624000Y01791835D02*
X00458000Y01791835D01*
X00449170Y01775836D02*
X00630219Y01775836D01*
X00646757Y01759838D02*
X00458000Y01759838D01*
X00458000Y01743839D02*
X00655633Y01743839D01*
X00632787Y01727841D02*
X00453275Y01727841D01*
X00458000Y01711842D02*
X00625115Y01711842D01*
X00624000Y01695844D02*
X00458000Y01695844D01*
X00456192Y01679845D02*
X00628558Y01679845D01*
X00641100Y01663846D02*
X00373111Y01663846D01*
X00365440Y01679845D02*
X00395442Y01679845D01*
X00385961Y01695844D02*
X00374000Y01695844D01*
X00370734Y01711842D02*
X00385961Y01711842D01*
X00374000Y01727841D02*
X00398359Y01727841D01*
X00385961Y01743839D02*
X00371385Y01743839D01*
X00367165Y01759838D02*
X00385961Y01759838D01*
X00394791Y01775836D02*
X00374000Y01775836D01*
X00374000Y01791835D02*
X00394254Y01791835D01*
X00385961Y01807833D02*
X00371270Y01807833D01*
X00264000Y01823832D02*
X00050000Y01823832D01*
X00050000Y02063810D02*
X00099403Y02063810D01*
X00080196Y02079808D02*
X00050000Y02079808D01*
X00050000Y02095807D02*
X00065299Y02095807D01*
X00058672Y02111805D02*
X00050000Y02111805D01*
X00050000Y02127804D02*
X00052046Y02127804D01*
X00051008Y02143802D02*
X00050000Y02143802D01*
X00050000Y02159801D02*
X00051008Y02159801D01*
X00050000Y02175799D02*
X00053538Y02175799D01*
X00050000Y02191798D02*
X00060165Y02191798D01*
X00067800Y02207796D02*
X00050000Y02207796D01*
X00050000Y02223795D02*
X00083799Y02223795D01*
X00108102Y02239793D02*
X00050000Y02239793D01*
X00050000Y02255792D02*
X00656524Y02255792D01*
X00660850Y02254000D02*
X00739150Y02254000D01*
X00756057Y02261003D01*
X00768997Y02273943D01*
X00776000Y02290850D01*
X00776000Y02309150D01*
X00768997Y02326057D01*
X00756057Y02338997D01*
X00739150Y02346000D01*
X00660850Y02346000D01*
X00643943Y02338997D01*
X00631003Y02326057D01*
X00624000Y02309150D01*
X00624000Y02290850D01*
X00631003Y02273943D01*
X00643943Y02261003D01*
X00660850Y02254000D01*
X00643109Y02239793D02*
X00449289Y02239793D01*
X00458000Y02223795D02*
X00628252Y02223795D01*
X00622637Y02207796D02*
X00458000Y02207796D01*
X00445720Y02191798D02*
X00622701Y02191798D01*
X00628459Y02175799D02*
X00458000Y02175799D01*
X00458000Y02159801D02*
X00643667Y02159801D01*
X00698000Y02159801D02*
X00702000Y02159801D01*
X00702000Y02175799D02*
X00698000Y02175799D01*
X00698000Y02191798D02*
X00702000Y02191798D01*
X00702000Y02207796D02*
X00698000Y02207796D01*
X00698000Y02223795D02*
X00702000Y02223795D01*
X00702000Y02239793D02*
X00698000Y02239793D01*
X00743476Y02255792D02*
X00776000Y02255792D01*
X00776000Y02271790D02*
X00766844Y02271790D01*
X00774732Y02287789D02*
X00776000Y02287789D01*
X00776000Y02303787D02*
X00776000Y02303787D01*
X00776000Y02319786D02*
X00771594Y02319786D01*
X00776000Y02335784D02*
X00759269Y02335784D01*
X00776000Y02351783D02*
X00050000Y02351783D01*
X00050000Y02335784D02*
X00640731Y02335784D01*
X00628406Y02319786D02*
X00050000Y02319786D01*
X00050000Y02303787D02*
X00624000Y02303787D01*
X00625268Y02287789D02*
X00050000Y02287789D01*
X00050000Y02271790D02*
X00633156Y02271790D01*
X00637165Y02367781D02*
X00162835Y02367781D01*
X00173071Y02383780D02*
X00626928Y02383780D01*
X00624000Y02399779D02*
X00176000Y02399779D01*
X00173255Y02415777D02*
X00626745Y02415777D01*
X00636722Y02431776D02*
X00163278Y02431776D01*
X00158826Y02463773D02*
X00641173Y02463773D01*
X00628589Y02479771D02*
X00171411Y02479771D01*
X00176000Y02495770D02*
X00624000Y02495770D01*
X00625085Y02511768D02*
X00174915Y02511768D01*
X00167287Y02527767D02*
X00632713Y02527767D01*
X00655455Y02543765D02*
X00144545Y02543765D01*
X00153065Y02559764D02*
X00646935Y02559764D01*
X00643943Y02561003D02*
X00660850Y02554000D01*
X00739150Y02554000D01*
X00756057Y02561003D01*
X00768997Y02573943D01*
X00776000Y02590850D01*
X00776000Y02609150D01*
X00768997Y02626057D01*
X00756057Y02638997D01*
X00739150Y02646000D01*
X00660850Y02646000D01*
X00643943Y02638997D01*
X00631003Y02626057D01*
X00624000Y02609150D01*
X00624000Y02590850D01*
X00631003Y02573943D01*
X00643943Y02561003D01*
X00630250Y02575762D02*
X00169750Y02575762D01*
X00176000Y02591761D02*
X00624000Y02591761D01*
X00624000Y02607759D02*
X00176000Y02607759D01*
X00169949Y02623758D02*
X00630051Y02623758D01*
X00645777Y02639756D02*
X00154223Y02639756D01*
X00143387Y02655755D02*
X00656613Y02655755D01*
X00660850Y02654000D02*
X00739150Y02654000D01*
X00756057Y02661003D01*
X00768997Y02673943D01*
X00776000Y02690850D01*
X00776000Y02709150D01*
X00768997Y02726057D01*
X00756057Y02738997D01*
X00739150Y02746000D01*
X00660850Y02746000D01*
X00643943Y02738997D01*
X00631003Y02726057D01*
X00624000Y02709150D01*
X00624000Y02690850D01*
X00631003Y02673943D01*
X00643943Y02661003D01*
X00660850Y02654000D01*
X00633193Y02671753D02*
X00166807Y02671753D01*
X00174717Y02687752D02*
X00625283Y02687752D01*
X00624000Y02703750D02*
X00176000Y02703750D01*
X00171610Y02719749D02*
X00628390Y02719749D01*
X00640694Y02735748D02*
X00159306Y02735748D01*
X00162798Y02767745D02*
X00637202Y02767745D01*
X00631003Y02773943D02*
X00643943Y02761003D01*
X00660850Y02754000D01*
X00739150Y02754000D01*
X00756057Y02761003D01*
X00768997Y02773943D01*
X00776000Y02790850D01*
X00776000Y02809150D01*
X00768997Y02826057D01*
X00756057Y02838997D01*
X00739150Y02846000D01*
X00660850Y02846000D01*
X00643943Y02838997D01*
X00631003Y02826057D01*
X00624000Y02809150D01*
X00624000Y02790850D01*
X00631003Y02773943D01*
X00626944Y02783743D02*
X00173056Y02783743D01*
X00176000Y02799742D02*
X00624000Y02799742D01*
X00626730Y02815740D02*
X00173270Y02815740D01*
X00163315Y02831739D02*
X00636685Y02831739D01*
X00643943Y02861003D02*
X00660850Y02854000D01*
X00739150Y02854000D01*
X00756057Y02861003D01*
X00768997Y02873943D01*
X00776000Y02890850D01*
X00776000Y02909150D01*
X00768997Y02926057D01*
X00756057Y02938997D01*
X00739150Y02946000D01*
X00660850Y02946000D01*
X00643943Y02938997D01*
X00631003Y02926057D01*
X00624000Y02909150D01*
X00624000Y02890850D01*
X00631003Y02873943D01*
X00643943Y02861003D01*
X00641210Y02863736D02*
X00050000Y02863736D01*
X00050000Y02879734D02*
X00628604Y02879734D01*
X00624000Y02895733D02*
X00050000Y02895733D01*
X00050000Y02911731D02*
X00104420Y02911731D01*
X00082274Y02927730D02*
X00050000Y02927730D01*
X00050000Y02943728D02*
X00066276Y02943728D01*
X00059533Y02959727D02*
X00050000Y02959727D01*
X00050000Y02975725D02*
X00052906Y02975725D01*
X00051008Y02991724D02*
X00050000Y02991724D01*
X00050000Y03007722D02*
X00051008Y03007722D01*
X00050000Y03023721D02*
X00052677Y03023721D01*
X00050000Y03039719D02*
X00059304Y03039719D01*
X00195579Y02911731D02*
X00625069Y02911731D01*
X00632676Y02927730D02*
X00217726Y02927730D01*
X00233724Y02943728D02*
X00655366Y02943728D01*
X00647024Y02959727D02*
X00240467Y02959727D01*
X00247093Y02975725D02*
X00630265Y02975725D01*
X00624000Y02991724D02*
X00248992Y02991724D01*
X00248992Y03007722D02*
X00624000Y03007722D01*
X00630036Y03023721D02*
X00247323Y03023721D01*
X00240696Y03039719D02*
X00645688Y03039719D01*
X00754312Y03039719D02*
X00780611Y03039719D01*
X00773984Y03023721D02*
X00769964Y03023721D01*
X00769735Y02975725D02*
X00774213Y02975725D01*
X00780840Y02959727D02*
X00752976Y02959727D01*
X00744634Y02943728D02*
X00794114Y02943728D01*
X00817236Y02927730D02*
X00767324Y02927730D01*
X00774931Y02911731D02*
X00933924Y02911731D01*
X00932504Y02908304D02*
X00938860Y02923648D01*
X00950604Y02935392D01*
X00965948Y02941748D01*
X01034052Y02941748D01*
X01049396Y02935392D01*
X01061140Y02923648D01*
X01067496Y02908304D01*
X01067496Y02891696D01*
X01061140Y02876352D01*
X01049396Y02864608D01*
X01034052Y02858252D01*
X00965948Y02858252D01*
X00950604Y02864608D01*
X00938860Y02876352D01*
X00932504Y02891696D01*
X00932504Y02908304D01*
X00932504Y02895733D02*
X00776000Y02895733D01*
X00771396Y02879734D02*
X00937458Y02879734D01*
X00952709Y02863736D02*
X00758789Y02863736D01*
X00763315Y02831739D02*
X00946950Y02831739D01*
X00950604Y02835392D02*
X00938860Y02823648D01*
X00932504Y02808304D01*
X00932504Y02791696D01*
X00938860Y02776352D01*
X00950604Y02764608D01*
X00965948Y02758252D01*
X01034052Y02758252D01*
X01049396Y02764608D01*
X01061140Y02776352D01*
X01067496Y02791696D01*
X01067496Y02808304D01*
X01061140Y02823648D01*
X01049396Y02835392D01*
X01034052Y02841748D01*
X00965948Y02841748D01*
X00950604Y02835392D01*
X00935584Y02815740D02*
X00773270Y02815740D01*
X00776000Y02799742D02*
X00932504Y02799742D01*
X00935798Y02783743D02*
X00773056Y02783743D01*
X00762798Y02767745D02*
X00947467Y02767745D01*
X00957459Y02740543D02*
X00951323Y02737417D01*
X00945752Y02733369D01*
X00940883Y02728500D01*
X00936835Y02722929D01*
X00933709Y02716793D01*
X00931581Y02710244D01*
X00930504Y02703443D01*
X00930504Y02700000D01*
X00999999Y02700000D01*
X00999999Y02699999D01*
X01000000Y02699999D01*
X01000000Y02656252D01*
X01029191Y02656252D01*
X01035992Y02657329D01*
X01042541Y02659457D01*
X01048677Y02662583D01*
X01054248Y02666631D01*
X01059117Y02671500D01*
X01063165Y02677071D01*
X01066291Y02683207D01*
X01068419Y02689756D01*
X01069496Y02696557D01*
X01069496Y02699999D01*
X01000001Y02699999D01*
X01000001Y02700000D01*
X01069496Y02700000D01*
X01069496Y02703443D01*
X01068419Y02710244D01*
X01066291Y02716793D01*
X01063165Y02722929D01*
X01059117Y02728500D01*
X01054248Y02733369D01*
X01048677Y02737417D01*
X01042541Y02740543D01*
X01035992Y02742671D01*
X01029191Y02743748D01*
X01000000Y02743748D01*
X01000000Y02700001D01*
X00999999Y02700001D01*
X00999999Y02743748D01*
X00970809Y02743748D01*
X00964008Y02742671D01*
X00957459Y02740543D01*
X00949026Y02735748D02*
X00759306Y02735748D01*
X00771610Y02719749D02*
X00935215Y02719749D01*
X00930553Y02703750D02*
X00776000Y02703750D01*
X00774717Y02687752D02*
X00932232Y02687752D01*
X00931581Y02689756D02*
X00933709Y02683207D01*
X00936835Y02677071D01*
X00940883Y02671500D01*
X00945752Y02666631D01*
X00951323Y02662583D01*
X00957459Y02659457D01*
X00964008Y02657329D01*
X00970809Y02656252D01*
X00999999Y02656252D01*
X00999999Y02699999D01*
X00930504Y02699999D01*
X00930504Y02696557D01*
X00931581Y02689756D01*
X00940699Y02671753D02*
X00766807Y02671753D01*
X00754223Y02639756D02*
X00961140Y02639756D01*
X00965948Y02641748D02*
X00950604Y02635392D01*
X00938860Y02623648D01*
X00932504Y02608304D01*
X00932504Y02591696D01*
X00938860Y02576352D01*
X00950604Y02564608D01*
X00965948Y02558252D01*
X01034052Y02558252D01*
X01049396Y02564608D01*
X01054980Y02570192D01*
X01055069Y02569978D01*
X01069978Y02555069D01*
X01082215Y02550000D01*
X01069978Y02544931D01*
X01055069Y02530022D01*
X01054980Y02529808D01*
X01049396Y02535392D01*
X01034052Y02541748D01*
X00965948Y02541748D01*
X00950604Y02535392D01*
X00938860Y02523648D01*
X00932504Y02508304D01*
X00932504Y02491696D01*
X00938860Y02476352D01*
X00950604Y02464608D01*
X00965948Y02458252D01*
X01034052Y02458252D01*
X01049396Y02464608D01*
X01054980Y02470192D01*
X01055069Y02469978D01*
X01069978Y02455069D01*
X01082215Y02450000D01*
X01069978Y02444931D01*
X01055069Y02430022D01*
X01054980Y02429808D01*
X01049396Y02435392D01*
X01034052Y02441748D01*
X00965948Y02441748D01*
X00950604Y02435392D01*
X00938860Y02423648D01*
X00932504Y02408304D01*
X00932504Y02391696D01*
X00938860Y02376352D01*
X00950604Y02364608D01*
X00965948Y02358252D01*
X01034052Y02358252D01*
X01049396Y02364608D01*
X01054980Y02370192D01*
X01055069Y02369978D01*
X01069978Y02355069D01*
X01082215Y02350000D01*
X01069978Y02344931D01*
X01055069Y02330022D01*
X01054980Y02329808D01*
X01049396Y02335392D01*
X01034052Y02341748D01*
X00965948Y02341748D01*
X00950604Y02335392D01*
X00938860Y02323648D01*
X00932504Y02308304D01*
X00932504Y02291696D01*
X00938860Y02276352D01*
X00950604Y02264608D01*
X00965948Y02258252D01*
X01034052Y02258252D01*
X01049396Y02264608D01*
X01054980Y02270192D01*
X01055069Y02269978D01*
X01069978Y02255069D01*
X01082215Y02250000D01*
X01069978Y02244931D01*
X01055069Y02230022D01*
X01054980Y02229808D01*
X01049396Y02235392D01*
X01034052Y02241748D01*
X00965948Y02241748D01*
X00950604Y02235392D01*
X00938860Y02223648D01*
X00932504Y02208304D01*
X00932504Y02191696D01*
X00938860Y02176352D01*
X00950604Y02164608D01*
X00965948Y02158252D01*
X01034052Y02158252D01*
X01049396Y02164608D01*
X01054980Y02170192D01*
X01055069Y02169978D01*
X01069978Y02155069D01*
X01082215Y02150000D01*
X01069978Y02144931D01*
X01055069Y02130022D01*
X01054980Y02129808D01*
X01049396Y02135392D01*
X01034052Y02141748D01*
X00965948Y02141748D01*
X00950604Y02135392D01*
X00938860Y02123648D01*
X00932504Y02108304D01*
X00932504Y02091696D01*
X00938860Y02076352D01*
X00950604Y02064608D01*
X00965948Y02058252D01*
X01034052Y02058252D01*
X01049396Y02064608D01*
X01054980Y02070192D01*
X01055069Y02069978D01*
X01069978Y02055069D01*
X01082215Y02050000D01*
X01069978Y02044931D01*
X01055069Y02030022D01*
X01054980Y02029808D01*
X01049396Y02035392D01*
X01034052Y02041748D01*
X00965948Y02041748D01*
X00950604Y02035392D01*
X00938860Y02023648D01*
X00932504Y02008304D01*
X00932504Y01991696D01*
X00938860Y01976352D01*
X00950604Y01964608D01*
X00965948Y01958252D01*
X01034052Y01958252D01*
X01049396Y01964608D01*
X01054980Y01970192D01*
X01055069Y01969978D01*
X01069978Y01955069D01*
X01082215Y01950000D01*
X01069978Y01944931D01*
X01055069Y01930022D01*
X01054980Y01929808D01*
X01049396Y01935392D01*
X01034052Y01941748D01*
X00965948Y01941748D01*
X00950604Y01935392D01*
X00938860Y01923648D01*
X00932504Y01908304D01*
X00932504Y01891696D01*
X00938860Y01876352D01*
X00950604Y01864608D01*
X00965948Y01858252D01*
X01034052Y01858252D01*
X01049396Y01864608D01*
X01054980Y01870192D01*
X01055069Y01869978D01*
X01069978Y01855069D01*
X01082215Y01850000D01*
X01069978Y01844931D01*
X01055069Y01830022D01*
X01054980Y01829808D01*
X01049396Y01835392D01*
X01034052Y01841748D01*
X00965948Y01841748D01*
X00950604Y01835392D01*
X00938860Y01823648D01*
X00932504Y01808304D01*
X00932504Y01791696D01*
X00938860Y01776352D01*
X00950604Y01764608D01*
X00965948Y01758252D01*
X01034052Y01758252D01*
X01049396Y01764608D01*
X01054980Y01770192D01*
X01055069Y01769978D01*
X01069978Y01755069D01*
X01089458Y01747000D01*
X01110542Y01747000D01*
X01130022Y01755069D01*
X01144931Y01769978D01*
X01153000Y01789458D01*
X01153000Y01810542D01*
X01144931Y01830022D01*
X01130022Y01844931D01*
X01117785Y01850000D01*
X01130022Y01855069D01*
X01144931Y01869978D01*
X01153000Y01889458D01*
X01153000Y01910542D01*
X01144931Y01930022D01*
X01130022Y01944931D01*
X01117785Y01950000D01*
X01130022Y01955069D01*
X01144931Y01969978D01*
X01153000Y01989458D01*
X01153000Y02010542D01*
X01144931Y02030022D01*
X01130022Y02044931D01*
X01117785Y02050000D01*
X01130022Y02055069D01*
X01144931Y02069978D01*
X01153000Y02089458D01*
X01153000Y02110542D01*
X01144931Y02130022D01*
X01130022Y02144931D01*
X01117785Y02150000D01*
X01130022Y02155069D01*
X01144931Y02169978D01*
X01153000Y02189458D01*
X01153000Y02210542D01*
X01144931Y02230022D01*
X01130022Y02244931D01*
X01117785Y02250000D01*
X01130022Y02255069D01*
X01144931Y02269978D01*
X01153000Y02289458D01*
X01153000Y02310542D01*
X01144931Y02330022D01*
X01130022Y02344931D01*
X01117785Y02350000D01*
X01130022Y02355069D01*
X01144931Y02369978D01*
X01153000Y02389458D01*
X01153000Y02410542D01*
X01144931Y02430022D01*
X01130022Y02444931D01*
X01117785Y02450000D01*
X01130022Y02455069D01*
X01144931Y02469978D01*
X01153000Y02489458D01*
X01153000Y02510542D01*
X01144931Y02530022D01*
X01130022Y02544931D01*
X01117785Y02550000D01*
X01130022Y02555069D01*
X01144931Y02569978D01*
X01153000Y02589458D01*
X01153000Y02610542D01*
X01144931Y02630022D01*
X01130022Y02644931D01*
X01110542Y02653000D01*
X01089458Y02653000D01*
X01069978Y02644931D01*
X01055069Y02630022D01*
X01054980Y02629808D01*
X01049396Y02635392D01*
X01034052Y02641748D01*
X00965948Y02641748D01*
X00938969Y02623758D02*
X00879670Y02623758D01*
X00887678Y02607759D02*
X00932504Y02607759D01*
X00932504Y02591761D02*
X00887479Y02591761D01*
X00879191Y02575762D02*
X00939449Y02575762D01*
X00962298Y02559764D02*
X00874000Y02559764D01*
X00874000Y02543765D02*
X01068812Y02543765D01*
X01065283Y02559764D02*
X01037702Y02559764D01*
X01038860Y02639756D02*
X01064803Y02639756D01*
X01059301Y02671753D02*
X01254333Y02671753D01*
X01247706Y02687752D02*
X01067768Y02687752D01*
X01069447Y02703750D02*
X01247000Y02703750D01*
X01250814Y02719749D02*
X01064785Y02719749D01*
X01050974Y02735748D02*
X01260794Y02735748D01*
X01278000Y02751746D02*
X00050000Y02751746D01*
X00050000Y02847737D02*
X01276752Y02847737D01*
X01256785Y02831739D02*
X01053050Y02831739D01*
X01064416Y02815740D02*
X01249153Y02815740D01*
X01247000Y02799742D02*
X01067496Y02799742D01*
X01064202Y02783743D02*
X01249367Y02783743D01*
X01257302Y02767745D02*
X01052533Y02767745D01*
X01000000Y02735748D02*
X00999999Y02735748D01*
X00999999Y02719749D02*
X01000000Y02719749D01*
X00999999Y02703750D02*
X01000000Y02703750D01*
X00999999Y02687752D02*
X01000000Y02687752D01*
X00999999Y02671753D02*
X01000000Y02671753D01*
X01135197Y02639756D02*
X01264803Y02639756D01*
X01269292Y02655755D02*
X00743387Y02655755D01*
X00769949Y02623758D02*
X00820330Y02623758D01*
X00812322Y02607759D02*
X00776000Y02607759D01*
X00776000Y02591761D02*
X00812520Y02591761D01*
X00820809Y02575762D02*
X00769750Y02575762D01*
X00753065Y02559764D02*
X00826000Y02559764D01*
X00826000Y02543765D02*
X00744545Y02543765D01*
X00767287Y02527767D02*
X00774339Y02527767D01*
X00800000Y02500000D02*
X00800000Y02400000D01*
X00800000Y01600000D01*
X00821118Y01567855D02*
X00947356Y01567855D01*
X00950604Y01564608D02*
X00965948Y01558252D01*
X01034052Y01558252D01*
X01049396Y01564608D01*
X01061140Y01576352D01*
X01067496Y01591696D01*
X01067496Y01608304D01*
X01061140Y01623648D01*
X01049396Y01635392D01*
X01034052Y01641748D01*
X00965948Y01641748D01*
X00950604Y01635392D01*
X00938860Y01623648D01*
X00932504Y01608304D01*
X00932504Y01591696D01*
X00938860Y01576352D01*
X00950604Y01564608D01*
X00935752Y01583854D02*
X00834204Y01583854D01*
X00837779Y01599852D02*
X00932504Y01599852D01*
X00935630Y01615851D02*
X00834327Y01615851D01*
X00824000Y01631849D02*
X00947061Y01631849D01*
X00952441Y01663846D02*
X00824000Y01663846D01*
X00824000Y01647848D02*
X01277020Y01647848D01*
X01261200Y01663846D02*
X01047559Y01663846D01*
X01049396Y01664608D02*
X01034052Y01658252D01*
X00965948Y01658252D01*
X00950604Y01664608D01*
X00938860Y01676352D01*
X00932504Y01691696D01*
X00932504Y01708304D01*
X00938860Y01723648D01*
X00950604Y01735392D01*
X00965948Y01741748D01*
X01034052Y01741748D01*
X01049396Y01735392D01*
X01061140Y01723648D01*
X01067496Y01708304D01*
X01067496Y01691696D01*
X01061140Y01676352D01*
X01049396Y01664608D01*
X01062587Y01679845D02*
X01250982Y01679845D01*
X01247000Y01695844D02*
X01067496Y01695844D01*
X01066031Y01711842D02*
X01247538Y01711842D01*
X01254165Y01727841D02*
X01056948Y01727841D01*
X01065209Y01759838D02*
X01037880Y01759838D01*
X00962120Y01759838D02*
X00824000Y01759838D01*
X00824000Y01743839D02*
X01268886Y01743839D01*
X01265209Y01759838D02*
X01134791Y01759838D01*
X01147358Y01775836D02*
X01252642Y01775836D01*
X01247000Y01791835D02*
X01153000Y01791835D01*
X01153000Y01807833D02*
X01247000Y01807833D01*
X01252505Y01823832D02*
X01147495Y01823832D01*
X01135123Y01839830D02*
X01264877Y01839830D01*
X01269218Y01855829D02*
X01130782Y01855829D01*
X01145697Y01871827D02*
X01254303Y01871827D01*
X01247676Y01887826D02*
X01152324Y01887826D01*
X01153000Y01903824D02*
X01247000Y01903824D01*
X01250844Y01919823D02*
X01149156Y01919823D01*
X01139132Y01935821D02*
X01260868Y01935821D01*
X01277821Y01951820D02*
X01122178Y01951820D01*
X01142772Y01967818D02*
X01257228Y01967818D01*
X01249336Y01983817D02*
X01150663Y01983817D01*
X01153000Y01999815D02*
X01247000Y01999815D01*
X01249184Y02015814D02*
X01150816Y02015814D01*
X01143141Y02031813D02*
X01256859Y02031813D01*
X01276931Y02047811D02*
X01123069Y02047811D01*
X01138763Y02063810D02*
X01261237Y02063810D01*
X01250997Y02079808D02*
X01149003Y02079808D01*
X01153000Y02095807D02*
X01247000Y02095807D01*
X01247523Y02111805D02*
X01152477Y02111805D01*
X01145850Y02127804D02*
X01254150Y02127804D01*
X01268849Y02143802D02*
X01131151Y02143802D01*
X01134754Y02159801D02*
X01265246Y02159801D01*
X01252657Y02175799D02*
X01147342Y02175799D01*
X01153000Y02191798D02*
X01247000Y02191798D01*
X01247000Y02207796D02*
X01153000Y02207796D01*
X01147511Y02223795D02*
X01252489Y02223795D01*
X01264840Y02239793D02*
X01135160Y02239793D01*
X01130745Y02255792D02*
X01269255Y02255792D01*
X01254318Y02271790D02*
X01145682Y02271790D01*
X01152309Y02287789D02*
X01247691Y02287789D01*
X01247000Y02303787D02*
X01153000Y02303787D01*
X01149171Y02319786D02*
X01250829Y02319786D01*
X01260831Y02335784D02*
X01139169Y02335784D01*
X01122089Y02351783D02*
X01277910Y02351783D01*
X01257265Y02367781D02*
X01142735Y02367781D01*
X01150648Y02383780D02*
X01249352Y02383780D01*
X01247000Y02399779D02*
X01153000Y02399779D01*
X01150832Y02415777D02*
X01249168Y02415777D01*
X01256822Y02431776D02*
X01143178Y02431776D01*
X01123158Y02447774D02*
X01276842Y02447774D01*
X01261274Y02463773D02*
X01138726Y02463773D01*
X01148988Y02479771D02*
X01251012Y02479771D01*
X01247000Y02495770D02*
X01153000Y02495770D01*
X01152492Y02511768D02*
X01247508Y02511768D01*
X01254135Y02527767D02*
X01145865Y02527767D01*
X01131188Y02543765D02*
X01268812Y02543765D01*
X01265283Y02559764D02*
X01134717Y02559764D01*
X01147327Y02575762D02*
X01252673Y02575762D01*
X01247000Y02591761D02*
X01153000Y02591761D01*
X01153000Y02607759D02*
X01247000Y02607759D01*
X01252474Y02623758D02*
X01147526Y02623758D01*
X01061274Y02463773D02*
X01047380Y02463773D01*
X01053013Y02431776D02*
X01056822Y02431776D01*
X01076842Y02447774D02*
X00874000Y02447774D01*
X00874000Y02431776D02*
X00946987Y02431776D01*
X00935599Y02415777D02*
X00874000Y02415777D01*
X00874000Y02399779D02*
X00932504Y02399779D01*
X00935783Y02383780D02*
X00874000Y02383780D01*
X00874000Y02367781D02*
X00947430Y02367781D01*
X00951551Y02335784D02*
X00874000Y02335784D01*
X00874000Y02351783D02*
X01077911Y02351783D01*
X01060831Y02335784D02*
X01048449Y02335784D01*
X01052570Y02367781D02*
X01057265Y02367781D01*
X01069255Y02255792D02*
X00874000Y02255792D01*
X00874000Y02239793D02*
X00961229Y02239793D01*
X00943421Y02271790D02*
X00875219Y02271790D01*
X00885834Y02287789D02*
X00934122Y02287789D01*
X00932504Y02303787D02*
X00887779Y02303787D01*
X00882697Y02319786D02*
X00937260Y02319786D01*
X00850000Y02300000D02*
X00850000Y01800000D01*
X00879264Y01775836D02*
X00939375Y01775836D01*
X00932504Y01791835D02*
X00887510Y01791835D01*
X00887648Y01807833D02*
X00932504Y01807833D01*
X00939043Y01823832D02*
X00879596Y01823832D01*
X00874000Y01839830D02*
X00961318Y01839830D01*
X00943384Y01871827D02*
X00874000Y01871827D01*
X00874000Y01855829D02*
X01069218Y01855829D01*
X01064877Y01839830D02*
X01038682Y01839830D01*
X01048360Y01935821D02*
X01060868Y01935821D01*
X01077821Y01951820D02*
X00874000Y01951820D01*
X00874000Y01967818D02*
X00947393Y01967818D01*
X00935767Y01983817D02*
X00874000Y01983817D01*
X00874000Y01999815D02*
X00932504Y01999815D01*
X00935615Y02015814D02*
X00874000Y02015814D01*
X00874000Y02031813D02*
X00947024Y02031813D01*
X00952530Y02063810D02*
X00874000Y02063810D01*
X00874000Y02079808D02*
X00937428Y02079808D01*
X00932504Y02095807D02*
X00874000Y02095807D01*
X00874000Y02111805D02*
X00933954Y02111805D01*
X00943015Y02127804D02*
X00874000Y02127804D01*
X00874000Y02143802D02*
X01068849Y02143802D01*
X01065246Y02159801D02*
X01037791Y02159801D01*
X00962209Y02159801D02*
X00874000Y02159801D01*
X00874000Y02175799D02*
X00939412Y02175799D01*
X00932504Y02191798D02*
X00874000Y02191798D01*
X00874000Y02207796D02*
X00932504Y02207796D01*
X00939006Y02223795D02*
X00874000Y02223795D01*
X00850000Y02300000D02*
X00850000Y02600000D01*
X00826000Y02527767D02*
X00825661Y02527767D01*
X00874000Y02527767D02*
X00942978Y02527767D01*
X00933939Y02511768D02*
X00874000Y02511768D01*
X00874000Y02495770D02*
X00932504Y02495770D01*
X00937443Y02479771D02*
X00874000Y02479771D01*
X00874000Y02463773D02*
X00952619Y02463773D01*
X00776000Y02463773D02*
X00758826Y02463773D01*
X00776000Y02447774D02*
X00050000Y02447774D01*
X00050000Y02543765D02*
X00055455Y02543765D01*
X00056613Y02655755D02*
X00050000Y02655755D01*
X00191898Y02239793D02*
X00394672Y02239793D01*
X00385961Y02223795D02*
X00216201Y02223795D01*
X00232200Y02207796D02*
X00385961Y02207796D01*
X00390567Y02191798D02*
X00239835Y02191798D01*
X00246462Y02175799D02*
X00386583Y02175799D01*
X00389263Y02159801D02*
X00248992Y02159801D01*
X00248992Y02143802D02*
X00317307Y02143802D01*
X00317307Y02127804D02*
X00247954Y02127804D01*
X00241327Y02111805D02*
X00317307Y02111805D01*
X00319536Y02095807D02*
X00234701Y02095807D01*
X00343307Y02143802D02*
X00387887Y02143802D01*
X00385961Y02127804D02*
X00368319Y02127804D01*
X00374000Y02111805D02*
X00385961Y02111805D01*
X00385961Y02095807D02*
X00371771Y02095807D01*
X00374000Y02079808D02*
X00389379Y02079808D01*
X00385961Y02063810D02*
X00370347Y02063810D01*
X00374000Y02047811D02*
X00388424Y02047811D01*
X00392947Y02031813D02*
X00374000Y02031813D01*
X00374000Y02015814D02*
X00385961Y02015814D01*
X00385961Y01999815D02*
X00374000Y01999815D01*
X00418057Y01951820D02*
X00419653Y01951820D01*
X00451432Y01999815D02*
X00776000Y01999815D01*
X00776000Y02015814D02*
X00458000Y02015814D01*
X00427994Y02031813D02*
X00776000Y02031813D01*
X00776000Y02047811D02*
X00419634Y02047811D01*
X00431562Y02079808D02*
X00776000Y02079808D01*
X00776000Y02063810D02*
X00458000Y02063810D01*
X00458000Y02095807D02*
X00776000Y02095807D01*
X00776000Y02111805D02*
X00458000Y02111805D01*
X00458000Y02127804D02*
X00776000Y02127804D01*
X00776000Y02143802D02*
X00448400Y02143802D01*
X00422685Y02095807D02*
X00411961Y02095807D01*
X00756333Y02159801D02*
X00776000Y02159801D01*
X00776000Y02175799D02*
X00771541Y02175799D01*
X00771748Y02223795D02*
X00776000Y02223795D01*
X00776000Y02239793D02*
X00756891Y02239793D01*
X00762835Y02367781D02*
X00776000Y02367781D01*
X00776000Y02431776D02*
X00763278Y02431776D01*
X01038771Y02239793D02*
X01064840Y02239793D01*
X01061237Y02063810D02*
X01047469Y02063810D01*
X01052976Y02031813D02*
X01056859Y02031813D01*
X01076931Y02047811D02*
X00874000Y02047811D01*
X00874000Y01935821D02*
X00951640Y01935821D01*
X00937275Y01919823D02*
X00874000Y01919823D01*
X00874000Y01903824D02*
X00932504Y01903824D01*
X00934107Y01887826D02*
X00874000Y01887826D01*
X00824000Y01727841D02*
X00943052Y01727841D01*
X00933969Y01711842D02*
X00824000Y01711842D01*
X00824000Y01695844D02*
X00932504Y01695844D01*
X00937413Y01679845D02*
X00824000Y01679845D01*
X00776000Y01631849D02*
X00763204Y01631849D01*
X00762909Y01567855D02*
X00778881Y01567855D01*
X00756057Y01538997D02*
X00739150Y01546000D01*
X00660850Y01546000D01*
X00643943Y01538997D01*
X00631003Y01526057D01*
X00624000Y01509150D01*
X00624000Y01490850D01*
X00631003Y01473943D01*
X00643943Y01461003D01*
X00660850Y01454000D01*
X00739150Y01454000D01*
X00756057Y01461003D01*
X00768997Y01473943D01*
X00776000Y01490850D01*
X00776000Y01509150D01*
X00768997Y01526057D01*
X00756057Y01538997D01*
X00759195Y01535858D02*
X01260905Y01535858D01*
X01250859Y01519860D02*
X00771564Y01519860D01*
X00776000Y01503861D02*
X01247000Y01503861D01*
X01247661Y01487863D02*
X00774762Y01487863D01*
X00766918Y01471864D02*
X01254287Y01471864D01*
X01269181Y01455866D02*
X00743654Y01455866D01*
X00739150Y01446000D02*
X00756057Y01438997D01*
X00768997Y01426057D01*
X00776000Y01409150D01*
X00776000Y01390850D01*
X00768997Y01373943D01*
X00756057Y01361003D01*
X00739150Y01354000D01*
X00660850Y01354000D01*
X00643943Y01361003D01*
X00631003Y01373943D01*
X00624000Y01390850D01*
X00624000Y01409150D01*
X00631003Y01426057D01*
X00643943Y01438997D01*
X00660850Y01446000D01*
X00739150Y01446000D01*
X00753956Y01439867D02*
X00858280Y01439867D01*
X00843925Y01433921D02*
X00880309Y01448992D01*
X00919691Y01448992D01*
X00956074Y01433921D01*
X00983921Y01406074D01*
X00998992Y01369691D01*
X00998992Y01330309D01*
X00983921Y01293925D01*
X00956074Y01266078D01*
X00919691Y01251008D01*
X00880309Y01251008D01*
X00843925Y01266078D01*
X00816078Y01293925D01*
X00801008Y01330309D01*
X00801008Y01369691D01*
X00816078Y01406074D01*
X00843925Y01433921D01*
X00833873Y01423869D02*
X00769903Y01423869D01*
X00776000Y01407870D02*
X00817874Y01407870D01*
X00810195Y01391872D02*
X00776000Y01391872D01*
X00769796Y01375873D02*
X00803569Y01375873D01*
X00801008Y01359875D02*
X00753332Y01359875D01*
X00748426Y01344483D02*
X00741240Y01346818D01*
X00733778Y01348000D01*
X00702000Y01348000D01*
X00702000Y01302001D01*
X00698000Y01302001D01*
X00698000Y01348000D01*
X00666222Y01348000D01*
X00658760Y01346818D01*
X00651574Y01344483D01*
X00644843Y01341053D01*
X00638730Y01336612D01*
X00633388Y01331270D01*
X00628947Y01325157D01*
X00625517Y01318426D01*
X00623182Y01311240D01*
X00622000Y01303778D01*
X00622000Y01302000D01*
X00697999Y01302000D01*
X00697999Y01298000D01*
X00622000Y01298000D01*
X00622000Y01296222D01*
X00623182Y01288760D01*
X00625517Y01281574D01*
X00628947Y01274843D01*
X00633388Y01268730D01*
X00638730Y01263388D01*
X00644843Y01258947D01*
X00651574Y01255517D01*
X00658760Y01253182D01*
X00666222Y01252000D01*
X00698000Y01252000D01*
X00698000Y01297999D01*
X00702000Y01297999D01*
X00702000Y01252000D01*
X00733778Y01252000D01*
X00741240Y01253182D01*
X00748426Y01255517D01*
X00755157Y01258947D01*
X00761270Y01263388D01*
X00766612Y01268730D01*
X00771053Y01274843D01*
X00774483Y01281574D01*
X00776818Y01288760D01*
X00778000Y01296222D01*
X00778000Y01298000D01*
X00702001Y01298000D01*
X00702001Y01302000D01*
X00778000Y01302000D01*
X00778000Y01303778D01*
X00776818Y01311240D01*
X00774483Y01318426D01*
X00771053Y01325157D01*
X00766612Y01331270D01*
X00761270Y01336612D01*
X00755157Y01341053D01*
X00748426Y01344483D01*
X00749617Y01343876D02*
X00801008Y01343876D01*
X00802015Y01327877D02*
X00769077Y01327877D01*
X00776610Y01311879D02*
X00808642Y01311879D01*
X00815269Y01295880D02*
X00777946Y01295880D01*
X00773621Y01279882D02*
X00830122Y01279882D01*
X00849225Y01263883D02*
X00761766Y01263883D01*
X00702000Y01263883D02*
X00698000Y01263883D01*
X00698000Y01279882D02*
X00702000Y01279882D01*
X00702000Y01295880D02*
X00698000Y01295880D01*
X00698000Y01311879D02*
X00702000Y01311879D01*
X00702000Y01327877D02*
X00698000Y01327877D01*
X00698000Y01343876D02*
X00702000Y01343876D01*
X00650383Y01343876D02*
X00248992Y01343876D01*
X00248992Y01359875D02*
X00646668Y01359875D01*
X00630204Y01375873D02*
X00246431Y01375873D01*
X00239805Y01391872D02*
X00624000Y01391872D01*
X00624000Y01407870D02*
X00232126Y01407870D01*
X00216127Y01423869D02*
X00630097Y01423869D01*
X00646044Y01439867D02*
X00191720Y01439867D01*
X00247985Y01327877D02*
X00630923Y01327877D01*
X00623390Y01311879D02*
X00241358Y01311879D01*
X00234731Y01295880D02*
X00622054Y01295880D01*
X00626379Y01279882D02*
X00219878Y01279882D01*
X00200775Y01263883D02*
X00638234Y01263883D01*
X00656346Y01455866D02*
X00445107Y01455866D01*
X00458775Y01471864D02*
X00633082Y01471864D01*
X00625237Y01487863D02*
X00439036Y01487863D01*
X00432000Y01503861D02*
X00427307Y01503861D01*
X00412895Y01471864D02*
X00350980Y01471864D01*
X00374000Y01455866D02*
X00400893Y01455866D01*
X00458000Y01503861D02*
X00624000Y01503861D01*
X00628436Y01519860D02*
X00458000Y01519860D01*
X00458000Y01535858D02*
X00640805Y01535858D01*
X00637091Y01567855D02*
X00458000Y01567855D01*
X00457114Y01551857D02*
X01277732Y01551857D01*
X01257191Y01567855D02*
X01052644Y01567855D01*
X01064248Y01583854D02*
X01249321Y01583854D01*
X01247000Y01599852D02*
X01067496Y01599852D01*
X01064370Y01615851D02*
X01249199Y01615851D01*
X01256896Y01631849D02*
X01052939Y01631849D01*
X00941720Y01439867D02*
X01558280Y01439867D01*
X01533873Y01423869D02*
X00966127Y01423869D01*
X00982126Y01407870D02*
X01517874Y01407870D01*
X01510195Y01391872D02*
X00989805Y01391872D01*
X00996431Y01375873D02*
X01503569Y01375873D01*
X01501008Y01359875D02*
X00998992Y01359875D01*
X00998992Y01343876D02*
X01501008Y01343876D01*
X01502015Y01327877D02*
X00997985Y01327877D01*
X00991358Y01311879D02*
X01508642Y01311879D01*
X01515269Y01295880D02*
X00984731Y01295880D01*
X00969878Y01279882D02*
X01530122Y01279882D01*
X01549225Y01263883D02*
X00950775Y01263883D01*
X01330819Y01455866D02*
X01367174Y01455866D01*
X01352608Y01471864D02*
X01345712Y01471864D01*
X01398000Y01471864D02*
X01402000Y01471864D01*
X01402000Y01455866D02*
X01398000Y01455866D01*
X01398000Y01487863D02*
X01402000Y01487863D01*
X01402000Y01502001D02*
X01398000Y01502001D01*
X01398000Y01597999D01*
X01402000Y01597999D01*
X01402000Y01545000D01*
X01402000Y01502001D01*
X01402000Y01503861D02*
X01398000Y01503861D01*
X01398000Y01519860D02*
X01402000Y01519860D01*
X01402000Y01535858D02*
X01398000Y01535858D01*
X01398000Y01551857D02*
X01402000Y01551857D01*
X01402000Y01567855D02*
X01398000Y01567855D01*
X01398000Y01583854D02*
X01402000Y01583854D01*
X01402000Y01602001D02*
X01398000Y01602001D01*
X01398000Y01697999D01*
X01402000Y01697999D01*
X01402000Y01645000D01*
X01402000Y01602001D01*
X01402000Y01615851D02*
X01398000Y01615851D01*
X01398000Y01631849D02*
X01402000Y01631849D01*
X01402000Y01647848D02*
X01398000Y01647848D01*
X01398000Y01663846D02*
X01402000Y01663846D01*
X01402000Y01679845D02*
X01398000Y01679845D01*
X01398000Y01695844D02*
X01402000Y01695844D01*
X01402000Y01702001D02*
X01398000Y01702001D01*
X01398000Y01797999D01*
X01402000Y01797999D01*
X01402000Y01745000D01*
X01402000Y01702001D01*
X01402000Y01711842D02*
X01398000Y01711842D01*
X01398000Y01727841D02*
X01402000Y01727841D01*
X01402000Y01743839D02*
X01398000Y01743839D01*
X01398000Y01759838D02*
X01402000Y01759838D01*
X01402000Y01775836D02*
X01398000Y01775836D01*
X01398000Y01791835D02*
X01402000Y01791835D01*
X01402000Y01802001D02*
X01398000Y01802001D01*
X01398000Y01897999D01*
X01402000Y01897999D01*
X01402000Y01845000D01*
X01402000Y01802001D01*
X01402000Y01807833D02*
X01398000Y01807833D01*
X01398000Y01823832D02*
X01402000Y01823832D01*
X01402000Y01839830D02*
X01398000Y01839830D01*
X01398000Y01855829D02*
X01402000Y01855829D01*
X01402000Y01871827D02*
X01398000Y01871827D01*
X01398000Y01887826D02*
X01402000Y01887826D01*
X01402000Y01902001D02*
X01398000Y01902001D01*
X01398000Y01997999D01*
X01402000Y01997999D01*
X01402000Y01945000D01*
X01402000Y01902001D01*
X01402000Y01903824D02*
X01398000Y01903824D01*
X01398000Y01919823D02*
X01402000Y01919823D01*
X01402000Y01935821D02*
X01398000Y01935821D01*
X01398000Y01951820D02*
X01402000Y01951820D01*
X01402000Y01967818D02*
X01398000Y01967818D01*
X01398000Y01983817D02*
X01402000Y01983817D01*
X01402000Y02002001D02*
X01398000Y02002001D01*
X01398000Y02097999D01*
X01402000Y02097999D01*
X01402000Y02045000D01*
X01402000Y02002001D01*
X01402000Y02015814D02*
X01398000Y02015814D01*
X01398000Y02031813D02*
X01402000Y02031813D01*
X01402000Y02047811D02*
X01398000Y02047811D01*
X01398000Y02063810D02*
X01402000Y02063810D01*
X01402000Y02079808D02*
X01398000Y02079808D01*
X01398000Y02095807D02*
X01402000Y02095807D01*
X01402000Y02102001D02*
X01398000Y02102001D01*
X01398000Y02197999D01*
X01402000Y02197999D01*
X01402000Y02145000D01*
X01402000Y02102001D01*
X01402000Y02111805D02*
X01398000Y02111805D01*
X01398000Y02127804D02*
X01402000Y02127804D01*
X01402000Y02143802D02*
X01398000Y02143802D01*
X01398000Y02159801D02*
X01402000Y02159801D01*
X01402000Y02175799D02*
X01398000Y02175799D01*
X01398000Y02191798D02*
X01402000Y02191798D01*
X01402000Y02202001D02*
X01398000Y02202001D01*
X01398000Y02297999D01*
X01402000Y02297999D01*
X01402000Y02245000D01*
X01402000Y02202001D01*
X01402000Y02207796D02*
X01398000Y02207796D01*
X01398000Y02223795D02*
X01402000Y02223795D01*
X01402000Y02239793D02*
X01398000Y02239793D01*
X01398000Y02255792D02*
X01402000Y02255792D01*
X01402000Y02271790D02*
X01398000Y02271790D01*
X01398000Y02287789D02*
X01402000Y02287789D01*
X01402000Y02302001D02*
X01398000Y02302001D01*
X01398000Y02397999D01*
X01402000Y02397999D01*
X01402000Y02345000D01*
X01402000Y02302001D01*
X01402000Y02303787D02*
X01398000Y02303787D01*
X01398000Y02319786D02*
X01402000Y02319786D01*
X01402000Y02335784D02*
X01398000Y02335784D01*
X01398000Y02351783D02*
X01402000Y02351783D01*
X01402000Y02367781D02*
X01398000Y02367781D01*
X01398000Y02383780D02*
X01402000Y02383780D01*
X01402000Y02402001D02*
X01398000Y02402001D01*
X01398000Y02497999D01*
X01402000Y02497999D01*
X01402000Y02455000D01*
X01402000Y02402001D01*
X01402000Y02415777D02*
X01398000Y02415777D01*
X01398000Y02431776D02*
X01402000Y02431776D01*
X01402000Y02447774D02*
X01398000Y02447774D01*
X01398000Y02463773D02*
X01402000Y02463773D01*
X01402000Y02479771D02*
X01398000Y02479771D01*
X01398000Y02495770D02*
X01402000Y02495770D01*
X01402000Y02502001D02*
X01398000Y02502001D01*
X01398000Y02597999D01*
X01402000Y02597999D01*
X01402000Y02545000D01*
X01402000Y02502001D01*
X01402000Y02511768D02*
X01398000Y02511768D01*
X01398000Y02527767D02*
X01402000Y02527767D01*
X01402000Y02543765D02*
X01398000Y02543765D01*
X01398000Y02559764D02*
X01402000Y02559764D01*
X01402000Y02575762D02*
X01398000Y02575762D01*
X01398000Y02591761D02*
X01402000Y02591761D01*
X01402000Y02602001D02*
X01398000Y02602001D01*
X01398000Y02697999D01*
X01402000Y02697999D01*
X01402000Y02645000D01*
X01402000Y02602001D01*
X01402000Y02607759D02*
X01398000Y02607759D01*
X01398000Y02623758D02*
X01402000Y02623758D01*
X01402000Y02639756D02*
X01398000Y02639756D01*
X01398000Y02655755D02*
X01402000Y02655755D01*
X01402000Y02671753D02*
X01398000Y02671753D01*
X01398000Y02687752D02*
X01402000Y02687752D01*
X01402000Y02702001D02*
X01398000Y02702001D01*
X01398000Y02797999D01*
X01402000Y02797999D01*
X01402000Y02745000D01*
X01402000Y02702001D01*
X01402000Y02703750D02*
X01398000Y02703750D01*
X01398000Y02719749D02*
X01402000Y02719749D01*
X01402000Y02735748D02*
X01398000Y02735748D01*
X01398000Y02751746D02*
X01402000Y02751746D01*
X01402000Y02767745D02*
X01398000Y02767745D01*
X01398000Y02783743D02*
X01402000Y02783743D01*
X01402001Y02799742D02*
X01532504Y02799742D01*
X01535584Y02815740D02*
X01452716Y02815740D01*
X01444924Y02831739D02*
X01546950Y02831739D01*
X01552709Y02863736D02*
X01538689Y02863736D01*
X01512322Y02847737D02*
X01650000Y02847737D01*
X01650000Y02863736D02*
X01647291Y02863736D01*
X01650000Y02751746D02*
X01426444Y02751746D01*
X01442011Y02735748D02*
X01551461Y02735748D01*
X01537245Y02719749D02*
X01451414Y02719749D01*
X01455000Y02703750D02*
X01532504Y02703750D01*
X01534137Y02687752D02*
X01453745Y02687752D01*
X01447336Y02671753D02*
X01543458Y02671753D01*
X01535197Y02639756D02*
X01561140Y02639756D01*
X01638860Y02639756D02*
X01650000Y02639756D01*
X01650000Y02655755D02*
X01432673Y02655755D01*
X01438025Y02639756D02*
X01464803Y02639756D01*
X01452474Y02623758D02*
X01449623Y02623758D01*
X01444549Y02767745D02*
X01547467Y02767745D01*
X01535798Y02783743D02*
X01452548Y02783743D01*
X01402000Y02815740D02*
X01398000Y02815740D01*
X01398000Y02831739D02*
X01402000Y02831739D01*
X01402000Y02847737D02*
X01398000Y02847737D01*
X01372542Y02847737D02*
X01323248Y02847737D01*
X01343214Y02831739D02*
X01355076Y02831739D01*
X01391696Y02908252D02*
X01408304Y02908252D01*
X01423648Y02914608D01*
X01435392Y02926352D01*
X01441748Y02941696D01*
X01441748Y02958304D01*
X01435392Y02973648D01*
X01423648Y02985392D01*
X01408304Y02991748D01*
X01391696Y02991748D01*
X01376352Y02985392D01*
X01364608Y02973648D01*
X01358252Y02958304D01*
X01358252Y02941696D01*
X01364608Y02926352D01*
X01376352Y02914608D01*
X01391696Y02908252D01*
X01383296Y02911731D02*
X01316704Y02911731D01*
X01323648Y02914608D02*
X01308304Y02908252D01*
X01291696Y02908252D01*
X01276352Y02914608D01*
X01264608Y02926352D01*
X01258252Y02941696D01*
X01258252Y02958304D01*
X01264608Y02973648D01*
X01276352Y02985392D01*
X01291696Y02991748D01*
X01308304Y02991748D01*
X01323648Y02985392D01*
X01335392Y02973648D01*
X01341748Y02958304D01*
X01341748Y02941696D01*
X01335392Y02926352D01*
X01323648Y02914608D01*
X01335963Y02927730D02*
X01364037Y02927730D01*
X01358252Y02943728D02*
X01341748Y02943728D01*
X01341159Y02959727D02*
X01358841Y02959727D01*
X01366685Y02975725D02*
X01333315Y02975725D01*
X01308362Y02991724D02*
X01391638Y02991724D01*
X01408362Y02991724D02*
X01447000Y02991724D01*
X01447000Y03007722D02*
X01067496Y03007722D01*
X01067496Y03008304D02*
X01067496Y02991696D01*
X01061140Y02976352D01*
X01049396Y02964608D01*
X01034052Y02958252D01*
X00965948Y02958252D01*
X00950604Y02964608D01*
X00938860Y02976352D01*
X00932504Y02991696D01*
X00932504Y03008304D01*
X00938860Y03023648D01*
X00950604Y03035392D01*
X00965948Y03041748D01*
X01034052Y03041748D01*
X01049396Y03035392D01*
X01061140Y03023648D01*
X01067496Y03008304D01*
X01067496Y02991724D02*
X01191638Y02991724D01*
X01191696Y02991748D02*
X01176352Y02985392D01*
X01164608Y02973648D01*
X01158252Y02958304D01*
X01158252Y02941696D01*
X01164608Y02926352D01*
X01176352Y02914608D01*
X01191696Y02908252D01*
X01208304Y02908252D01*
X01223648Y02914608D01*
X01235392Y02926352D01*
X01241748Y02941696D01*
X01241748Y02958304D01*
X01235392Y02973648D01*
X01223648Y02985392D01*
X01208304Y02991748D01*
X01191696Y02991748D01*
X01208362Y02991724D02*
X01291638Y02991724D01*
X01266685Y02975725D02*
X01233315Y02975725D01*
X01241159Y02959727D02*
X01258841Y02959727D01*
X01258252Y02943728D02*
X01241748Y02943728D01*
X01235963Y02927730D02*
X01264037Y02927730D01*
X01283296Y02911731D02*
X01216704Y02911731D01*
X01183296Y02911731D02*
X01066076Y02911731D01*
X01067496Y02895733D02*
X01447000Y02895733D01*
X01447492Y02911731D02*
X01416704Y02911731D01*
X01435963Y02927730D02*
X01454119Y02927730D01*
X01441748Y02943728D02*
X01468775Y02943728D01*
X01465320Y02959727D02*
X01441159Y02959727D01*
X01433315Y02975725D02*
X01452688Y02975725D01*
X01452459Y03023721D02*
X01432762Y03023721D01*
X01440929Y03039719D02*
X01464766Y03039719D01*
X01367238Y03023721D02*
X01332762Y03023721D01*
X01340929Y03039719D02*
X01359070Y03039719D01*
X01267238Y03023721D02*
X01232762Y03023721D01*
X01240929Y03039719D02*
X01259070Y03039719D01*
X01167238Y03023721D02*
X01061068Y03023721D01*
X01038949Y03039719D02*
X01159070Y03039719D01*
X01166685Y02975725D02*
X01060514Y02975725D01*
X01037613Y02959727D02*
X01158841Y02959727D01*
X01158252Y02943728D02*
X00905885Y02943728D01*
X00919160Y02959727D02*
X00962387Y02959727D01*
X00939486Y02975725D02*
X00925786Y02975725D01*
X00929307Y02991724D02*
X00932504Y02991724D01*
X00932504Y03007722D02*
X00929307Y03007722D01*
X00926016Y03023721D02*
X00938932Y03023721D01*
X00919389Y03039719D02*
X00961051Y03039719D01*
X00942941Y02927730D02*
X00882764Y02927730D01*
X01047291Y02863736D02*
X01461311Y02863736D01*
X01451027Y02879734D02*
X01062541Y02879734D01*
X01057059Y02927730D02*
X01164037Y02927730D01*
X01427458Y02847737D02*
X01487678Y02847737D01*
X01648539Y02735748D02*
X01650000Y02735748D01*
X01057228Y01967818D02*
X01052607Y01967818D01*
X01447392Y01471864D02*
X01454287Y01471864D01*
X01469181Y01455866D02*
X01432826Y01455866D01*
X01530819Y01455866D02*
X01650000Y01455866D01*
X01650000Y01471864D02*
X01545712Y01471864D01*
X01552339Y01487863D02*
X01650000Y01487863D01*
X01650000Y01503861D02*
X01553000Y01503861D01*
X01549141Y01519860D02*
X01650000Y01519860D01*
X01650000Y01535858D02*
X01539095Y01535858D01*
X01522267Y01551857D02*
X01650000Y01551857D01*
X01547356Y01567855D02*
X01542809Y01567855D01*
X01641720Y01439867D02*
X01650000Y01439867D01*
X00433808Y01679845D02*
X00417826Y01679845D01*
X00417810Y01695844D02*
X00416213Y01695844D01*
X00366327Y01680732D02*
X00366327Y01680732D01*
D16*
X00363327Y01681975D02*
X00371000Y01689648D01*
X00371000Y01697932D01*
X00365142Y01703790D01*
X00358439Y01703790D01*
X00365142Y01710493D01*
X00371000Y01716351D01*
X00371000Y01739982D01*
X00366555Y01744426D01*
X00357469Y01753513D01*
X00349185Y01753513D01*
X00343327Y01747655D01*
X00343327Y01739371D01*
X00351000Y01731697D01*
X00351000Y01724635D01*
X00349185Y01722820D01*
X00326776Y01722820D01*
X00324961Y01724635D01*
X00324961Y01731697D01*
X00332634Y01739370D01*
X00332634Y01747655D01*
X00326776Y01753513D01*
X00318492Y01753513D01*
X00310819Y01745839D01*
X00304961Y01739982D01*
X00304961Y01716351D01*
X00309537Y01711775D01*
X00310819Y01710493D01*
X00313916Y01707396D01*
X00318492Y01702820D01*
X00325195Y01702820D01*
X00320307Y01697932D01*
X00320307Y01696117D01*
X00318492Y01696117D01*
X00312634Y01690259D01*
X00312634Y01681975D01*
X00318492Y01676117D01*
X00320307Y01676117D01*
X00320307Y01674302D01*
X00326165Y01668444D01*
X00334449Y01668444D01*
X00340307Y01674302D01*
X00340307Y01676117D01*
X00357469Y01676117D01*
X00362045Y01680693D01*
X00363327Y01681975D01*
X00363327Y01681975D01*
X00361104Y01679752D02*
X00399778Y01679752D01*
X00402492Y01677038D02*
X00410776Y01677038D01*
X00416634Y01682896D01*
X00416634Y01691180D01*
X00408961Y01698853D01*
X00408961Y01705915D01*
X00410471Y01707425D01*
X00440858Y01677038D01*
X00449142Y01677038D01*
X00455000Y01682896D01*
X00455000Y01691180D01*
X00455000Y01721873D01*
X00449142Y01727731D01*
X00440858Y01727731D01*
X00435000Y01721873D01*
X00435000Y01711180D01*
X00424307Y01721873D01*
X00418449Y01727731D01*
X00402492Y01727731D01*
X00394819Y01720057D01*
X00388961Y01714200D01*
X00388961Y01690569D01*
X00393537Y01685993D01*
X00394819Y01684711D01*
X00402492Y01677038D01*
X00394819Y01684711D02*
X00394819Y01684711D01*
X00389779Y01689750D02*
X00371000Y01689750D01*
X00369183Y01699749D02*
X00388961Y01699749D01*
X00388961Y01709748D02*
X00364397Y01709748D01*
X00355888Y01702820D02*
X00349185Y01696117D01*
X00340307Y01696117D01*
X00340307Y01697932D01*
X00335419Y01702820D01*
X00355888Y01702820D01*
X00352817Y01699749D02*
X00338490Y01699749D01*
X00322124Y01699749D02*
X00200000Y01699749D01*
X00200000Y01689750D02*
X00246234Y01689750D01*
X00243980Y01687497D02*
X00236307Y01679824D01*
X00236307Y01656193D01*
X00240752Y01651748D01*
X00242165Y01650335D01*
X00242165Y01650335D01*
X00245393Y01647107D01*
X00249838Y01642662D01*
X00273469Y01642662D01*
X00279327Y01648520D01*
X00287000Y01656193D01*
X00287000Y01664477D01*
X00287000Y01679824D01*
X00281142Y01685681D01*
X00272858Y01685681D01*
X00271654Y01684477D01*
X00271654Y01687497D01*
X00265796Y01693355D01*
X00249838Y01693355D01*
X00243980Y01687497D01*
X00236307Y01679752D02*
X00200000Y01679752D01*
X00200000Y01669753D02*
X00236307Y01669753D01*
X00236307Y01659755D02*
X00200000Y01659755D01*
X00200000Y01649756D02*
X00242744Y01649756D01*
X00249838Y01641791D02*
X00243980Y01635933D01*
X00236307Y01628260D01*
X00236307Y01596956D01*
X00242165Y01591098D01*
X00250449Y01591098D01*
X00281142Y01591098D01*
X00287000Y01596956D01*
X00287000Y01605240D01*
X00281142Y01611098D01*
X00256307Y01611098D01*
X00256307Y01619975D01*
X00258123Y01621791D01*
X00281142Y01621791D01*
X00287000Y01627648D01*
X00287000Y01635933D01*
X00281142Y01641791D01*
X00249838Y01641791D01*
X00247805Y01639758D02*
X00200000Y01639758D01*
X00200000Y01629759D02*
X00237807Y01629759D01*
X00236307Y01619761D02*
X00200000Y01619761D01*
X00200000Y01609762D02*
X00236307Y01609762D01*
X00236307Y01599764D02*
X00200000Y01599764D01*
X00200000Y01589765D02*
X00249377Y01589765D01*
X00249838Y01590227D02*
X00242165Y01582553D01*
X00236307Y01576696D01*
X00236307Y01553065D01*
X00240883Y01548489D01*
X00242165Y01547207D01*
X00245263Y01544110D01*
X00249789Y01539583D01*
X00242165Y01539583D01*
X00236307Y01533726D01*
X00236307Y01517768D01*
X00239838Y01514237D01*
X00236307Y01510706D01*
X00236307Y01502422D01*
X00242165Y01496564D01*
X00281142Y01496564D01*
X00287000Y01502422D01*
X00287000Y01510706D01*
X00281142Y01516564D01*
X00265796Y01516564D01*
X00256307Y01526052D01*
X00256307Y01533726D01*
X00250499Y01539534D01*
X00273469Y01539534D01*
X00287000Y01553065D01*
X00287000Y01561349D01*
X00287000Y01568411D01*
X00287000Y01576696D01*
X00282555Y01581140D01*
X00279327Y01584369D01*
X00277914Y01585782D01*
X00273469Y01590227D01*
X00249838Y01590227D01*
X00239378Y01579767D02*
X00200000Y01579767D01*
X00200000Y01569768D02*
X00236307Y01569768D01*
X00236307Y01559770D02*
X00200000Y01559770D01*
X00200000Y01549771D02*
X00239601Y01549771D01*
X00242165Y01547207D02*
X00242165Y01547207D01*
X00249600Y01539773D02*
X00200000Y01539773D01*
X00200000Y01529774D02*
X00236307Y01529774D01*
X00236307Y01519776D02*
X00200000Y01519776D01*
X00200000Y01509777D02*
X00236307Y01509777D01*
X00238950Y01499779D02*
X00200000Y01499779D01*
X00200000Y01489780D02*
X00228579Y01489780D01*
X00226819Y01488019D02*
X00220961Y01482162D01*
X00220961Y01450858D01*
X00226819Y01445000D01*
X00235103Y01445000D01*
X00272858Y01445000D01*
X00281142Y01445000D01*
X00287000Y01450858D01*
X00287000Y01482162D01*
X00282555Y01486606D01*
X00279327Y01489835D01*
X00277914Y01491248D01*
X00273469Y01495693D01*
X00234492Y01495693D01*
X00226819Y01488019D01*
X00220961Y01479781D02*
X00200000Y01479781D01*
X00200000Y01469783D02*
X00220961Y01469783D01*
X00220961Y01459784D02*
X00200000Y01459784D01*
X00200000Y01449786D02*
X00222033Y01449786D01*
X00200000Y01439787D02*
X00500000Y01439787D01*
X00500000Y01429789D02*
X00205964Y01429789D01*
X00204375Y01431378D02*
X00200000Y01433190D01*
X00200000Y02066810D01*
X00204375Y02068622D01*
X00231378Y02095625D01*
X00245992Y02130906D01*
X00245992Y02169094D01*
X00231378Y02204375D01*
X00204375Y02231378D01*
X00200000Y02233190D01*
X00200000Y02300000D01*
X00500000Y02300000D01*
X00500000Y01400000D01*
X00233190Y01400000D01*
X00231378Y01404375D01*
X00204375Y01431378D01*
X00215963Y01419790D02*
X00500000Y01419790D01*
X00500000Y01409792D02*
X00225961Y01409792D01*
X00240961Y01465000D02*
X00240961Y01473877D01*
X00242776Y01475693D01*
X00265185Y01475693D01*
X00267000Y01473877D01*
X00267000Y01465000D01*
X00240961Y01465000D01*
X00240961Y01469783D02*
X00267000Y01469783D01*
X00287000Y01469783D02*
X00304961Y01469783D01*
X00304961Y01479781D02*
X00287000Y01479781D01*
X00279382Y01489780D02*
X00304961Y01489780D01*
X00304961Y01489835D02*
X00304961Y01450858D01*
X00310819Y01445000D01*
X00342123Y01445000D01*
X00365142Y01445000D01*
X00371000Y01450858D01*
X00371000Y01459142D01*
X00365142Y01465000D01*
X00347980Y01465000D01*
X00347980Y01474488D01*
X00342123Y01480346D01*
X00333838Y01480346D01*
X00327980Y01474488D01*
X00327980Y01465000D01*
X00324961Y01465000D01*
X00324961Y01489835D01*
X00319103Y01495693D01*
X00310819Y01495693D01*
X00304961Y01489835D01*
X00310819Y01496564D02*
X00319103Y01496564D01*
X00324961Y01502422D01*
X00324961Y01504237D01*
X00351000Y01504237D01*
X00351000Y01502422D01*
X00356858Y01496564D01*
X00365142Y01496564D01*
X00371000Y01502422D01*
X00371000Y01526052D01*
X00365627Y01531425D01*
X00371000Y01536798D01*
X00371000Y01560428D01*
X00365142Y01566286D01*
X00358439Y01566286D01*
X00365142Y01572989D01*
X00371000Y01578847D01*
X00371000Y01581867D01*
X00372204Y01580662D01*
X00380488Y01580662D01*
X00386346Y01586520D01*
X00386346Y01602478D01*
X00378673Y01610151D01*
X00372815Y01616009D01*
X00326165Y01616009D01*
X00320307Y01610151D01*
X00320307Y01578847D01*
X00324883Y01574271D01*
X00326165Y01572989D01*
X00326165Y01572989D01*
X00329263Y01569892D01*
X00333838Y01565316D01*
X00355888Y01565316D01*
X00351000Y01560428D01*
X00351000Y01558613D01*
X00326165Y01558613D01*
X00322634Y01555082D01*
X00319103Y01558613D01*
X00303145Y01558613D01*
X00297288Y01552755D01*
X00297288Y01544471D01*
X00303145Y01538613D01*
X00319103Y01538613D01*
X00320307Y01539818D01*
X00320307Y01536798D01*
X00326165Y01530940D01*
X00334449Y01530940D01*
X00340307Y01536798D01*
X00340307Y01538613D01*
X00351000Y01538613D01*
X00351000Y01536798D01*
X00356373Y01531425D01*
X00351000Y01526052D01*
X00351000Y01524237D01*
X00310819Y01524237D01*
X00304961Y01518379D01*
X00304961Y01502422D01*
X00310819Y01496564D01*
X00307604Y01499779D02*
X00284357Y01499779D01*
X00287000Y01509777D02*
X00304961Y01509777D01*
X00306357Y01519776D02*
X00262584Y01519776D01*
X00256307Y01529774D02*
X00354722Y01529774D01*
X00367278Y01529774D02*
X00392682Y01529774D01*
X00394819Y01531910D02*
X00388961Y01526052D01*
X00388961Y01517768D01*
X00394819Y01511910D01*
X00410165Y01496564D01*
X00418449Y01496564D01*
X00424307Y01502422D01*
X00424307Y01510706D01*
X00423103Y01511910D01*
X00435000Y01511910D01*
X00435000Y01502422D01*
X00440858Y01496564D01*
X00449142Y01496564D01*
X00455000Y01502422D01*
X00455000Y01541399D01*
X00449142Y01547257D01*
X00440858Y01547257D01*
X00435000Y01541399D01*
X00435000Y01531910D01*
X00394819Y01531910D01*
X00388961Y01519776D02*
X00371000Y01519776D01*
X00371000Y01509777D02*
X00396952Y01509777D01*
X00394819Y01511910D02*
X00394819Y01511910D01*
X00406950Y01499779D02*
X00368357Y01499779D01*
X00353643Y01499779D02*
X00322317Y01499779D01*
X00324961Y01489780D02*
X00405171Y01489780D01*
X00403511Y01486460D02*
X00406130Y01478601D01*
X00422639Y01470346D01*
X00406130Y01462092D01*
X00403511Y01454233D01*
X00407215Y01446823D01*
X00415074Y01444203D01*
X00448836Y01461084D01*
X00452092Y01462169D01*
X00452453Y01462893D01*
X00453177Y01463254D01*
X00454262Y01466510D01*
X00455797Y01469579D01*
X00455541Y01470346D01*
X00455797Y01471114D01*
X00454262Y01474183D01*
X00453177Y01477438D01*
X00452453Y01477800D01*
X00452092Y01478523D01*
X00448836Y01479608D01*
X00415075Y01496489D01*
X00407215Y01493870D01*
X00403511Y01486460D01*
X00405737Y01479781D02*
X00342687Y01479781D01*
X00333273Y01479781D02*
X00324961Y01479781D01*
X00324961Y01469783D02*
X00327980Y01469783D01*
X00347980Y01469783D02*
X00421513Y01469783D01*
X00405361Y01459784D02*
X00370358Y01459784D01*
X00369928Y01449786D02*
X00405734Y01449786D01*
X00426240Y01449786D02*
X00500000Y01449786D01*
X00500000Y01459784D02*
X00446237Y01459784D01*
X00455728Y01469783D02*
X00500000Y01469783D01*
X00500000Y01479781D02*
X00448490Y01479781D01*
X00452357Y01499779D02*
X00500000Y01499779D01*
X00500000Y01509777D02*
X00455000Y01509777D01*
X00455000Y01519776D02*
X00500000Y01519776D01*
X00500000Y01529774D02*
X00455000Y01529774D01*
X00455000Y01539773D02*
X00500000Y01539773D01*
X00500000Y01549771D02*
X00450785Y01549771D01*
X00449142Y01548128D02*
X00455000Y01553986D01*
X00455000Y01569943D01*
X00450087Y01574855D01*
X00455000Y01579768D01*
X00455000Y01618745D01*
X00449142Y01624603D01*
X00440858Y01624603D01*
X00435000Y01618745D01*
X00435000Y01609256D01*
X00394819Y01609256D01*
X00388961Y01603398D01*
X00388961Y01595114D01*
X00394819Y01589256D01*
X00410165Y01573910D01*
X00418449Y01573910D01*
X00424307Y01579768D01*
X00424307Y01588052D01*
X00423103Y01589256D01*
X00435000Y01589256D01*
X00435000Y01579768D01*
X00438967Y01575801D01*
X00433185Y01575801D01*
X00427327Y01569943D01*
X00427327Y01553986D01*
X00433185Y01548128D01*
X00449142Y01548128D01*
X00455000Y01559770D02*
X00500000Y01559770D01*
X00500000Y01569768D02*
X00455000Y01569768D01*
X00454999Y01579767D02*
X00500000Y01579767D01*
X00500000Y01589765D02*
X00455000Y01589765D01*
X00455000Y01599764D02*
X00500000Y01599764D01*
X00500000Y01609762D02*
X00455000Y01609762D01*
X00453984Y01619761D02*
X00500000Y01619761D01*
X00500000Y01629759D02*
X00371000Y01629759D01*
X00371000Y01631022D02*
X00365142Y01636880D01*
X00342122Y01636880D01*
X00340307Y01638695D01*
X00340307Y01645757D01*
X00342123Y01647573D01*
X00365142Y01647573D01*
X00371000Y01653430D01*
X00371000Y01661715D01*
X00365142Y01667573D01*
X00333838Y01667573D01*
X00327980Y01661715D01*
X00320307Y01654042D01*
X00320307Y01636880D01*
X00310819Y01636880D01*
X00304961Y01631022D01*
X00304961Y01622738D01*
X00310819Y01616880D01*
X00365142Y01616880D01*
X00371000Y01622738D01*
X00371000Y01631022D01*
X00368023Y01619761D02*
X00436016Y01619761D01*
X00435000Y01609762D02*
X00379062Y01609762D01*
X00378673Y01610151D02*
X00378673Y01610151D01*
X00386346Y01599764D02*
X00388961Y01599764D01*
X00386346Y01589765D02*
X00394310Y01589765D01*
X00394819Y01589256D02*
X00394819Y01589256D01*
X00404308Y01579767D02*
X00371000Y01579767D01*
X00361921Y01569768D02*
X00427327Y01569768D01*
X00427327Y01559770D02*
X00371000Y01559770D01*
X00371000Y01549771D02*
X00431541Y01549771D01*
X00435000Y01539773D02*
X00371000Y01539773D01*
X00351000Y01559770D02*
X00287000Y01559770D01*
X00287000Y01569768D02*
X00329386Y01569768D01*
X00320307Y01579767D02*
X00283929Y01579767D01*
X00279327Y01584369D02*
X00279327Y01584369D01*
X00273930Y01589765D02*
X00320307Y01589765D01*
X00320307Y01599764D02*
X00287000Y01599764D01*
X00282478Y01609762D02*
X00320307Y01609762D01*
X00307938Y01619761D02*
X00256307Y01619761D01*
X00287000Y01629759D02*
X00304961Y01629759D01*
X00320307Y01639758D02*
X00283175Y01639758D01*
X00280563Y01649756D02*
X00320307Y01649756D01*
X00326021Y01659755D02*
X00287000Y01659755D01*
X00287000Y01669753D02*
X00324855Y01669753D01*
X00335759Y01669753D02*
X00500000Y01669753D01*
X00500000Y01659755D02*
X00371000Y01659755D01*
X00367326Y01649756D02*
X00500000Y01649756D01*
X00500000Y01639758D02*
X00340307Y01639758D01*
X00340307Y01596009D02*
X00351000Y01596009D01*
X00351000Y01587131D01*
X00349185Y01585316D01*
X00342122Y01585316D01*
X00340307Y01587131D01*
X00340307Y01596009D01*
X00340307Y01589765D02*
X00351000Y01589765D01*
X00320307Y01539773D02*
X00320262Y01539773D01*
X00301986Y01539773D02*
X00273708Y01539773D01*
X00283706Y01549771D02*
X00297288Y01549771D01*
X00267000Y01561349D02*
X00265185Y01559534D01*
X00258122Y01559534D01*
X00256307Y01561349D01*
X00256307Y01568411D01*
X00258123Y01570227D01*
X00265185Y01570227D01*
X00267000Y01568411D01*
X00267000Y01561349D01*
X00265421Y01559770D02*
X00257887Y01559770D01*
X00257664Y01569768D02*
X00265643Y01569768D01*
X00279327Y01489835D02*
X00279327Y01489835D01*
X00287000Y01459784D02*
X00304961Y01459784D01*
X00306033Y01449786D02*
X00285928Y01449786D01*
X00421664Y01499779D02*
X00437643Y01499779D01*
X00435000Y01509777D02*
X00424307Y01509777D01*
X00428493Y01489780D02*
X00500000Y01489780D01*
X00435001Y01579767D02*
X00424306Y01579767D01*
X00413490Y01679752D02*
X00438144Y01679752D01*
X00451856Y01679752D02*
X00500000Y01679752D01*
X00500000Y01689750D02*
X00455000Y01689750D01*
X00455000Y01699749D02*
X00500000Y01699749D01*
X00500000Y01709748D02*
X00455000Y01709748D01*
X00455000Y01719746D02*
X00500000Y01719746D01*
X00500000Y01729745D02*
X00442612Y01729745D01*
X00441469Y01728602D02*
X00447327Y01734460D01*
X00455000Y01742133D01*
X00455000Y01765764D01*
X00450424Y01770339D01*
X00447327Y01773437D01*
X00446045Y01774719D01*
X00441469Y01779295D01*
X00402492Y01779295D01*
X00396634Y01773437D01*
X00388961Y01765764D01*
X00388961Y01742133D01*
X00393406Y01737688D01*
X00394819Y01736275D01*
X00398047Y01733047D01*
X00402492Y01728602D01*
X00441469Y01728602D01*
X00435000Y01719746D02*
X00426434Y01719746D01*
X00418147Y01699749D02*
X00408961Y01699749D01*
X00416634Y01689750D02*
X00428145Y01689750D01*
X00394507Y01719746D02*
X00371000Y01719746D01*
X00371000Y01729745D02*
X00401349Y01729745D01*
X00394819Y01736275D02*
X00394819Y01736275D01*
X00391350Y01739743D02*
X00371000Y01739743D01*
X00361240Y01749742D02*
X00388961Y01749742D01*
X00388961Y01759740D02*
X00362825Y01759740D01*
X00357469Y01754384D02*
X00371000Y01767915D01*
X00371000Y01776199D01*
X00371000Y01783261D01*
X00371000Y01791546D01*
X00366555Y01795990D01*
X00363327Y01799219D01*
X00361914Y01800632D01*
X00357469Y01805077D01*
X00333838Y01805077D01*
X00326165Y01797403D01*
X00320307Y01791546D01*
X00320307Y01767915D01*
X00324883Y01763339D01*
X00326165Y01762057D01*
X00326165Y01762057D01*
X00329263Y01758960D01*
X00333838Y01754384D01*
X00357469Y01754384D01*
X00345414Y01749742D02*
X00330547Y01749742D01*
X00328482Y01759740D02*
X00287000Y01759740D01*
X00287000Y01759932D02*
X00281142Y01765790D01*
X00255103Y01765790D01*
X00256307Y01766994D01*
X00256307Y01775278D01*
X00255103Y01776483D01*
X00281142Y01776483D01*
X00287000Y01782340D01*
X00287000Y01790625D01*
X00281142Y01796483D01*
X00226819Y01796483D01*
X00220961Y01790625D01*
X00220961Y01782340D01*
X00226819Y01776483D01*
X00232165Y01771136D01*
X00226819Y01765790D01*
X00226819Y01765790D01*
X00221269Y01760240D01*
X00220961Y01759932D01*
X00220961Y01751648D01*
X00226819Y01745790D01*
X00235103Y01745790D01*
X00281142Y01745790D01*
X00287000Y01751648D01*
X00287000Y01759932D01*
X00285094Y01749742D02*
X00314721Y01749742D01*
X00304961Y01739743D02*
X00200000Y01739743D01*
X00200000Y01729745D02*
X00304961Y01729745D01*
X00304961Y01719746D02*
X00200000Y01719746D01*
X00200000Y01709748D02*
X00311564Y01709748D01*
X00310819Y01710493D02*
X00310819Y01710493D01*
X00312634Y01689750D02*
X00269400Y01689750D01*
X00287000Y01679752D02*
X00314857Y01679752D01*
X00324961Y01729745D02*
X00351000Y01729745D01*
X00343327Y01739743D02*
X00332634Y01739743D01*
X00320307Y01769739D02*
X00256307Y01769739D01*
X00230768Y01769739D02*
X00200000Y01769739D01*
X00200000Y01779737D02*
X00223564Y01779737D01*
X00220961Y01789736D02*
X00200000Y01789736D01*
X00200000Y01799734D02*
X00239785Y01799734D01*
X00242165Y01797354D02*
X00236307Y01803212D01*
X00236307Y01811496D01*
X00242165Y01817354D01*
X00265185Y01817354D01*
X00267000Y01819169D01*
X00267000Y01828047D01*
X00242165Y01828047D01*
X00236307Y01833904D01*
X00236307Y01842189D01*
X00242165Y01848047D01*
X00281142Y01848047D01*
X00287000Y01842189D01*
X00287000Y01810885D01*
X00281142Y01805027D01*
X00281142Y01805027D01*
X00273469Y01797354D01*
X00242165Y01797354D01*
X00236307Y01809733D02*
X00200000Y01809733D01*
X00200000Y01819731D02*
X00267000Y01819731D01*
X00287000Y01819731D02*
X00320307Y01819731D01*
X00320307Y01811806D02*
X00326165Y01805948D01*
X00334449Y01805948D01*
X00365142Y01805948D01*
X00371000Y01811806D01*
X00371000Y01820090D01*
X00365142Y01825948D01*
X00340307Y01825948D01*
X00340307Y01834825D01*
X00342123Y01836641D01*
X00365142Y01836641D01*
X00371000Y01842498D01*
X00371000Y01850783D01*
X00365142Y01856641D01*
X00333838Y01856641D01*
X00327980Y01850783D01*
X00320307Y01843109D01*
X00320307Y01811806D01*
X00322380Y01809733D02*
X00285848Y01809733D01*
X00275849Y01799734D02*
X00328496Y01799734D01*
X00320307Y01789736D02*
X00287000Y01789736D01*
X00284397Y01779737D02*
X00320307Y01779737D01*
X00340307Y01779737D02*
X00351000Y01779737D01*
X00351000Y01783261D02*
X00351000Y01776199D01*
X00349185Y01774384D01*
X00342122Y01774384D01*
X00340307Y01776199D01*
X00340307Y01783261D01*
X00342123Y01785077D01*
X00349185Y01785077D01*
X00351000Y01783261D01*
X00363327Y01799219D02*
X00363327Y01799219D01*
X00362811Y01799734D02*
X00390596Y01799734D01*
X00388961Y01801370D02*
X00394819Y01795512D01*
X00410165Y01780166D01*
X00418449Y01780166D01*
X00424307Y01786024D01*
X00424307Y01794308D01*
X00423103Y01795512D01*
X00435000Y01795512D01*
X00435000Y01786024D01*
X00440858Y01780166D01*
X00449142Y01780166D01*
X00455000Y01786024D01*
X00455000Y01825001D01*
X00449142Y01830859D01*
X00440858Y01830859D01*
X00435000Y01825001D01*
X00435000Y01815512D01*
X00394819Y01815512D01*
X00388961Y01809654D01*
X00388961Y01801370D01*
X00394819Y01795512D02*
X00394819Y01795512D01*
X00400595Y01789736D02*
X00371000Y01789736D01*
X00371000Y01779737D02*
X00500000Y01779737D01*
X00500000Y01769739D02*
X00451025Y01769739D01*
X00447327Y01773437D02*
X00447327Y01773437D01*
X00455000Y01759740D02*
X00500000Y01759740D01*
X00500000Y01749742D02*
X00455000Y01749742D01*
X00452610Y01739743D02*
X00500000Y01739743D01*
X00500000Y01789736D02*
X00455000Y01789736D01*
X00455000Y01799734D02*
X00500000Y01799734D01*
X00500000Y01809733D02*
X00455000Y01809733D01*
X00455000Y01819731D02*
X00500000Y01819731D01*
X00500000Y01829730D02*
X00450271Y01829730D01*
X00447327Y01837588D02*
X00455000Y01845261D01*
X00455000Y01868891D01*
X00450424Y01873467D01*
X00447327Y01876565D01*
X00446045Y01877847D01*
X00441469Y01882422D01*
X00425511Y01882422D01*
X00421980Y01878891D01*
X00418449Y01882422D01*
X00402492Y01882422D01*
X00396634Y01876565D01*
X00388961Y01868891D01*
X00388961Y01845261D01*
X00388961Y01845261D01*
X00393406Y01840816D01*
X00394819Y01839403D01*
X00399488Y01834734D01*
X00402492Y01831730D01*
X00418449Y01831730D01*
X00421980Y01835261D01*
X00425511Y01831730D01*
X00441469Y01831730D01*
X00447327Y01837588D01*
X00449468Y01839728D02*
X00500000Y01839728D01*
X00500000Y01849727D02*
X00455000Y01849727D01*
X00455000Y01859725D02*
X00500000Y01859725D01*
X00500000Y01869724D02*
X00454167Y01869724D01*
X00447327Y01876565D02*
X00447327Y01876565D01*
X00444169Y01879722D02*
X00500000Y01879722D01*
X00500000Y01889721D02*
X00416634Y01889721D01*
X00416634Y01889152D02*
X00416634Y01897436D01*
X00408961Y01905109D01*
X00408961Y01912171D01*
X00410470Y01913681D01*
X00425511Y01898640D01*
X00449142Y01898640D01*
X00455000Y01904498D01*
X00455000Y01912782D01*
X00449142Y01918640D01*
X00433796Y01918640D01*
X00418449Y01933986D01*
X00402492Y01933986D01*
X00396634Y01928129D01*
X00388961Y01920455D01*
X00388961Y01896825D01*
X00388961Y01896825D01*
X00393406Y01892380D01*
X00394819Y01890967D01*
X00402492Y01883294D01*
X00410776Y01883294D01*
X00416634Y01889152D01*
X00421149Y01879722D02*
X00422811Y01879722D01*
X00424432Y01899719D02*
X00414350Y01899719D01*
X00414434Y01909718D02*
X00408961Y01909718D01*
X00388961Y01909718D02*
X00367312Y01909718D01*
X00365142Y01911888D02*
X00371000Y01906030D01*
X00371000Y01897746D01*
X00365627Y01892373D01*
X00371000Y01887000D01*
X00371000Y01878716D01*
X00363327Y01871043D01*
X00363327Y01871043D01*
X00359688Y01867404D01*
X00357469Y01865185D01*
X00340307Y01865185D01*
X00340307Y01863370D01*
X00334449Y01857512D01*
X00326165Y01857512D01*
X00320307Y01863370D01*
X00320307Y01865185D01*
X00318492Y01865185D01*
X00312634Y01871043D01*
X00312634Y01879327D01*
X00318492Y01885185D01*
X00320307Y01885185D01*
X00320307Y01887000D01*
X00325680Y01892373D01*
X00320307Y01897746D01*
X00320307Y01906030D01*
X00323838Y01909561D01*
X00320307Y01913092D01*
X00320307Y01929049D01*
X00326165Y01934907D01*
X00333789Y01934907D01*
X00329263Y01939434D01*
X00326165Y01942531D01*
X00326165Y01942531D01*
X00324883Y01943813D01*
X00320307Y01948389D01*
X00320307Y01972019D01*
X00326165Y01977877D01*
X00333838Y01985550D01*
X00357469Y01985550D01*
X00361914Y01981105D01*
X00363327Y01979693D01*
X00363327Y01979693D01*
X00366555Y01976464D01*
X00371000Y01972019D01*
X00371000Y01963735D01*
X00371000Y01956673D01*
X00371000Y01948389D01*
X00357469Y01934858D01*
X00334499Y01934858D01*
X00340307Y01929049D01*
X00340307Y01921376D01*
X00349796Y01911888D01*
X00365142Y01911888D01*
X00371000Y01899719D02*
X00388961Y01899719D01*
X00394819Y01890967D02*
X00394819Y01890967D01*
X00396065Y01889721D02*
X00368279Y01889721D01*
X00371000Y01879722D02*
X00399792Y01879722D01*
X00389793Y01869724D02*
X00362008Y01869724D01*
X00349185Y01885185D02*
X00355888Y01891888D01*
X00335419Y01891888D01*
X00340307Y01887000D01*
X00340307Y01885185D01*
X00349185Y01885185D01*
X00353721Y01889721D02*
X00337586Y01889721D01*
X00323028Y01889721D02*
X00256307Y01889721D01*
X00256307Y01889152D02*
X00256307Y01890967D01*
X00273469Y01890967D01*
X00278045Y01895543D01*
X00279327Y01896825D01*
X00287000Y01904498D01*
X00287000Y01912782D01*
X00281627Y01918155D01*
X00287000Y01923528D01*
X00287000Y01947158D01*
X00281627Y01952531D01*
X00287000Y01957904D01*
X00287000Y01966188D01*
X00275796Y01977392D01*
X00286692Y01988289D01*
X00287000Y01988596D01*
X00287000Y01996881D01*
X00281142Y02002738D01*
X00226819Y02002738D01*
X00220961Y01996881D01*
X00220961Y01988596D01*
X00226819Y01982739D01*
X00252858Y01982739D01*
X00251654Y01981534D01*
X00251654Y01973250D01*
X00252858Y01972046D01*
X00226819Y01972046D01*
X00220961Y01966188D01*
X00220961Y01957904D01*
X00226819Y01952046D01*
X00271888Y01952046D01*
X00267000Y01947158D01*
X00267000Y01945343D01*
X00242165Y01945343D01*
X00238634Y01941812D01*
X00235103Y01945343D01*
X00219145Y01945343D01*
X00213288Y01939485D01*
X00213288Y01931201D01*
X00219145Y01925343D01*
X00235103Y01925343D01*
X00236307Y01926547D01*
X00236307Y01923528D01*
X00241680Y01918155D01*
X00236307Y01912782D01*
X00236307Y01910967D01*
X00234492Y01910967D01*
X00228634Y01905109D01*
X00228634Y01896825D01*
X00234492Y01890967D01*
X00236307Y01890967D01*
X00236307Y01889152D01*
X00242165Y01883294D01*
X00250449Y01883294D01*
X00256307Y01889152D01*
X00267000Y01878406D02*
X00267000Y01876591D01*
X00226819Y01876591D01*
X00220961Y01870733D01*
X00220961Y01862449D01*
X00220961Y01854776D01*
X00226819Y01848918D01*
X00235103Y01848918D01*
X00240961Y01854776D01*
X00240961Y01856591D01*
X00267000Y01856591D01*
X00267000Y01854776D01*
X00272858Y01848918D01*
X00281142Y01848918D01*
X00287000Y01854776D01*
X00287000Y01878406D01*
X00281142Y01884264D01*
X00272858Y01884264D01*
X00267000Y01878406D01*
X00268316Y01879722D02*
X00200000Y01879722D01*
X00200000Y01869724D02*
X00220961Y01869724D01*
X00220961Y01859725D02*
X00200000Y01859725D01*
X00200000Y01849727D02*
X00226009Y01849727D01*
X00235912Y01849727D02*
X00272049Y01849727D01*
X00281951Y01849727D02*
X00326925Y01849727D01*
X00323951Y01859725D02*
X00287000Y01859725D01*
X00287000Y01869724D02*
X00313953Y01869724D01*
X00313029Y01879722D02*
X00285684Y01879722D01*
X00279327Y01896825D02*
X00279327Y01896825D01*
X00282221Y01899719D02*
X00320307Y01899719D01*
X00323681Y01909718D02*
X00287000Y01909718D01*
X00283189Y01919717D02*
X00320307Y01919717D01*
X00320973Y01929715D02*
X00287000Y01929715D01*
X00287000Y01939714D02*
X00328982Y01939714D01*
X00320307Y01949712D02*
X00284446Y01949712D01*
X00287000Y01959711D02*
X00320307Y01959711D01*
X00320307Y01969709D02*
X00283479Y01969709D01*
X00278111Y01979708D02*
X00327995Y01979708D01*
X00319103Y01986422D02*
X00310819Y01986422D01*
X00304961Y01992280D01*
X00304961Y02008237D01*
X00310819Y02014095D01*
X00351000Y02014095D01*
X00351000Y02015910D01*
X00356373Y02021283D01*
X00351000Y02026656D01*
X00351000Y02028471D01*
X00324961Y02028471D01*
X00324961Y02026656D01*
X00319103Y02020798D01*
X00310819Y02020798D01*
X00304961Y02026656D01*
X00304961Y02042613D01*
X00310819Y02048471D01*
X00351000Y02048471D01*
X00351000Y02050286D01*
X00355888Y02055174D01*
X00333838Y02055174D01*
X00329393Y02059619D01*
X00326165Y02062847D01*
X00326165Y02062847D01*
X00324752Y02064260D01*
X00320307Y02068704D01*
X00320307Y02092335D01*
X00327980Y02100009D01*
X00333838Y02105866D01*
X00349796Y02105866D01*
X00355654Y02100009D01*
X00355654Y02096989D01*
X00356858Y02098193D01*
X00365142Y02098193D01*
X00371000Y02092335D01*
X00371000Y02076989D01*
X00371000Y02068705D01*
X00363327Y02061031D01*
X00358439Y02056144D01*
X00365142Y02056144D01*
X00371000Y02050286D01*
X00371000Y02026656D01*
X00365627Y02021283D01*
X00371000Y02015910D01*
X00371000Y01992280D01*
X00365142Y01986422D01*
X00356858Y01986422D01*
X00351000Y01992280D01*
X00351000Y01994095D01*
X00324961Y01994095D01*
X00324961Y01992280D01*
X00319103Y01986422D01*
X00322387Y01989706D02*
X00353573Y01989706D01*
X00363312Y01979708D02*
X00396649Y01979708D01*
X00396634Y01979693D02*
X00388961Y01972019D01*
X00388961Y01948389D01*
X00388961Y01948389D01*
X00393406Y01943944D01*
X00394819Y01942531D01*
X00402492Y01934858D01*
X00410776Y01934858D01*
X00416634Y01940716D01*
X00416634Y01949000D01*
X00408961Y01956673D01*
X00408961Y01963735D01*
X00410470Y01965245D01*
X00425511Y01950204D01*
X00449142Y01950204D01*
X00455000Y01956062D01*
X00455000Y01964346D01*
X00449142Y01970204D01*
X00433796Y01970204D01*
X00418449Y01985550D01*
X00402492Y01985550D01*
X00396634Y01979693D01*
X00402492Y01986422D02*
X00410776Y01986422D01*
X00416634Y01992280D01*
X00416634Y02000564D01*
X00408961Y02008237D01*
X00408961Y02015299D01*
X00410470Y02016809D01*
X00425511Y02001768D01*
X00449142Y02001768D01*
X00455000Y02007626D01*
X00455000Y02015910D01*
X00449142Y02021768D01*
X00433796Y02021768D01*
X00418449Y02037114D01*
X00402492Y02037114D01*
X00396634Y02031257D01*
X00388961Y02023583D01*
X00388961Y01999953D01*
X00388961Y01999953D01*
X00393406Y01995508D01*
X00394819Y01994095D01*
X00402492Y01986422D01*
X00399207Y01989706D02*
X00368427Y01989706D01*
X00371000Y01999705D02*
X00389209Y01999705D01*
X00394819Y01994095D02*
X00394819Y01994095D01*
X00388961Y02009703D02*
X00371000Y02009703D01*
X00367208Y02019702D02*
X00388961Y02019702D01*
X00395078Y02029700D02*
X00371000Y02029700D01*
X00371000Y02039699D02*
X00400779Y02039699D01*
X00402492Y02037986D02*
X00394819Y02045659D01*
X00394819Y02045659D01*
X00393406Y02047072D01*
X00388961Y02051516D01*
X00388961Y02051517D01*
X00388961Y02075147D01*
X00396634Y02082821D01*
X00402492Y02088678D01*
X00418449Y02088678D01*
X00433796Y02073332D01*
X00449142Y02073332D01*
X00455000Y02067474D01*
X00455000Y02059190D01*
X00449142Y02053332D01*
X00425511Y02053332D01*
X00410470Y02068373D01*
X00408961Y02066863D01*
X00408961Y02059801D01*
X00416634Y02052128D01*
X00416634Y02043844D01*
X00410776Y02037986D01*
X00402492Y02037986D01*
X00412489Y02039699D02*
X00500000Y02039699D01*
X00500000Y02049697D02*
X00416634Y02049697D01*
X00419148Y02059696D02*
X00409066Y02059696D01*
X00388961Y02059696D02*
X00361991Y02059696D01*
X00371000Y02069694D02*
X00388961Y02069694D01*
X00393506Y02079693D02*
X00371000Y02079693D01*
X00371000Y02089691D02*
X00394677Y02089691D01*
X00394819Y02089550D02*
X00403103Y02089550D01*
X00408961Y02095407D01*
X00408961Y02113774D01*
X00432654Y02090080D01*
X00433185Y02089550D01*
X00449142Y02089550D01*
X00455000Y02095407D01*
X00455000Y02134385D01*
X00449142Y02140242D01*
X00440858Y02140242D01*
X00435000Y02134385D01*
X00435000Y02116018D01*
X00410776Y02140242D01*
X00394819Y02140242D01*
X00388961Y02134385D01*
X00388961Y02126100D01*
X00388961Y02095407D01*
X00394819Y02089550D01*
X00403245Y02089691D02*
X00433043Y02089691D01*
X00427435Y02079693D02*
X00500000Y02079693D01*
X00500000Y02089691D02*
X00449284Y02089691D01*
X00455000Y02099690D02*
X00500000Y02099690D01*
X00500000Y02109688D02*
X00455000Y02109688D01*
X00455000Y02119687D02*
X00500000Y02119687D01*
X00500000Y02129686D02*
X00455000Y02129686D01*
X00449700Y02139684D02*
X00500000Y02139684D01*
X00500000Y02149683D02*
X00450038Y02149683D01*
X00449142Y02148787D02*
X00455000Y02154645D01*
X00455000Y02178275D01*
X00450555Y02182720D01*
X00441469Y02191806D01*
X00394819Y02191806D01*
X00388961Y02185949D01*
X00388961Y02177664D01*
X00394819Y02171806D01*
X00433185Y02171806D01*
X00435000Y02169991D01*
X00435000Y02162929D01*
X00433185Y02161114D01*
X00394819Y02161114D01*
X00388961Y02155256D01*
X00388961Y02146971D01*
X00394819Y02141114D01*
X00441469Y02141114D01*
X00449142Y02148787D01*
X00455000Y02159681D02*
X00500000Y02159681D01*
X00500000Y02169680D02*
X00455000Y02169680D01*
X00453597Y02179678D02*
X00500000Y02179678D01*
X00500000Y02189677D02*
X00443599Y02189677D01*
X00441469Y02192678D02*
X00455000Y02206209D01*
X00455000Y02229839D01*
X00450424Y02234415D01*
X00447327Y02237512D01*
X00447327Y02237513D01*
X00446045Y02238794D01*
X00441469Y02243370D01*
X00425511Y02243370D01*
X00419654Y02237513D01*
X00416634Y02234493D01*
X00416634Y02237513D01*
X00410776Y02243370D01*
X00402492Y02243370D01*
X00394819Y02235697D01*
X00394819Y02235697D01*
X00388961Y02229839D01*
X00388961Y02206208D01*
X00393537Y02201633D01*
X00394819Y02200351D01*
X00397916Y02197253D01*
X00402492Y02192678D01*
X00418449Y02192678D01*
X00422894Y02197123D01*
X00426122Y02200351D01*
X00426123Y02200351D01*
X00427327Y02201555D01*
X00427327Y02198535D01*
X00433185Y02192678D01*
X00441469Y02192678D01*
X00448467Y02199675D02*
X00500000Y02199675D01*
X00500000Y02209674D02*
X00455000Y02209674D01*
X00455000Y02219672D02*
X00500000Y02219672D01*
X00500000Y02229671D02*
X00455000Y02229671D01*
X00445170Y02239669D02*
X00500000Y02239669D01*
X00500000Y02249668D02*
X00200000Y02249668D01*
X00200000Y02259666D02*
X00500000Y02259666D01*
X00500000Y02269665D02*
X00200000Y02269665D01*
X00200000Y02279663D02*
X00500000Y02279663D01*
X00500000Y02289662D02*
X00200000Y02289662D01*
X00200000Y02299660D02*
X00500000Y02299660D01*
X00421810Y02239669D02*
X00414477Y02239669D01*
X00411980Y02224575D02*
X00411980Y02214493D01*
X00410470Y02212983D01*
X00408961Y02214493D01*
X00408961Y02221555D01*
X00411980Y02224575D01*
X00411980Y02219672D02*
X00408961Y02219672D01*
X00388961Y02219672D02*
X00216081Y02219672D01*
X00226079Y02209674D02*
X00388961Y02209674D01*
X00394819Y02200351D02*
X00394819Y02200351D01*
X00395494Y02199675D02*
X00233325Y02199675D01*
X00237466Y02189677D02*
X00392689Y02189677D01*
X00388961Y02179678D02*
X00241608Y02179678D01*
X00245750Y02169680D02*
X00435000Y02169680D01*
X00440299Y02139684D02*
X00411334Y02139684D01*
X00421333Y02129686D02*
X00435000Y02129686D01*
X00435000Y02119687D02*
X00431331Y02119687D01*
X00413046Y02109688D02*
X00408961Y02109688D01*
X00408961Y02099690D02*
X00423044Y02099690D01*
X00388961Y02099690D02*
X00355654Y02099690D01*
X00365142Y02106738D02*
X00371000Y02112595D01*
X00371000Y02120880D01*
X00365142Y02126738D01*
X00349796Y02126738D01*
X00340307Y02136226D01*
X00340307Y02143899D01*
X00334449Y02149757D01*
X00326165Y02149757D01*
X00320307Y02143899D01*
X00320307Y02127942D01*
X00323838Y02124411D01*
X00320307Y02120880D01*
X00320307Y02112595D01*
X00326165Y02106738D01*
X00365142Y02106738D01*
X00368093Y02109688D02*
X00388961Y02109688D01*
X00388961Y02119687D02*
X00371000Y02119687D01*
X00388961Y02129686D02*
X00346848Y02129686D01*
X00340307Y02139684D02*
X00394260Y02139684D01*
X00388961Y02149683D02*
X00334524Y02149683D01*
X00326090Y02149683D02*
X00245992Y02149683D01*
X00245992Y02159681D02*
X00393386Y02159681D01*
X00425447Y02199675D02*
X00427327Y02199675D01*
X00431980Y02211473D02*
X00431980Y02221555D01*
X00433490Y02223065D01*
X00435000Y02221555D01*
X00435000Y02214493D01*
X00431980Y02211473D01*
X00431980Y02219672D02*
X00435000Y02219672D01*
X00398791Y02239669D02*
X00200000Y02239669D01*
X00206082Y02229671D02*
X00388961Y02229671D01*
X00320307Y02139684D02*
X00245992Y02139684D01*
X00245486Y02129686D02*
X00320307Y02129686D01*
X00320307Y02119687D02*
X00241345Y02119687D01*
X00237203Y02109688D02*
X00323214Y02109688D01*
X00327662Y02099690D02*
X00233062Y02099690D01*
X00225445Y02089691D02*
X00320307Y02089691D01*
X00320307Y02079693D02*
X00215446Y02079693D01*
X00205448Y02069694D02*
X00269220Y02069694D01*
X00267000Y02067474D02*
X00267000Y02065659D01*
X00242165Y02065659D01*
X00238634Y02062128D01*
X00235103Y02065659D01*
X00219145Y02065659D01*
X00213288Y02059801D01*
X00213288Y02051517D01*
X00219145Y02045659D01*
X00235103Y02045659D01*
X00236307Y02046863D01*
X00236307Y02043844D01*
X00242165Y02037986D01*
X00250449Y02037986D01*
X00256307Y02043844D01*
X00256307Y02045659D01*
X00267000Y02045659D01*
X00267000Y02043844D01*
X00272373Y02038471D01*
X00267000Y02033098D01*
X00267000Y02031283D01*
X00242165Y02031283D01*
X00238634Y02027752D01*
X00235103Y02031283D01*
X00219145Y02031283D01*
X00213288Y02025425D01*
X00213288Y02017141D01*
X00219145Y02011283D01*
X00235103Y02011283D01*
X00236307Y02012487D01*
X00236307Y02009468D01*
X00242165Y02003610D01*
X00250449Y02003610D01*
X00256307Y02009468D01*
X00256307Y02011283D01*
X00267000Y02011283D01*
X00267000Y02009468D01*
X00272858Y02003610D01*
X00281142Y02003610D01*
X00287000Y02009468D01*
X00287000Y02033098D01*
X00281627Y02038471D01*
X00287000Y02043844D01*
X00287000Y02067474D01*
X00281142Y02073332D01*
X00272858Y02073332D01*
X00267000Y02067474D01*
X00284780Y02069694D02*
X00320307Y02069694D01*
X00329316Y02059696D02*
X00287000Y02059696D01*
X00287000Y02049697D02*
X00351000Y02049697D01*
X00371000Y02049697D02*
X00390780Y02049697D01*
X00425863Y02029700D02*
X00500000Y02029700D01*
X00500000Y02019702D02*
X00451208Y02019702D01*
X00455000Y02009703D02*
X00500000Y02009703D01*
X00500000Y01999705D02*
X00416634Y01999705D01*
X00417576Y02009703D02*
X00408961Y02009703D01*
X00414060Y01989706D02*
X00500000Y01989706D01*
X00500000Y01979708D02*
X00424292Y01979708D01*
X00416005Y01959711D02*
X00408961Y01959711D01*
X00415922Y01949712D02*
X00500000Y01949712D01*
X00500000Y01939714D02*
X00415632Y01939714D01*
X00422721Y01929715D02*
X00500000Y01929715D01*
X00500000Y01919717D02*
X00432719Y01919717D01*
X00455000Y01909718D02*
X00500000Y01909718D01*
X00500000Y01899719D02*
X00450221Y01899719D01*
X00433490Y01862117D02*
X00431980Y01860607D01*
X00431980Y01853545D01*
X00433490Y01852035D01*
X00435000Y01853545D01*
X00435000Y01860607D01*
X00433490Y01862117D01*
X00431980Y01859725D02*
X00435000Y01859725D01*
X00411980Y01859725D02*
X00408961Y01859725D01*
X00408961Y01860607D02*
X00410470Y01862117D01*
X00411980Y01860607D01*
X00411980Y01853545D01*
X00410471Y01852035D01*
X00408961Y01853545D01*
X00408961Y01860607D01*
X00388961Y01859725D02*
X00336663Y01859725D01*
X00320307Y01839728D02*
X00287000Y01839728D01*
X00287000Y01829730D02*
X00320307Y01829730D01*
X00340307Y01829730D02*
X00439729Y01829730D01*
X00435000Y01819731D02*
X00371000Y01819731D01*
X00368927Y01809733D02*
X00389039Y01809733D01*
X00394819Y01839403D02*
X00394819Y01839403D01*
X00394493Y01839728D02*
X00368230Y01839728D01*
X00371000Y01849727D02*
X00388961Y01849727D01*
X00424307Y01789736D02*
X00435000Y01789736D01*
X00433185Y01759295D02*
X00430776Y01759295D01*
X00435000Y01755071D01*
X00435000Y01757479D01*
X00433185Y01759295D01*
X00413185Y01748602D02*
X00410776Y01748602D01*
X00408961Y01750417D01*
X00408961Y01752826D01*
X00413185Y01748602D01*
X00412045Y01749742D02*
X00409636Y01749742D01*
X00392936Y01769739D02*
X00371000Y01769739D01*
X00388961Y01919717D02*
X00341967Y01919717D01*
X00339641Y01929715D02*
X00398220Y01929715D01*
X00397636Y01939714D02*
X00362325Y01939714D01*
X00371000Y01949712D02*
X00388961Y01949712D01*
X00394819Y01942531D02*
X00394819Y01942531D01*
X00388961Y01959711D02*
X00371000Y01959711D01*
X00371000Y01969709D02*
X00388961Y01969709D01*
X00351000Y01963735D02*
X00351000Y01956673D01*
X00349185Y01954858D01*
X00342122Y01954858D01*
X00340307Y01956673D01*
X00340307Y01963735D01*
X00342123Y01965551D01*
X00349185Y01965551D01*
X00351000Y01963735D01*
X00351000Y01959711D02*
X00340307Y01959711D01*
X00307534Y01989706D02*
X00287000Y01989706D01*
X00284176Y01999705D02*
X00304961Y01999705D01*
X00306427Y02009703D02*
X00287000Y02009703D01*
X00287000Y02019702D02*
X00354792Y02019702D01*
X00304961Y02029700D02*
X00287000Y02029700D01*
X00282855Y02039699D02*
X00304961Y02039699D01*
X00271145Y02039699D02*
X00252162Y02039699D01*
X00240452Y02039699D02*
X00200000Y02039699D01*
X00200000Y02049697D02*
X00215107Y02049697D01*
X00213288Y02059696D02*
X00200000Y02059696D01*
X00200000Y02029700D02*
X00217563Y02029700D01*
X00213288Y02019702D02*
X00200000Y02019702D01*
X00200000Y02009703D02*
X00236307Y02009703D01*
X00223785Y01999705D02*
X00200000Y01999705D01*
X00200000Y01989706D02*
X00220961Y01989706D01*
X00224482Y01969709D02*
X00200000Y01969709D01*
X00200000Y01959711D02*
X00220961Y01959711D01*
X00213516Y01939714D02*
X00200000Y01939714D01*
X00200000Y01949712D02*
X00269554Y01949712D01*
X00267000Y01925343D02*
X00256307Y01925343D01*
X00256307Y01923528D01*
X00250934Y01918155D01*
X00256307Y01912782D01*
X00256307Y01910967D01*
X00265185Y01910967D01*
X00272373Y01918155D01*
X00267000Y01923528D01*
X00267000Y01925343D01*
X00270811Y01919717D02*
X00252496Y01919717D01*
X00240118Y01919717D02*
X00200000Y01919717D01*
X00200000Y01929715D02*
X00214773Y01929715D01*
X00200000Y01909718D02*
X00233243Y01909718D01*
X00228634Y01899719D02*
X00200000Y01899719D01*
X00200000Y01889721D02*
X00236307Y01889721D01*
X00236307Y01839728D02*
X00200000Y01839728D01*
X00200000Y01829730D02*
X00240482Y01829730D01*
X00220961Y01759740D02*
X00200000Y01759740D01*
X00200000Y01749742D02*
X00222867Y01749742D01*
X00200000Y01979708D02*
X00251654Y01979708D01*
X00256307Y02009703D02*
X00267000Y02009703D01*
X00240583Y02029700D02*
X00236685Y02029700D01*
X00452780Y02069694D02*
X00500000Y02069694D01*
X00500000Y02059696D02*
X00455000Y02059696D01*
X00449637Y01969709D02*
X00500000Y01969709D01*
X00500000Y01959711D02*
X00455000Y01959711D01*
D17*
X00150000Y02150000D03*
X00150000Y01350000D03*
X00900000Y01350000D03*
X01600000Y01350000D03*
X00150000Y03000000D03*
D18*
X00850000Y03000000D03*
M02*
