G75*
%MOIN*%
%OFA0B0*%
%FSLAX26Y26*%
%IPPOS*%
%LPD*%
%AMOC8*
5,1,8,0,0,1.08239X$1,22.5*
%
%ADD10C,0.000000*%
%ADD11C,0.006000*%
%ADD12C,0.012000*%
%ADD13C,0.005000*%
%ADD14C,0.008000*%
D10*
X00000000Y01200000D02*
X00000000Y03149606D01*
X01737008Y03149606D01*
X01737008Y01200000D01*
X00000000Y01200000D01*
D11*
X00482945Y01403000D02*
X00482945Y01435027D01*
X00493621Y01445703D01*
X00504297Y01445703D01*
X00514973Y01435027D01*
X00514973Y01403000D01*
X00547000Y01403000D02*
X00547000Y01435027D01*
X00536324Y01445703D01*
X00525648Y01445703D01*
X00514973Y01435027D01*
X00547000Y01403000D02*
X00482945Y01403000D01*
X00482945Y01467455D02*
X00504297Y01488806D01*
X00482945Y01510158D01*
X00547000Y01510158D01*
X00547000Y01531910D02*
X00547000Y01574613D01*
X00547000Y01596365D02*
X00504297Y01639068D01*
X00493621Y01639068D01*
X00482945Y01628392D01*
X00482945Y01607041D01*
X00493621Y01596365D01*
X00482945Y01574613D02*
X00482945Y01531910D01*
X00547000Y01531910D01*
X00514973Y01531910D02*
X00514973Y01553261D01*
X00547000Y01596365D02*
X00547000Y01639068D01*
X00536324Y01660820D02*
X00525648Y01660820D01*
X00514973Y01671496D01*
X00514973Y01692847D01*
X00525648Y01703523D01*
X00536324Y01703523D01*
X00547000Y01692847D01*
X00547000Y01671496D01*
X00536324Y01660820D01*
X00514973Y01671496D02*
X00504297Y01660820D01*
X00493621Y01660820D01*
X00482945Y01671496D01*
X00482945Y01692847D01*
X00493621Y01703523D01*
X00504297Y01703523D01*
X00514973Y01692847D01*
X00536324Y01725275D02*
X00493621Y01725275D01*
X00482945Y01735951D01*
X00482945Y01757302D01*
X00493621Y01767978D01*
X00536324Y01725275D01*
X00547000Y01735951D01*
X00547000Y01757302D01*
X00536324Y01767978D01*
X00493621Y01767978D01*
X00650000Y01775000D02*
X00650000Y01825000D01*
X00675000Y01850000D01*
X00650000Y01875000D01*
X00650000Y01925000D01*
X00675000Y01950000D01*
X00725000Y01950000D01*
X00750000Y01925000D01*
X00750000Y01875000D01*
X00725000Y01850000D01*
X00750000Y01825000D01*
X00750000Y01775000D01*
X00725000Y01750000D01*
X00750000Y01725000D01*
X00750000Y01675000D01*
X00725000Y01650000D01*
X00750000Y01625000D01*
X00750000Y01575000D01*
X00725000Y01550000D01*
X00750000Y01525000D01*
X00750000Y01475000D01*
X00725000Y01450000D01*
X00750000Y01425000D01*
X00750000Y01375000D01*
X00725000Y01350000D01*
X00750000Y01325000D01*
X00750000Y01275000D01*
X00725000Y01250000D01*
X00675000Y01250000D01*
X00650000Y01275000D01*
X00650000Y01325000D01*
X00675000Y01350000D01*
X00650000Y01375000D01*
X00650000Y01425000D01*
X00675000Y01450000D01*
X00650000Y01475000D01*
X00650000Y01525000D01*
X00675000Y01550000D01*
X00650000Y01575000D01*
X00650000Y01625000D01*
X00675000Y01650000D01*
X00650000Y01675000D01*
X00650000Y01725000D01*
X00675000Y01750000D01*
X00650000Y01775000D01*
X00547000Y01467455D02*
X00482945Y01467455D01*
X00675000Y02150000D02*
X00725000Y02150000D01*
X00750000Y02175000D01*
X00750000Y02225000D01*
X00725000Y02250000D01*
X00750000Y02275000D01*
X00750000Y02325000D01*
X00725000Y02350000D01*
X00750000Y02375000D01*
X00750000Y02425000D01*
X00725000Y02450000D01*
X00750000Y02475000D01*
X00750000Y02525000D01*
X00725000Y02550000D01*
X00750000Y02575000D01*
X00750000Y02625000D01*
X00725000Y02650000D01*
X00750000Y02675000D01*
X00750000Y02725000D01*
X00725000Y02750000D01*
X00750000Y02775000D01*
X00750000Y02825000D01*
X00725000Y02850000D01*
X00750000Y02875000D01*
X00750000Y02925000D01*
X00725000Y02950000D01*
X00750000Y02975000D01*
X00750000Y03025000D01*
X00725000Y03050000D01*
X00675000Y03050000D01*
X00650000Y03025000D01*
X00650000Y02975000D01*
X00675000Y02950000D01*
X00650000Y02925000D01*
X00650000Y02875000D01*
X00675000Y02850000D01*
X00650000Y02825000D01*
X00650000Y02775000D01*
X00675000Y02750000D01*
X00650000Y02725000D01*
X00650000Y02675000D01*
X00675000Y02650000D01*
X00650000Y02625000D01*
X00650000Y02575000D01*
X00675000Y02550000D01*
X00650000Y02525000D01*
X00650000Y02475000D01*
X00675000Y02450000D01*
X00650000Y02425000D01*
X00650000Y02375000D01*
X00675000Y02350000D01*
X00650000Y02325000D01*
X00650000Y02275000D01*
X00675000Y02250000D01*
X00650000Y02225000D01*
X00650000Y02175000D01*
X00675000Y02150000D01*
X00547000Y02353000D02*
X00547000Y02395703D01*
X00536324Y02417455D02*
X00547000Y02428131D01*
X00547000Y02449482D01*
X00536324Y02460158D01*
X00525648Y02460158D01*
X00514973Y02449482D01*
X00514973Y02428131D01*
X00504297Y02417455D01*
X00493621Y02417455D01*
X00482945Y02428131D01*
X00482945Y02449482D01*
X00493621Y02460158D01*
X00482945Y02481910D02*
X00504297Y02503261D01*
X00482945Y02524613D01*
X00547000Y02524613D01*
X00536324Y02546365D02*
X00547000Y02557041D01*
X00547000Y02578392D01*
X00536324Y02589068D01*
X00493621Y02589068D01*
X00482945Y02578392D01*
X00482945Y02557041D01*
X00493621Y02546365D01*
X00504297Y02546365D01*
X00514973Y02557041D01*
X00514973Y02589068D01*
X00547000Y02610820D02*
X00482945Y02610820D01*
X00482945Y02642847D01*
X00493621Y02653523D01*
X00536324Y02653523D01*
X00547000Y02642847D01*
X00547000Y02610820D01*
X00536324Y02675275D02*
X00547000Y02685951D01*
X00547000Y02707302D01*
X00536324Y02717978D01*
X00525648Y02717978D01*
X00514973Y02707302D01*
X00514973Y02685951D01*
X00504297Y02675275D01*
X00493621Y02675275D01*
X00482945Y02685951D01*
X00482945Y02707302D01*
X00493621Y02717978D01*
X00493621Y02739730D02*
X00482945Y02750406D01*
X00482945Y02771757D01*
X00493621Y02782433D01*
X00536324Y02739730D01*
X00547000Y02750406D01*
X00547000Y02771757D01*
X00536324Y02782433D01*
X00493621Y02782433D01*
X00493621Y02739730D02*
X00536324Y02739730D01*
X00547000Y02481910D02*
X00482945Y02481910D01*
X00482945Y02353000D02*
X00547000Y02353000D01*
X00150000Y02375000D02*
X00125000Y02350000D01*
X00075000Y02350000D01*
X00050000Y02375000D01*
X00050000Y02425000D01*
X00075000Y02450000D01*
X00050000Y02475000D01*
X00050000Y02525000D01*
X00075000Y02550000D01*
X00050000Y02575000D01*
X00050000Y02625000D01*
X00075000Y02650000D01*
X00050000Y02675000D01*
X00050000Y02725000D01*
X00075000Y02750000D01*
X00050000Y02775000D01*
X00050000Y02825000D01*
X00075000Y02850000D01*
X00125000Y02850000D01*
X00150000Y02825000D01*
X00150000Y02775000D01*
X00125000Y02750000D01*
X00150000Y02725000D01*
X00150000Y02675000D01*
X00125000Y02650000D01*
X00150000Y02625000D01*
X00150000Y02575000D01*
X00125000Y02550000D01*
X00150000Y02525000D01*
X00150000Y02475000D01*
X00125000Y02450000D01*
X00150000Y02425000D01*
X00150000Y02375000D01*
X01082945Y02703000D02*
X01147000Y02745703D01*
X01082945Y02745703D01*
X01104297Y02778131D02*
X01104297Y02799482D01*
X01114973Y02810158D01*
X01147000Y02810158D01*
X01147000Y02778131D01*
X01136324Y02767455D01*
X01125648Y02778131D01*
X01125648Y02810158D01*
X01104297Y02831910D02*
X01104297Y02863937D01*
X01114973Y02874613D01*
X01147000Y02874613D01*
X01136324Y02896365D02*
X01147000Y02907041D01*
X01147000Y02928392D01*
X01136324Y02939068D01*
X01114973Y02939068D01*
X01104297Y02928392D01*
X01104297Y02907041D01*
X01114973Y02896365D01*
X01136324Y02896365D01*
X01147000Y02831910D02*
X01104297Y02831910D01*
X01082945Y02703000D02*
X01147000Y02703000D01*
D12*
X00950000Y02714996D02*
X00950000Y02754689D01*
X00950000Y02794059D02*
X00950000Y02833751D01*
X00950000Y02873121D02*
X00950000Y02912813D01*
X00950000Y02952183D02*
X00950000Y02991875D01*
X00950000Y03031246D02*
X00950000Y03070938D01*
X00950000Y03110308D02*
X00950000Y03150000D01*
X00800000Y03150000D02*
X00800000Y03106745D01*
X00800000Y03067375D02*
X00800000Y03024121D01*
X00800000Y02984751D02*
X00800000Y02941496D01*
X00800000Y02902126D02*
X00800000Y02858871D01*
X00800000Y02819501D02*
X00800000Y02776247D01*
X00800000Y02736877D02*
X00800000Y02693622D01*
X00800000Y02654252D02*
X00800000Y02610997D01*
X00800000Y02571627D02*
X00800000Y02528373D01*
X00800000Y02489003D02*
X00800000Y02445748D01*
X00800000Y02406378D02*
X00800000Y02363123D01*
X00800000Y02323753D02*
X00800000Y02280499D01*
X00800000Y02241129D02*
X00800000Y02197874D01*
X00800000Y02158504D02*
X00800000Y02115249D01*
X00800000Y02075879D02*
X00800000Y02032625D01*
X00800000Y01993255D02*
X00800000Y01950000D01*
X00760433Y01950000D01*
X00721063Y01950000D02*
X00681496Y01950000D01*
X00642126Y01950000D02*
X00602559Y01950000D01*
X00563189Y01950000D02*
X00523622Y01950000D01*
X00484252Y01950000D02*
X00444685Y01950000D01*
X00405315Y01950000D02*
X00365748Y01950000D01*
X00326378Y01950000D02*
X00286811Y01950000D01*
X00247441Y01950000D02*
X00207874Y01950000D01*
X00168504Y01950000D02*
X00128937Y01950000D01*
X00089567Y01950000D02*
X00050000Y01950000D01*
X00000000Y01950000D01*
X00000000Y01993255D01*
X00000000Y02032625D02*
X00000000Y02075879D01*
X00000000Y02115249D02*
X00000000Y02158504D01*
X00000000Y02197874D02*
X00000000Y02241129D01*
X00000000Y02280499D02*
X00000000Y02323753D01*
X00000000Y02363123D02*
X00000000Y02406378D01*
X00000000Y02445748D02*
X00000000Y02489003D01*
X00000000Y02528373D02*
X00000000Y02571627D01*
X00000000Y02610997D02*
X00000000Y02654252D01*
X00000000Y02693622D02*
X00000000Y02736877D01*
X00000000Y02776247D02*
X00000000Y02819501D01*
X00000000Y02858871D02*
X00000000Y02902126D01*
X00000000Y02941496D02*
X00000000Y02984751D01*
X00000000Y03024121D02*
X00000000Y03067375D01*
X00000000Y03106745D02*
X00000000Y03150000D01*
X00950000Y02675626D02*
X00950000Y02635934D01*
X00950000Y02596564D02*
X00950000Y02556872D01*
X00950000Y02517502D02*
X00950000Y02477810D01*
X00950000Y02438439D02*
X00950000Y02398747D01*
X00950000Y02359377D02*
X00950000Y02319685D01*
X00950000Y02280315D02*
X00950000Y02240623D01*
X00950000Y02201253D02*
X00950000Y02161561D01*
X00950000Y02122190D02*
X00950000Y02082498D01*
X00950000Y02043128D02*
X00950000Y02003436D01*
X00950000Y01964066D02*
X00950000Y01924374D01*
X00950000Y01885004D02*
X00950000Y01845311D01*
X00950000Y01805941D02*
X00950000Y01766249D01*
X00950000Y01726879D02*
X00950000Y01687187D01*
X00950000Y01647817D02*
X00950000Y01608125D01*
X00950000Y01568754D02*
X00950000Y01529062D01*
X00950000Y01489692D02*
X00950000Y01450000D01*
X00992782Y01450000D01*
X01032152Y01450000D02*
X01074934Y01450000D01*
X01114305Y01450000D02*
X01157087Y01450000D01*
X01196457Y01450000D02*
X01239239Y01450000D01*
X01278609Y01450000D02*
X01321391Y01450000D01*
X01360761Y01450000D02*
X01403543Y01450000D01*
X01442913Y01450000D02*
X01485695Y01450000D01*
X01525066Y01450000D02*
X01567848Y01450000D01*
X01607218Y01450000D02*
X01650000Y01450000D01*
X01650000Y01489692D01*
X01650000Y01529062D02*
X01650000Y01568754D01*
X01650000Y01608125D02*
X01650000Y01647817D01*
X01650000Y01687187D02*
X01650000Y01726879D01*
X01650000Y01766249D02*
X01650000Y01805941D01*
X01650000Y01845311D02*
X01650000Y01885004D01*
X01650000Y01924374D02*
X01650000Y01964066D01*
X01650000Y02003436D02*
X01650000Y02043128D01*
X01650000Y02082498D02*
X01650000Y02122190D01*
X01650000Y02161561D02*
X01650000Y02201253D01*
X01650000Y02240623D02*
X01650000Y02280315D01*
X01650000Y02319685D02*
X01650000Y02359377D01*
X01650000Y02398747D02*
X01650000Y02438439D01*
X01650000Y02477810D02*
X01650000Y02517502D01*
X01650000Y02556872D02*
X01650000Y02596564D01*
X01650000Y02635934D02*
X01650000Y02675626D01*
X01650000Y02714996D02*
X01650000Y02754689D01*
X01650000Y02794059D02*
X01650000Y02833751D01*
X01650000Y02873121D02*
X01650000Y02912813D01*
X01650000Y02952183D02*
X01650000Y02991875D01*
X01650000Y03031246D02*
X01650000Y03070938D01*
X01650000Y03110308D02*
X01650000Y03150000D01*
X00800000Y01950000D02*
X00800000Y01907218D01*
X00800000Y01867848D02*
X00800000Y01825066D01*
X00800000Y01785695D02*
X00800000Y01742913D01*
X00800000Y01703543D02*
X00800000Y01660761D01*
X00800000Y01621391D02*
X00800000Y01578609D01*
X00800000Y01539239D02*
X00800000Y01496457D01*
X00800000Y01457087D02*
X00800000Y01414305D01*
X00800000Y01374934D02*
X00800000Y01332152D01*
X00800000Y01292782D02*
X00800000Y01250000D01*
X00760433Y01250000D01*
X00721063Y01250000D02*
X00681496Y01250000D01*
X00642126Y01250000D02*
X00602559Y01250000D01*
X00563189Y01250000D02*
X00523622Y01250000D01*
X00484252Y01250000D02*
X00444685Y01250000D01*
X00405315Y01250000D02*
X00365748Y01250000D01*
X00326378Y01250000D02*
X00286811Y01250000D01*
X00247441Y01250000D02*
X00207874Y01250000D01*
X00168504Y01250000D02*
X00128937Y01250000D01*
X00089567Y01250000D02*
X00050000Y01250000D01*
X00050000Y01292782D01*
X00050000Y01332152D02*
X00050000Y01374934D01*
X00050000Y01414305D02*
X00050000Y01457087D01*
X00050000Y01496457D02*
X00050000Y01539239D01*
X00050000Y01578609D02*
X00050000Y01621391D01*
X00050000Y01660761D02*
X00050000Y01703543D01*
X00050000Y01742913D02*
X00050000Y01785695D01*
X00050000Y01825066D02*
X00050000Y01867848D01*
X00050000Y01907218D02*
X00050000Y01950000D01*
D13*
X00167462Y02381461D02*
X00189981Y02381461D01*
X00182474Y02396474D01*
X00182474Y02403980D01*
X00189981Y02411486D01*
X00204994Y02411486D01*
X00212500Y02403980D01*
X00212500Y02388967D01*
X00204994Y02381461D01*
X00167462Y02381461D02*
X00167462Y02411486D01*
X00174968Y02714382D02*
X00167462Y02721888D01*
X00167462Y02736901D01*
X00174968Y02744408D01*
X00189981Y02736901D02*
X00189981Y02721888D01*
X00182474Y02714382D01*
X00174968Y02714382D01*
X00189981Y02736901D02*
X00197487Y02744408D01*
X00204994Y02744408D01*
X00212500Y02736901D01*
X00212500Y02721888D01*
X00204994Y02714382D01*
X00197487Y02760421D02*
X00167462Y02760421D01*
X00167462Y02790447D02*
X00197487Y02790447D01*
X00212500Y02775434D01*
X00197487Y02760421D01*
X00204994Y02806461D02*
X00212500Y02813967D01*
X00212500Y02828980D01*
X00204994Y02836486D01*
X00197487Y02836486D01*
X00189981Y02828980D01*
X00189981Y02821473D01*
X00189981Y02828980D02*
X00182474Y02836486D01*
X00174968Y02836486D01*
X00167462Y02828980D01*
X00167462Y02813967D01*
X00174968Y02806461D01*
X00032500Y02811486D02*
X00032500Y02781461D01*
X00032500Y02796474D02*
X-00012538Y02796474D01*
X00002474Y02781461D01*
X00587462Y02991474D02*
X00632500Y02991474D01*
X00632500Y03006486D02*
X00632500Y02976461D01*
X00602474Y02976461D02*
X00587462Y02991474D01*
X00767462Y02990447D02*
X00797487Y02990447D01*
X00812500Y02975434D01*
X00797487Y02960421D01*
X00767462Y02960421D01*
X00774968Y02944408D02*
X00767462Y02936901D01*
X00767462Y02921888D01*
X00774968Y02914382D01*
X00782474Y02914382D01*
X00789981Y02921888D01*
X00789981Y02936901D01*
X00797487Y02944408D01*
X00804994Y02944408D01*
X00812500Y02936901D01*
X00812500Y02921888D01*
X00804994Y02914382D01*
X00812500Y03006461D02*
X00782474Y03036486D01*
X00774968Y03036486D01*
X00767462Y03028980D01*
X00767462Y03013967D01*
X00774968Y03006461D01*
X00812500Y03006461D02*
X00812500Y03036486D01*
X01174462Y02631980D02*
X01196981Y02609461D01*
X01196981Y02639486D01*
X01219500Y02631980D02*
X01174462Y02631980D01*
X01181968Y02593447D02*
X01196981Y02593447D01*
X01204487Y02585940D01*
X01204487Y02563421D01*
X01219500Y02563421D02*
X01174462Y02563421D01*
X01174462Y02585940D01*
X01181968Y02593447D01*
X01174462Y02547408D02*
X01174462Y02532395D01*
X01174462Y02539901D02*
X01211994Y02539901D01*
X01219500Y02532395D01*
X01219500Y02524888D01*
X01211994Y02517382D01*
X01574462Y02932395D02*
X01574462Y02947408D01*
X01574462Y02939901D02*
X01611994Y02939901D01*
X01619500Y02932395D01*
X01619500Y02924888D01*
X01611994Y02917382D01*
X01619500Y02963421D02*
X01574462Y02963421D01*
X01574462Y02985940D01*
X01581968Y02993447D01*
X01596981Y02993447D01*
X01604487Y02985940D01*
X01604487Y02963421D01*
X01589474Y03009461D02*
X01574462Y03024473D01*
X01619500Y03024473D01*
X01619500Y03009461D02*
X01619500Y03039486D01*
X00804994Y02206486D02*
X00774968Y02206486D01*
X00767462Y02198980D01*
X00767462Y02183967D01*
X00774968Y02176461D01*
X00782474Y02176461D01*
X00789981Y02183967D01*
X00789981Y02206486D01*
X00804994Y02206486D02*
X00812500Y02198980D01*
X00812500Y02183967D01*
X00804994Y02176461D01*
X00812500Y01936486D02*
X00812500Y01906461D01*
X00812500Y01921473D02*
X00767462Y01921473D01*
X00782474Y01906461D01*
X00797487Y01890447D02*
X00767462Y01890447D01*
X00797487Y01890447D02*
X00812500Y01875434D01*
X00797487Y01860421D01*
X00767462Y01860421D01*
X00774968Y01844408D02*
X00767462Y01836901D01*
X00767462Y01821888D01*
X00774968Y01814382D01*
X00782474Y01814382D01*
X00789981Y01821888D01*
X00789981Y01836901D01*
X00797487Y01844408D01*
X00804994Y01844408D01*
X00812500Y01836901D01*
X00812500Y01821888D01*
X00804994Y01814382D01*
X00632500Y01881461D02*
X00632500Y01911486D01*
X00632500Y01896474D02*
X00587462Y01896474D01*
X00602474Y01881461D01*
X00767462Y01301486D02*
X00774968Y01301486D01*
X00804994Y01271461D01*
X00812500Y01271461D01*
X00767462Y01271461D02*
X00767462Y01301486D01*
X01180462Y01464513D02*
X01180462Y01479526D01*
X01180462Y01472019D02*
X01217994Y01472019D01*
X01225500Y01464513D01*
X01225500Y01457006D01*
X01217994Y01449500D01*
X01225500Y01495539D02*
X01180462Y01495539D01*
X01180462Y01518058D01*
X01187968Y01525565D01*
X01202981Y01525565D01*
X01210487Y01518058D01*
X01210487Y01495539D01*
X01217994Y01541578D02*
X01225500Y01549085D01*
X01225500Y01564098D01*
X01217994Y01571604D01*
X01210487Y01571604D01*
X01202981Y01564098D01*
X01202981Y01556591D01*
X01202981Y01564098D02*
X01195474Y01571604D01*
X01187968Y01571604D01*
X01180462Y01564098D01*
X01180462Y01549085D01*
X01187968Y01541578D01*
X01280462Y01549085D02*
X01287968Y01541578D01*
X01280462Y01549085D02*
X01280462Y01564098D01*
X01287968Y01571604D01*
X01295474Y01571604D01*
X01325500Y01541578D01*
X01325500Y01571604D01*
X01302981Y01525565D02*
X01287968Y01525565D01*
X01280462Y01518058D01*
X01280462Y01495539D01*
X01325500Y01495539D01*
X01310487Y01495539D02*
X01310487Y01518058D01*
X01302981Y01525565D01*
X01280462Y01479526D02*
X01280462Y01464513D01*
X01280462Y01472019D02*
X01317994Y01472019D01*
X01325500Y01464513D01*
X01325500Y01457006D01*
X01317994Y01449500D01*
X01380462Y01457006D02*
X01387968Y01449500D01*
X01395474Y01449500D01*
X01402981Y01457006D01*
X01402981Y01472019D01*
X01410487Y01479526D01*
X01417994Y01479526D01*
X01425500Y01472019D01*
X01425500Y01457006D01*
X01417994Y01449500D01*
X01380462Y01457006D02*
X01380462Y01472019D01*
X01387968Y01479526D01*
X01380462Y01495539D02*
X01410487Y01495539D01*
X01425500Y01510552D01*
X01410487Y01525565D01*
X01380462Y01525565D01*
X01380462Y01541578D02*
X01402981Y01541578D01*
X01395474Y01556591D01*
X01395474Y01564098D01*
X01402981Y01571604D01*
X01417994Y01571604D01*
X01425500Y01564098D01*
X01425500Y01549085D01*
X01417994Y01541578D01*
X01380462Y01541578D02*
X01380462Y01571604D01*
D14*
X01375000Y01550000D02*
X01350000Y01575000D01*
X01325000Y01550000D01*
X01350000Y01525000D01*
X01350000Y01475000D01*
X01325000Y01450000D01*
X01275000Y01450000D01*
X01250000Y01475000D01*
X01250000Y01525000D01*
X01275000Y01550000D01*
X01250000Y01575000D01*
X01250000Y01625000D01*
X01275000Y01650000D01*
X01250000Y01675000D01*
X01250000Y01725000D01*
X01275000Y01750000D01*
X01250000Y01775000D01*
X01250000Y01825000D01*
X01275000Y01850000D01*
X01250000Y01875000D01*
X01250000Y01925000D01*
X01275000Y01950000D01*
X01250000Y01975000D01*
X01250000Y02025000D01*
X01275000Y02050000D01*
X01250000Y02075000D01*
X01250000Y02125000D01*
X01275000Y02150000D01*
X01250000Y02175000D01*
X01250000Y02225000D01*
X01275000Y02250000D01*
X01250000Y02275000D01*
X01250000Y02325000D01*
X01275000Y02350000D01*
X01250000Y02375000D01*
X01250000Y02425000D01*
X01275000Y02450000D01*
X01250000Y02475000D01*
X01250000Y02525000D01*
X01275000Y02550000D01*
X01250000Y02575000D01*
X01250000Y02625000D01*
X01275000Y02650000D01*
X01250000Y02675000D01*
X01250000Y02725000D01*
X01275000Y02750000D01*
X01250000Y02775000D01*
X01250000Y02825000D01*
X01275000Y02850000D01*
X01325000Y02850000D01*
X01350000Y02825000D01*
X01350000Y02775000D01*
X01325000Y02750000D01*
X01350000Y02725000D01*
X01350000Y02675000D01*
X01325000Y02650000D01*
X01350000Y02625000D01*
X01350000Y02575000D01*
X01325000Y02550000D01*
X01350000Y02525000D01*
X01350000Y02475000D01*
X01325000Y02450000D01*
X01350000Y02425000D01*
X01350000Y02375000D01*
X01325000Y02350000D01*
X01350000Y02325000D01*
X01350000Y02275000D01*
X01325000Y02250000D01*
X01350000Y02225000D01*
X01350000Y02175000D01*
X01325000Y02150000D01*
X01350000Y02125000D01*
X01350000Y02075000D01*
X01325000Y02050000D01*
X01350000Y02025000D01*
X01350000Y01975000D01*
X01325000Y01950000D01*
X01350000Y01925000D01*
X01350000Y01875000D01*
X01325000Y01850000D01*
X01350000Y01825000D01*
X01350000Y01775000D01*
X01325000Y01750000D01*
X01350000Y01725000D01*
X01350000Y01675000D01*
X01325000Y01650000D01*
X01350000Y01625000D01*
X01350000Y01575000D01*
X01350000Y01625000D01*
X01375000Y01650000D01*
X01350000Y01675000D01*
X01350000Y01725000D01*
X01375000Y01750000D01*
X01350000Y01775000D01*
X01350000Y01825000D01*
X01375000Y01850000D01*
X01350000Y01875000D01*
X01350000Y01925000D01*
X01375000Y01950000D01*
X01350000Y01975000D01*
X01350000Y02025000D01*
X01375000Y02050000D01*
X01350000Y02075000D01*
X01350000Y02125000D01*
X01375000Y02150000D01*
X01350000Y02175000D01*
X01350000Y02225000D01*
X01375000Y02250000D01*
X01350000Y02275000D01*
X01350000Y02325000D01*
X01375000Y02350000D01*
X01350000Y02375000D01*
X01350000Y02425000D01*
X01375000Y02450000D01*
X01350000Y02475000D01*
X01350000Y02525000D01*
X01375000Y02550000D01*
X01350000Y02575000D01*
X01350000Y02625000D01*
X01375000Y02650000D01*
X01350000Y02675000D01*
X01350000Y02725000D01*
X01375000Y02750000D01*
X01350000Y02775000D01*
X01350000Y02825000D01*
X01375000Y02850000D01*
X01425000Y02850000D01*
X01450000Y02825000D01*
X01450000Y02775000D01*
X01425000Y02750000D01*
X01450000Y02725000D01*
X01450000Y02675000D01*
X01425000Y02650000D01*
X01450000Y02625000D01*
X01450000Y02575000D01*
X01425000Y02550000D01*
X01450000Y02525000D01*
X01450000Y02475000D01*
X01425000Y02450000D01*
X01450000Y02425000D01*
X01450000Y02375000D01*
X01425000Y02350000D01*
X01450000Y02325000D01*
X01450000Y02275000D01*
X01425000Y02250000D01*
X01450000Y02225000D01*
X01450000Y02175000D01*
X01425000Y02150000D01*
X01450000Y02125000D01*
X01450000Y02075000D01*
X01425000Y02050000D01*
X01450000Y02025000D01*
X01450000Y01975000D01*
X01425000Y01950000D01*
X01450000Y01925000D01*
X01450000Y01875000D01*
X01425000Y01850000D01*
X01450000Y01825000D01*
X01450000Y01775000D01*
X01425000Y01750000D01*
X01450000Y01725000D01*
X01450000Y01675000D01*
X01425000Y01650000D01*
X01450000Y01625000D01*
X01450000Y01575000D01*
X01425000Y01550000D01*
X01450000Y01525000D01*
X01450000Y01475000D01*
X01425000Y01450000D01*
X01375000Y01450000D01*
X01350000Y01475000D01*
X01350000Y01525000D01*
X01375000Y01550000D01*
X01450000Y01525000D02*
X01450000Y01475000D01*
X01475000Y01450000D01*
X01525000Y01450000D01*
X01550000Y01475000D01*
X01550000Y01525000D01*
X01525000Y01550000D01*
X01550000Y01575000D01*
X01550000Y01625000D01*
X01525000Y01650000D01*
X01550000Y01675000D01*
X01550000Y01725000D01*
X01525000Y01750000D01*
X01550000Y01775000D01*
X01550000Y01825000D01*
X01525000Y01850000D01*
X01550000Y01875000D01*
X01550000Y01925000D01*
X01525000Y01950000D01*
X01550000Y01975000D01*
X01550000Y02025000D01*
X01525000Y02050000D01*
X01550000Y02075000D01*
X01550000Y02125000D01*
X01525000Y02150000D01*
X01550000Y02175000D01*
X01550000Y02225000D01*
X01525000Y02250000D01*
X01550000Y02275000D01*
X01550000Y02325000D01*
X01525000Y02350000D01*
X01550000Y02375000D01*
X01550000Y02425000D01*
X01525000Y02450000D01*
X01550000Y02475000D01*
X01550000Y02525000D01*
X01525000Y02550000D01*
X01550000Y02575000D01*
X01550000Y02625000D01*
X01525000Y02650000D01*
X01475000Y02650000D01*
X01450000Y02625000D01*
X01450000Y02575000D01*
X01475000Y02550000D01*
X01450000Y02525000D01*
X01450000Y02475000D01*
X01475000Y02450000D01*
X01450000Y02425000D01*
X01450000Y02375000D01*
X01475000Y02350000D01*
X01450000Y02325000D01*
X01450000Y02275000D01*
X01475000Y02250000D01*
X01450000Y02225000D01*
X01450000Y02175000D01*
X01475000Y02150000D01*
X01450000Y02125000D01*
X01450000Y02075000D01*
X01475000Y02050000D01*
X01450000Y02025000D01*
X01450000Y01975000D01*
X01475000Y01950000D01*
X01450000Y01925000D01*
X01450000Y01875000D01*
X01475000Y01850000D01*
X01450000Y01825000D01*
X01450000Y01775000D01*
X01475000Y01750000D01*
X01450000Y01725000D01*
X01450000Y01675000D01*
X01475000Y01650000D01*
X01450000Y01625000D01*
X01450000Y01575000D01*
X01475000Y01550000D01*
X01450000Y01525000D01*
X01150000Y01775000D02*
X01125000Y01750000D01*
X01075000Y01750000D01*
X01050000Y01775000D01*
X01050000Y01825000D01*
X01075000Y01850000D01*
X01050000Y01875000D01*
X01050000Y01925000D01*
X01075000Y01950000D01*
X01050000Y01975000D01*
X01050000Y02025000D01*
X01075000Y02050000D01*
X01050000Y02075000D01*
X01050000Y02125000D01*
X01075000Y02150000D01*
X01050000Y02175000D01*
X01050000Y02225000D01*
X01075000Y02250000D01*
X01050000Y02275000D01*
X01050000Y02325000D01*
X01075000Y02350000D01*
X01050000Y02375000D01*
X01050000Y02425000D01*
X01075000Y02450000D01*
X01050000Y02475000D01*
X01050000Y02525000D01*
X01075000Y02550000D01*
X01050000Y02575000D01*
X01050000Y02625000D01*
X01075000Y02650000D01*
X01125000Y02650000D01*
X01150000Y02625000D01*
X01150000Y02575000D01*
X01125000Y02550000D01*
X01150000Y02525000D01*
X01150000Y02475000D01*
X01125000Y02450000D01*
X01150000Y02425000D01*
X01150000Y02375000D01*
X01125000Y02350000D01*
X01150000Y02325000D01*
X01150000Y02275000D01*
X01125000Y02250000D01*
X01150000Y02225000D01*
X01150000Y02175000D01*
X01125000Y02150000D01*
X01150000Y02125000D01*
X01150000Y02075000D01*
X01125000Y02050000D01*
X01150000Y02025000D01*
X01150000Y01975000D01*
X01125000Y01950000D01*
X01150000Y01925000D01*
X01150000Y01875000D01*
X01125000Y01850000D01*
X01150000Y01825000D01*
X01150000Y01775000D01*
X01475000Y02850000D02*
X01525000Y02850000D01*
X01550000Y02875000D01*
X01550000Y02925000D01*
X01525000Y02950000D01*
X01550000Y02975000D01*
X01550000Y03025000D01*
X01525000Y03050000D01*
X01475000Y03050000D01*
X01450000Y03025000D01*
X01450000Y02975000D01*
X01475000Y02950000D01*
X01450000Y02925000D01*
X01450000Y02875000D01*
X01475000Y02850000D01*
M02*
