G75*
%MOIN*%
%OFA0B0*%
%FSLAX26Y26*%
%IPPOS*%
%LPD*%
%AMOC8*
5,1,8,0,0,1.08239X$1,22.5*
%
%ADD10C,0.060000*%
%ADD11C,0.051496*%
%ADD12C,0.051496*%
%ADD13C,0.074000*%
%ADD14C,0.043559*%
%ADD15C,0.016000*%
%ADD16C,0.024000*%
%ADD17C,0.165984*%
%ADD18C,0.126614*%
D10*
X00670000Y01300000D02*
X00730000Y01300000D01*
X00730000Y01400000D02*
X00670000Y01400000D01*
X00670000Y01500000D02*
X00730000Y01500000D01*
X00730000Y01600000D02*
X00670000Y01600000D01*
X00670000Y01700000D02*
X00730000Y01700000D01*
X00730000Y01800000D02*
X00670000Y01800000D01*
X00670000Y01900000D02*
X00730000Y01900000D01*
X00730000Y02200000D02*
X00670000Y02200000D01*
X00670000Y02300000D02*
X00730000Y02300000D01*
X00730000Y02400000D02*
X00670000Y02400000D01*
X00670000Y02500000D02*
X00730000Y02500000D01*
X00730000Y02600000D02*
X00670000Y02600000D01*
X00670000Y02700000D02*
X00730000Y02700000D01*
X00730000Y02800000D02*
X00670000Y02800000D01*
X00670000Y02900000D02*
X00730000Y02900000D01*
X00730000Y03000000D02*
X00670000Y03000000D01*
X00130000Y02800000D02*
X00070000Y02800000D01*
X00070000Y02700000D02*
X00130000Y02700000D01*
X00130000Y02600000D02*
X00070000Y02600000D01*
X00070000Y02500000D02*
X00130000Y02500000D01*
X00130000Y02400000D02*
X00070000Y02400000D01*
D11*
X00974252Y02400000D02*
X01025748Y02400000D01*
X01025748Y02300000D02*
X00974252Y02300000D01*
X00974252Y02200000D02*
X01025748Y02200000D01*
X01025748Y02100000D02*
X00974252Y02100000D01*
X00974252Y02000000D02*
X01025748Y02000000D01*
X01025748Y01900000D02*
X00974252Y01900000D01*
X00974252Y01800000D02*
X01025748Y01800000D01*
X01025748Y01700000D02*
X00974252Y01700000D01*
X00974252Y01600000D02*
X01025748Y01600000D01*
X01574252Y01600000D02*
X01625748Y01600000D01*
X01625748Y01700000D02*
X01574252Y01700000D01*
X01574252Y01800000D02*
X01625748Y01800000D01*
X01625748Y01900000D02*
X01574252Y01900000D01*
X01574252Y02000000D02*
X01625748Y02000000D01*
X01625748Y02100000D02*
X01574252Y02100000D01*
X01574252Y02200000D02*
X01625748Y02200000D01*
X01625748Y02300000D02*
X01574252Y02300000D01*
X01574252Y02400000D02*
X01625748Y02400000D01*
X01625748Y02500000D02*
X01574252Y02500000D01*
X01574252Y02600000D02*
X01625748Y02600000D01*
X01625748Y02700000D02*
X01574252Y02700000D01*
X01574252Y02800000D02*
X01625748Y02800000D01*
X01625748Y02900000D02*
X01574252Y02900000D01*
X01574252Y03000000D02*
X01625748Y03000000D01*
X01025748Y03000000D02*
X00974252Y03000000D01*
X00974252Y02900000D02*
X01025748Y02900000D01*
X01025748Y02800000D02*
X00974252Y02800000D01*
X00974252Y02700000D02*
X01025748Y02700000D01*
X01025748Y02600000D02*
X00974252Y02600000D01*
X00974252Y02500000D02*
X01025748Y02500000D01*
D12*
X01200000Y02950000D03*
X01200000Y03050000D03*
X01300000Y03050000D03*
X01300000Y02950000D03*
X01400000Y02950000D03*
X01400000Y03050000D03*
D13*
X01500000Y03000000D03*
X01500000Y02900000D03*
X01400000Y02800000D03*
X01400000Y02700000D03*
X01400000Y02600000D03*
X01400000Y02500000D03*
X01400000Y02400000D03*
X01400000Y02300000D03*
X01400000Y02200000D03*
X01400000Y02100000D03*
X01300000Y02100000D03*
X01300000Y02200000D03*
X01300000Y02300000D03*
X01300000Y02400000D03*
X01300000Y02500000D03*
X01300000Y02600000D03*
X01300000Y02700000D03*
X01300000Y02800000D03*
X01500000Y02600000D03*
X01500000Y02500000D03*
X01500000Y02400000D03*
X01500000Y02300000D03*
X01500000Y02200000D03*
X01500000Y02100000D03*
X01500000Y02000000D03*
X01500000Y01900000D03*
X01500000Y01800000D03*
X01500000Y01700000D03*
X01500000Y01600000D03*
X01500000Y01500000D03*
X01400000Y01500000D03*
X01400000Y01600000D03*
X01400000Y01700000D03*
X01400000Y01800000D03*
X01400000Y01900000D03*
X01400000Y02000000D03*
X01300000Y02000000D03*
X01300000Y01900000D03*
X01300000Y01800000D03*
X01300000Y01700000D03*
X01300000Y01600000D03*
X01300000Y01500000D03*
X01100000Y01800000D03*
X01100000Y01900000D03*
X01100000Y02000000D03*
X01100000Y02100000D03*
X01100000Y02200000D03*
X01100000Y02300000D03*
X01100000Y02400000D03*
X01100000Y02500000D03*
X01100000Y02600000D03*
D14*
X00850000Y02600000D03*
X00800000Y02500000D03*
X00800000Y02400000D03*
X00850000Y02300000D03*
X00850000Y01800000D03*
X00800000Y01600000D03*
D15*
X00050000Y01250000D02*
X00050000Y02358494D01*
X00060850Y02354000D01*
X00139150Y02354000D01*
X00156057Y02361003D01*
X00168997Y02373943D01*
X00176000Y02390850D01*
X00176000Y02409150D01*
X00168997Y02426057D01*
X00156057Y02438997D01*
X00139150Y02446000D01*
X00060850Y02446000D01*
X00050000Y02441506D01*
X00050000Y02458494D01*
X00060850Y02454000D01*
X00139150Y02454000D01*
X00156057Y02461003D01*
X00168997Y02473943D01*
X00176000Y02490850D01*
X00176000Y02509150D01*
X00168997Y02526057D01*
X00156057Y02538997D01*
X00139150Y02546000D01*
X00060850Y02546000D01*
X00050000Y02541506D01*
X00050000Y02558494D01*
X00060850Y02554000D01*
X00139150Y02554000D01*
X00156057Y02561003D01*
X00168997Y02573943D01*
X00176000Y02590850D01*
X00176000Y02609150D01*
X00168997Y02626057D01*
X00156057Y02638997D01*
X00139150Y02646000D01*
X00060850Y02646000D01*
X00050000Y02641506D01*
X00050000Y02658494D01*
X00060850Y02654000D01*
X00139150Y02654000D01*
X00156057Y02661003D01*
X00168997Y02673943D01*
X00176000Y02690850D01*
X00176000Y02709150D01*
X00168997Y02726057D01*
X00156057Y02738997D01*
X00139150Y02746000D01*
X00060850Y02746000D01*
X00050000Y02741506D01*
X00050000Y02758494D01*
X00060850Y02754000D01*
X00139150Y02754000D01*
X00156057Y02761003D01*
X00168997Y02773943D01*
X00176000Y02790850D01*
X00176000Y02809150D01*
X00168997Y02826057D01*
X00156057Y02838997D01*
X00139150Y02846000D01*
X00060850Y02846000D01*
X00050000Y02841506D01*
X00050000Y03050000D01*
X00063562Y03050000D01*
X00051008Y03019691D01*
X00051008Y02980309D01*
X00066078Y02943925D01*
X00093925Y02916078D01*
X00130309Y02901008D01*
X00169691Y02901008D01*
X00206074Y02916078D01*
X00233921Y02943925D01*
X00248992Y02980309D01*
X00248992Y03019691D01*
X00236438Y03050000D01*
X00787843Y03050000D01*
X00782767Y03044924D01*
X00771974Y03018868D01*
X00768997Y03026057D01*
X00756057Y03038997D01*
X00739150Y03046000D01*
X00660850Y03046000D01*
X00643943Y03038997D01*
X00631003Y03026057D01*
X00624000Y03009150D01*
X00624000Y02990850D01*
X00631003Y02973943D01*
X00643943Y02961003D01*
X00660850Y02954000D01*
X00739150Y02954000D01*
X00756057Y02961003D01*
X00768997Y02973943D01*
X00771974Y02981132D01*
X00782767Y02955076D01*
X00805076Y02932767D01*
X00834225Y02920693D01*
X00865775Y02920693D01*
X00894924Y02932767D01*
X00917233Y02955076D01*
X00929307Y02984225D01*
X00929307Y03015775D01*
X00917233Y03044924D01*
X00912157Y03050000D01*
X01158252Y03050000D01*
X01158252Y03041696D01*
X01164608Y03026352D01*
X01176352Y03014608D01*
X01191696Y03008252D01*
X01208304Y03008252D01*
X01223648Y03014608D01*
X01235392Y03026352D01*
X01241748Y03041696D01*
X01241748Y03050000D01*
X01258252Y03050000D01*
X01258252Y03041696D01*
X01264608Y03026352D01*
X01276352Y03014608D01*
X01291696Y03008252D01*
X01308304Y03008252D01*
X01323648Y03014608D01*
X01335392Y03026352D01*
X01341748Y03041696D01*
X01341748Y03050000D01*
X01358252Y03050000D01*
X01358252Y03041696D01*
X01364608Y03026352D01*
X01376352Y03014608D01*
X01391696Y03008252D01*
X01408304Y03008252D01*
X01423648Y03014608D01*
X01435392Y03026352D01*
X01441748Y03041696D01*
X01441748Y03050000D01*
X01482215Y03050000D01*
X01469978Y03044931D01*
X01455069Y03030022D01*
X01447000Y03010542D01*
X01447000Y02989458D01*
X01455069Y02969978D01*
X01469978Y02955069D01*
X01482215Y02950000D01*
X01469978Y02944931D01*
X01455069Y02930022D01*
X01447000Y02910542D01*
X01447000Y02889458D01*
X01455069Y02869978D01*
X01469978Y02855069D01*
X01489458Y02847000D01*
X01510542Y02847000D01*
X01530022Y02855069D01*
X01544931Y02869978D01*
X01545020Y02870192D01*
X01550604Y02864608D01*
X01565948Y02858252D01*
X01634052Y02858252D01*
X01649396Y02864608D01*
X01650000Y02865211D01*
X01650000Y02834789D01*
X01649396Y02835392D01*
X01634052Y02841748D01*
X01565948Y02841748D01*
X01550604Y02835392D01*
X01538860Y02823648D01*
X01532504Y02808304D01*
X01532504Y02791696D01*
X01538860Y02776352D01*
X01550604Y02764608D01*
X01565948Y02758252D01*
X01634052Y02758252D01*
X01649396Y02764608D01*
X01650000Y02765211D01*
X01650000Y02734789D01*
X01649396Y02735392D01*
X01634052Y02741748D01*
X01565948Y02741748D01*
X01550604Y02735392D01*
X01538860Y02723648D01*
X01532504Y02708304D01*
X01532504Y02691696D01*
X01538860Y02676352D01*
X01550604Y02664608D01*
X01565948Y02658252D01*
X01634052Y02658252D01*
X01649396Y02664608D01*
X01650000Y02665211D01*
X01650000Y02634789D01*
X01649396Y02635392D01*
X01634052Y02641748D01*
X01565948Y02641748D01*
X01550604Y02635392D01*
X01545020Y02629808D01*
X01544931Y02630022D01*
X01530022Y02644931D01*
X01510542Y02653000D01*
X01489458Y02653000D01*
X01469978Y02644931D01*
X01455069Y02630022D01*
X01450000Y02617785D01*
X01444931Y02630022D01*
X01430022Y02644931D01*
X01417785Y02650000D01*
X01430022Y02655069D01*
X01444931Y02669978D01*
X01453000Y02689458D01*
X01453000Y02710542D01*
X01444931Y02730022D01*
X01430022Y02744931D01*
X01417785Y02750000D01*
X01430022Y02755069D01*
X01444931Y02769978D01*
X01453000Y02789458D01*
X01453000Y02810542D01*
X01444931Y02830022D01*
X01430022Y02844931D01*
X01410542Y02853000D01*
X01389458Y02853000D01*
X01369978Y02844931D01*
X01355069Y02830022D01*
X01351150Y02820560D01*
X01350970Y02821113D01*
X01347040Y02828826D01*
X01341952Y02835830D01*
X01335830Y02841952D01*
X01328826Y02847040D01*
X01321113Y02850970D01*
X01312879Y02853646D01*
X01304329Y02855000D01*
X01302000Y02855000D01*
X01302000Y02802001D01*
X01298000Y02802001D01*
X01298000Y02855000D01*
X01295671Y02855000D01*
X01287121Y02853646D01*
X01278887Y02850970D01*
X01271174Y02847040D01*
X01264170Y02841952D01*
X01258048Y02835830D01*
X01252960Y02828826D01*
X01249030Y02821113D01*
X01246354Y02812879D01*
X01245000Y02804329D01*
X01245000Y02802000D01*
X01297999Y02802000D01*
X01297999Y02798000D01*
X01245000Y02798000D01*
X01245000Y02795671D01*
X01246354Y02787121D01*
X01249030Y02778887D01*
X01252960Y02771174D01*
X01258048Y02764170D01*
X01264170Y02758048D01*
X01271174Y02752960D01*
X01276983Y02750000D01*
X01271174Y02747040D01*
X01264170Y02741952D01*
X01258048Y02735830D01*
X01252960Y02728826D01*
X01249030Y02721113D01*
X01246354Y02712879D01*
X01245000Y02704329D01*
X01245000Y02702000D01*
X01297999Y02702000D01*
X01297999Y02698000D01*
X01245000Y02698000D01*
X01245000Y02695671D01*
X01246354Y02687121D01*
X01249030Y02678887D01*
X01252960Y02671174D01*
X01258048Y02664170D01*
X01264170Y02658048D01*
X01271174Y02652960D01*
X01276983Y02650000D01*
X01271174Y02647040D01*
X01264170Y02641952D01*
X01258048Y02635830D01*
X01252960Y02628826D01*
X01249030Y02621113D01*
X01246354Y02612879D01*
X01245000Y02604329D01*
X01245000Y02602000D01*
X01297999Y02602000D01*
X01297999Y02598000D01*
X01245000Y02598000D01*
X01245000Y02595671D01*
X01246354Y02587121D01*
X01249030Y02578887D01*
X01252960Y02571174D01*
X01258048Y02564170D01*
X01264170Y02558048D01*
X01271174Y02552960D01*
X01276983Y02550000D01*
X01271174Y02547040D01*
X01264170Y02541952D01*
X01258048Y02535830D01*
X01252960Y02528826D01*
X01249030Y02521113D01*
X01246354Y02512879D01*
X01245000Y02504329D01*
X01245000Y02502000D01*
X01297999Y02502000D01*
X01297999Y02498000D01*
X01245000Y02498000D01*
X01245000Y02495671D01*
X01246354Y02487121D01*
X01249030Y02478887D01*
X01252960Y02471174D01*
X01258048Y02464170D01*
X01264170Y02458048D01*
X01271174Y02452960D01*
X01276983Y02450000D01*
X01271174Y02447040D01*
X01264170Y02441952D01*
X01258048Y02435830D01*
X01252960Y02428826D01*
X01249030Y02421113D01*
X01246354Y02412879D01*
X01245000Y02404329D01*
X01245000Y02402000D01*
X01297999Y02402000D01*
X01297999Y02398000D01*
X01245000Y02398000D01*
X01245000Y02395671D01*
X01246354Y02387121D01*
X01249030Y02378887D01*
X01252960Y02371174D01*
X01258048Y02364170D01*
X01264170Y02358048D01*
X01271174Y02352960D01*
X01276983Y02350000D01*
X01271174Y02347040D01*
X01264170Y02341952D01*
X01258048Y02335830D01*
X01252960Y02328826D01*
X01249030Y02321113D01*
X01246354Y02312879D01*
X01245000Y02304329D01*
X01245000Y02302000D01*
X01297999Y02302000D01*
X01297999Y02298000D01*
X01245000Y02298000D01*
X01245000Y02295671D01*
X01246354Y02287121D01*
X01249030Y02278887D01*
X01252960Y02271174D01*
X01258048Y02264170D01*
X01264170Y02258048D01*
X01271174Y02252960D01*
X01276983Y02250000D01*
X01271174Y02247040D01*
X01264170Y02241952D01*
X01258048Y02235830D01*
X01252960Y02228826D01*
X01249030Y02221113D01*
X01246354Y02212879D01*
X01245000Y02204329D01*
X01245000Y02202000D01*
X01297999Y02202000D01*
X01297999Y02198000D01*
X01245000Y02198000D01*
X01245000Y02195671D01*
X01246354Y02187121D01*
X01249030Y02178887D01*
X01252960Y02171174D01*
X01258048Y02164170D01*
X01264170Y02158048D01*
X01271174Y02152960D01*
X01276983Y02150000D01*
X01271174Y02147040D01*
X01264170Y02141952D01*
X01258048Y02135830D01*
X01252960Y02128826D01*
X01249030Y02121113D01*
X01246354Y02112879D01*
X01245000Y02104329D01*
X01245000Y02102000D01*
X01297999Y02102000D01*
X01297999Y02098000D01*
X01245000Y02098000D01*
X01245000Y02095671D01*
X01246354Y02087121D01*
X01249030Y02078887D01*
X01252960Y02071174D01*
X01258048Y02064170D01*
X01264170Y02058048D01*
X01271174Y02052960D01*
X01276983Y02050000D01*
X01271174Y02047040D01*
X01264170Y02041952D01*
X01258048Y02035830D01*
X01252960Y02028826D01*
X01249030Y02021113D01*
X01246354Y02012879D01*
X01245000Y02004329D01*
X01245000Y02002000D01*
X01297999Y02002000D01*
X01297999Y01998000D01*
X01245000Y01998000D01*
X01245000Y01995671D01*
X01246354Y01987121D01*
X01249030Y01978887D01*
X01252960Y01971174D01*
X01258048Y01964170D01*
X01264170Y01958048D01*
X01271174Y01952960D01*
X01276983Y01950000D01*
X01271174Y01947040D01*
X01264170Y01941952D01*
X01258048Y01935830D01*
X01252960Y01928826D01*
X01249030Y01921113D01*
X01246354Y01912879D01*
X01245000Y01904329D01*
X01245000Y01902000D01*
X01297999Y01902000D01*
X01297999Y01898000D01*
X01245000Y01898000D01*
X01245000Y01895671D01*
X01246354Y01887121D01*
X01249030Y01878887D01*
X01252960Y01871174D01*
X01258048Y01864170D01*
X01264170Y01858048D01*
X01271174Y01852960D01*
X01276983Y01850000D01*
X01271174Y01847040D01*
X01264170Y01841952D01*
X01258048Y01835830D01*
X01252960Y01828826D01*
X01249030Y01821113D01*
X01246354Y01812879D01*
X01245000Y01804329D01*
X01245000Y01802000D01*
X01297999Y01802000D01*
X01297999Y01798000D01*
X01245000Y01798000D01*
X01245000Y01795671D01*
X01246354Y01787121D01*
X01249030Y01778887D01*
X01252960Y01771174D01*
X01258048Y01764170D01*
X01264170Y01758048D01*
X01271174Y01752960D01*
X01276983Y01750000D01*
X01271174Y01747040D01*
X01264170Y01741952D01*
X01258048Y01735830D01*
X01252960Y01728826D01*
X01249030Y01721113D01*
X01246354Y01712879D01*
X01245000Y01704329D01*
X01245000Y01702000D01*
X01297999Y01702000D01*
X01297999Y01698000D01*
X01245000Y01698000D01*
X01245000Y01695671D01*
X01246354Y01687121D01*
X01249030Y01678887D01*
X01252960Y01671174D01*
X01258048Y01664170D01*
X01264170Y01658048D01*
X01271174Y01652960D01*
X01276983Y01650000D01*
X01271174Y01647040D01*
X01264170Y01641952D01*
X01258048Y01635830D01*
X01252960Y01628826D01*
X01249030Y01621113D01*
X01246354Y01612879D01*
X01245000Y01604329D01*
X01245000Y01602000D01*
X01297999Y01602000D01*
X01297999Y01598000D01*
X01245000Y01598000D01*
X01245000Y01595671D01*
X01246354Y01587121D01*
X01249030Y01578887D01*
X01252960Y01571174D01*
X01258048Y01564170D01*
X01264170Y01558048D01*
X01271174Y01552960D01*
X01276983Y01550000D01*
X01271174Y01547040D01*
X01264170Y01541952D01*
X01258048Y01535830D01*
X01252960Y01528826D01*
X01249030Y01521113D01*
X01246354Y01512879D01*
X01245000Y01504329D01*
X01245000Y01502000D01*
X01297999Y01502000D01*
X01297999Y01498000D01*
X01245000Y01498000D01*
X01245000Y01495671D01*
X01246354Y01487121D01*
X01249030Y01478887D01*
X01252960Y01471174D01*
X01258048Y01464170D01*
X01264170Y01458048D01*
X01271174Y01452960D01*
X01278887Y01449030D01*
X01287121Y01446354D01*
X01295671Y01445000D01*
X01298000Y01445000D01*
X01298000Y01497999D01*
X01302000Y01497999D01*
X01302000Y01445000D01*
X01304329Y01445000D01*
X01312879Y01446354D01*
X01321113Y01449030D01*
X01328826Y01452960D01*
X01335830Y01458048D01*
X01341952Y01464170D01*
X01347040Y01471174D01*
X01350970Y01478887D01*
X01351150Y01479439D01*
X01355069Y01469978D01*
X01369978Y01455069D01*
X01389458Y01447000D01*
X01410542Y01447000D01*
X01430022Y01455069D01*
X01444931Y01469978D01*
X01450000Y01482215D01*
X01455069Y01469978D01*
X01469978Y01455069D01*
X01489458Y01447000D01*
X01510542Y01447000D01*
X01530022Y01455069D01*
X01544931Y01469978D01*
X01553000Y01489458D01*
X01553000Y01510542D01*
X01544931Y01530022D01*
X01530022Y01544931D01*
X01517785Y01550000D01*
X01530022Y01555069D01*
X01544931Y01569978D01*
X01545020Y01570192D01*
X01550604Y01564608D01*
X01565948Y01558252D01*
X01634052Y01558252D01*
X01649396Y01564608D01*
X01650000Y01565211D01*
X01650000Y01436438D01*
X01619691Y01448992D01*
X01580309Y01448992D01*
X01543925Y01433921D01*
X01516078Y01406074D01*
X01501008Y01369691D01*
X01501008Y01330309D01*
X01516078Y01293925D01*
X01543925Y01266078D01*
X01580309Y01251008D01*
X01619691Y01251008D01*
X01650000Y01263562D01*
X01650000Y01250000D01*
X00050000Y01250000D01*
X00050000Y01263883D02*
X00099225Y01263883D01*
X00093925Y01266078D02*
X00130309Y01251008D01*
X00169691Y01251008D01*
X00206074Y01266078D01*
X00233921Y01293925D01*
X00248992Y01330309D01*
X00248992Y01369691D01*
X00233921Y01406074D01*
X00206074Y01433921D01*
X00169691Y01448992D01*
X00130309Y01448992D01*
X00093925Y01433921D01*
X00066078Y01406074D01*
X00051008Y01369691D01*
X00051008Y01330309D01*
X00066078Y01293925D01*
X00093925Y01266078D01*
X00080122Y01279882D02*
X00050000Y01279882D01*
X00050000Y01295880D02*
X00065269Y01295880D01*
X00058642Y01311879D02*
X00050000Y01311879D01*
X00050000Y01327877D02*
X00052015Y01327877D01*
X00051008Y01343876D02*
X00050000Y01343876D01*
X00050000Y01359875D02*
X00051008Y01359875D01*
X00050000Y01375873D02*
X00053569Y01375873D01*
X00050000Y01391872D02*
X00060195Y01391872D01*
X00067874Y01407870D02*
X00050000Y01407870D01*
X00050000Y01423869D02*
X00083873Y01423869D01*
X00108280Y01439867D02*
X00050000Y01439867D01*
X00050000Y01455866D02*
X00650889Y01455866D01*
X00651574Y01455517D02*
X00658760Y01453182D01*
X00666222Y01452000D01*
X00698000Y01452000D01*
X00698000Y01497999D01*
X00702000Y01497999D01*
X00702000Y01452000D01*
X00733778Y01452000D01*
X00741240Y01453182D01*
X00748426Y01455517D01*
X00755157Y01458947D01*
X00761270Y01463388D01*
X00766612Y01468730D01*
X00771053Y01474843D01*
X00774483Y01481574D01*
X00776818Y01488760D01*
X00778000Y01496222D01*
X00778000Y01498000D01*
X00702001Y01498000D01*
X00702001Y01502000D01*
X00778000Y01502000D01*
X00778000Y01503778D01*
X00776818Y01511240D01*
X00774483Y01518426D01*
X00771053Y01525157D01*
X00766612Y01531270D01*
X00761270Y01536612D01*
X00755157Y01541053D01*
X00748426Y01544483D01*
X00741240Y01546818D01*
X00733778Y01548000D01*
X00702000Y01548000D01*
X00702000Y01502001D01*
X00698000Y01502001D01*
X00698000Y01548000D01*
X00666222Y01548000D01*
X00658760Y01546818D01*
X00651574Y01544483D01*
X00644843Y01541053D01*
X00638730Y01536612D01*
X00633388Y01531270D01*
X00628947Y01525157D01*
X00625517Y01518426D01*
X00623182Y01511240D01*
X00622000Y01503778D01*
X00622000Y01502000D01*
X00697999Y01502000D01*
X00697999Y01498000D01*
X00622000Y01498000D01*
X00622000Y01496222D01*
X00623182Y01488760D01*
X00625517Y01481574D01*
X00628947Y01474843D01*
X00633388Y01468730D01*
X00638730Y01463388D01*
X00644843Y01458947D01*
X00651574Y01455517D01*
X00660850Y01446000D02*
X00643943Y01438997D01*
X00631003Y01426057D01*
X00624000Y01409150D01*
X00624000Y01390850D01*
X00631003Y01373943D01*
X00643943Y01361003D01*
X00660850Y01354000D01*
X00739150Y01354000D01*
X00756057Y01361003D01*
X00768997Y01373943D01*
X00776000Y01390850D01*
X00776000Y01409150D01*
X00768997Y01426057D01*
X00756057Y01438997D01*
X00739150Y01446000D01*
X00660850Y01446000D01*
X00646044Y01439867D02*
X00191720Y01439867D01*
X00216127Y01423869D02*
X00630097Y01423869D01*
X00624000Y01407870D02*
X00232126Y01407870D01*
X00239805Y01391872D02*
X00624000Y01391872D01*
X00630204Y01375873D02*
X00246431Y01375873D01*
X00248992Y01359875D02*
X00646668Y01359875D01*
X00655722Y01343876D02*
X00248992Y01343876D01*
X00247985Y01327877D02*
X00632824Y01327877D01*
X00631003Y01326057D02*
X00624000Y01309150D01*
X00624000Y01290850D01*
X00631003Y01273943D01*
X00643943Y01261003D01*
X00660850Y01254000D01*
X00739150Y01254000D01*
X00756057Y01261003D01*
X00768997Y01273943D01*
X00776000Y01290850D01*
X00776000Y01309150D01*
X00768997Y01326057D01*
X00756057Y01338997D01*
X00739150Y01346000D01*
X00660850Y01346000D01*
X00643943Y01338997D01*
X00631003Y01326057D01*
X00625130Y01311879D02*
X00241358Y01311879D01*
X00234731Y01295880D02*
X00624000Y01295880D01*
X00628543Y01279882D02*
X00219878Y01279882D01*
X00200775Y01263883D02*
X00641063Y01263883D01*
X00758937Y01263883D02*
X00849225Y01263883D01*
X00843925Y01266078D02*
X00880309Y01251008D01*
X00919691Y01251008D01*
X00956074Y01266078D01*
X00983921Y01293925D01*
X00998992Y01330309D01*
X00998992Y01369691D01*
X00983921Y01406074D01*
X00956074Y01433921D01*
X00919691Y01448992D01*
X00880309Y01448992D01*
X00843925Y01433921D01*
X00816078Y01406074D01*
X00801008Y01369691D01*
X00801008Y01330309D01*
X00816078Y01293925D01*
X00843925Y01266078D01*
X00830122Y01279882D02*
X00771457Y01279882D01*
X00776000Y01295880D02*
X00815269Y01295880D01*
X00808642Y01311879D02*
X00774870Y01311879D01*
X00767176Y01327877D02*
X00802015Y01327877D01*
X00801008Y01343876D02*
X00744278Y01343876D01*
X00753332Y01359875D02*
X00801008Y01359875D01*
X00803569Y01375873D02*
X00769796Y01375873D01*
X00776000Y01391872D02*
X00810195Y01391872D01*
X00817874Y01407870D02*
X00776000Y01407870D01*
X00769903Y01423869D02*
X00833873Y01423869D01*
X00858280Y01439867D02*
X00753956Y01439867D01*
X00749110Y01455866D02*
X01267174Y01455866D01*
X01252608Y01471864D02*
X00768889Y01471864D01*
X00776526Y01487863D02*
X01246237Y01487863D01*
X01245000Y01503861D02*
X00777987Y01503861D01*
X00773753Y01519860D02*
X01248623Y01519860D01*
X01258077Y01535858D02*
X00762024Y01535858D01*
X00756057Y01561003D02*
X00768997Y01573943D01*
X00769849Y01576000D01*
X00770572Y01576000D01*
X00778600Y01567972D01*
X00792485Y01562220D01*
X00807515Y01562220D01*
X00821400Y01567972D01*
X00832028Y01578600D01*
X00837779Y01592485D01*
X00837779Y01607515D01*
X00832028Y01621400D01*
X00821400Y01632028D01*
X00807515Y01637779D01*
X00792485Y01637779D01*
X00778600Y01632028D01*
X00770572Y01624000D01*
X00769849Y01624000D01*
X00768997Y01626057D01*
X00756057Y01638997D01*
X00739150Y01646000D01*
X00660850Y01646000D01*
X00643943Y01638997D01*
X00631003Y01626057D01*
X00624000Y01609150D01*
X00624000Y01590850D01*
X00631003Y01573943D01*
X00643943Y01561003D01*
X00660850Y01554000D01*
X00739150Y01554000D01*
X00756057Y01561003D01*
X00762909Y01567855D02*
X00778881Y01567855D01*
X00800000Y01600000D02*
X00700000Y01600000D01*
X00698000Y01535858D02*
X00702000Y01535858D01*
X00702000Y01519860D02*
X00698000Y01519860D01*
X00698000Y01503861D02*
X00702000Y01503861D01*
X00702000Y01487863D02*
X00698000Y01487863D01*
X00698000Y01471864D02*
X00702000Y01471864D01*
X00702000Y01455866D02*
X00698000Y01455866D01*
X00631111Y01471864D02*
X00050000Y01471864D01*
X00050000Y01487863D02*
X00623473Y01487863D01*
X00622013Y01503861D02*
X00050000Y01503861D01*
X00050000Y01519860D02*
X00626247Y01519860D01*
X00637976Y01535858D02*
X00050000Y01535858D01*
X00050000Y01551857D02*
X01273338Y01551857D01*
X01255371Y01567855D02*
X01052644Y01567855D01*
X01049396Y01564608D02*
X01061140Y01576352D01*
X01067496Y01591696D01*
X01067496Y01608304D01*
X01061140Y01623648D01*
X01049396Y01635392D01*
X01034052Y01641748D01*
X00965948Y01641748D01*
X00950604Y01635392D01*
X00938860Y01623648D01*
X00932504Y01608304D01*
X00932504Y01591696D01*
X00938860Y01576352D01*
X00950604Y01564608D01*
X00965948Y01558252D01*
X01034052Y01558252D01*
X01049396Y01564608D01*
X01064248Y01583854D02*
X01247416Y01583854D01*
X01247320Y01615851D02*
X01064370Y01615851D01*
X01067496Y01599852D02*
X01297999Y01599852D01*
X01298000Y01597999D02*
X01302000Y01597999D01*
X01302000Y01545000D01*
X01302000Y01502001D01*
X01298000Y01502001D01*
X01298000Y01597999D01*
X01298000Y01602001D02*
X01298000Y01697999D01*
X01302000Y01697999D01*
X01302000Y01645000D01*
X01302000Y01602001D01*
X01298000Y01602001D01*
X01298000Y01615851D02*
X01302000Y01615851D01*
X01302000Y01631849D02*
X01298000Y01631849D01*
X01298000Y01647848D02*
X01302000Y01647848D01*
X01302000Y01663846D02*
X01298000Y01663846D01*
X01298000Y01679845D02*
X01302000Y01679845D01*
X01302000Y01695844D02*
X01298000Y01695844D01*
X01298000Y01702001D02*
X01298000Y01797999D01*
X01302000Y01797999D01*
X01302000Y01745000D01*
X01302000Y01702001D01*
X01298000Y01702001D01*
X01298000Y01711842D02*
X01302000Y01711842D01*
X01302000Y01727841D02*
X01298000Y01727841D01*
X01298000Y01743839D02*
X01302000Y01743839D01*
X01302000Y01759838D02*
X01298000Y01759838D01*
X01298000Y01775836D02*
X01302000Y01775836D01*
X01302000Y01791835D02*
X01298000Y01791835D01*
X01298000Y01802001D02*
X01298000Y01897999D01*
X01302000Y01897999D01*
X01302000Y01845000D01*
X01302000Y01802001D01*
X01298000Y01802001D01*
X01298000Y01807833D02*
X01302000Y01807833D01*
X01302000Y01823832D02*
X01298000Y01823832D01*
X01298000Y01839830D02*
X01302000Y01839830D01*
X01302000Y01855829D02*
X01298000Y01855829D01*
X01298000Y01871827D02*
X01302000Y01871827D01*
X01302000Y01887826D02*
X01298000Y01887826D01*
X01298000Y01902001D02*
X01298000Y01997999D01*
X01302000Y01997999D01*
X01302000Y01945000D01*
X01302000Y01902001D01*
X01298000Y01902001D01*
X01298000Y01903824D02*
X01302000Y01903824D01*
X01302000Y01919823D02*
X01298000Y01919823D01*
X01298000Y01935821D02*
X01302000Y01935821D01*
X01302000Y01951820D02*
X01298000Y01951820D01*
X01298000Y01967818D02*
X01302000Y01967818D01*
X01302000Y01983817D02*
X01298000Y01983817D01*
X01297999Y01999815D02*
X01153000Y01999815D01*
X01153000Y01989458D02*
X01153000Y02010542D01*
X01144931Y02030022D01*
X01130022Y02044931D01*
X01117785Y02050000D01*
X01130022Y02055069D01*
X01144931Y02069978D01*
X01153000Y02089458D01*
X01153000Y02110542D01*
X01144931Y02130022D01*
X01130022Y02144931D01*
X01117785Y02150000D01*
X01130022Y02155069D01*
X01144931Y02169978D01*
X01153000Y02189458D01*
X01153000Y02210542D01*
X01144931Y02230022D01*
X01130022Y02244931D01*
X01117785Y02250000D01*
X01130022Y02255069D01*
X01144931Y02269978D01*
X01153000Y02289458D01*
X01153000Y02310542D01*
X01144931Y02330022D01*
X01130022Y02344931D01*
X01117785Y02350000D01*
X01130022Y02355069D01*
X01144931Y02369978D01*
X01153000Y02389458D01*
X01153000Y02410542D01*
X01144931Y02430022D01*
X01130022Y02444931D01*
X01117785Y02450000D01*
X01130022Y02455069D01*
X01144931Y02469978D01*
X01153000Y02489458D01*
X01153000Y02510542D01*
X01144931Y02530022D01*
X01130022Y02544931D01*
X01117785Y02550000D01*
X01130022Y02555069D01*
X01144931Y02569978D01*
X01153000Y02589458D01*
X01153000Y02610542D01*
X01144931Y02630022D01*
X01130022Y02644931D01*
X01110542Y02653000D01*
X01089458Y02653000D01*
X01069978Y02644931D01*
X01055069Y02630022D01*
X01054980Y02629808D01*
X01049396Y02635392D01*
X01034052Y02641748D01*
X00965948Y02641748D01*
X00950604Y02635392D01*
X00938860Y02623648D01*
X00932504Y02608304D01*
X00932504Y02591696D01*
X00938860Y02576352D01*
X00950604Y02564608D01*
X00965948Y02558252D01*
X01034052Y02558252D01*
X01049396Y02564608D01*
X01054980Y02570192D01*
X01055069Y02569978D01*
X01069978Y02555069D01*
X01082215Y02550000D01*
X01069978Y02544931D01*
X01055069Y02530022D01*
X01054980Y02529808D01*
X01049396Y02535392D01*
X01034052Y02541748D01*
X00965948Y02541748D01*
X00950604Y02535392D01*
X00938860Y02523648D01*
X00932504Y02508304D01*
X00932504Y02491696D01*
X00938860Y02476352D01*
X00950604Y02464608D01*
X00965948Y02458252D01*
X01034052Y02458252D01*
X01049396Y02464608D01*
X01054980Y02470192D01*
X01055069Y02469978D01*
X01069978Y02455069D01*
X01082215Y02450000D01*
X01069978Y02444931D01*
X01055069Y02430022D01*
X01054980Y02429808D01*
X01049396Y02435392D01*
X01034052Y02441748D01*
X00965948Y02441748D01*
X00950604Y02435392D01*
X00939211Y02424000D01*
X00829428Y02424000D01*
X00821400Y02432028D01*
X00807515Y02437779D01*
X00792485Y02437779D01*
X00778600Y02432028D01*
X00771281Y02424710D01*
X00771053Y02425157D01*
X00766612Y02431270D01*
X00761270Y02436612D01*
X00755157Y02441053D01*
X00748426Y02444483D01*
X00741240Y02446818D01*
X00733778Y02448000D01*
X00702000Y02448000D01*
X00702000Y02402001D01*
X00698000Y02402001D01*
X00698000Y02448000D01*
X00666222Y02448000D01*
X00658760Y02446818D01*
X00651574Y02444483D01*
X00644843Y02441053D01*
X00638730Y02436612D01*
X00633388Y02431270D01*
X00628947Y02425157D01*
X00625517Y02418426D01*
X00623182Y02411240D01*
X00622000Y02403778D01*
X00622000Y02402000D01*
X00697999Y02402000D01*
X00697999Y02398000D01*
X00622000Y02398000D01*
X00622000Y02396222D01*
X00623182Y02388760D01*
X00625517Y02381574D01*
X00628947Y02374843D01*
X00633388Y02368730D01*
X00638730Y02363388D01*
X00644843Y02358947D01*
X00651574Y02355517D01*
X00658760Y02353182D01*
X00666222Y02352000D01*
X00698000Y02352000D01*
X00698000Y02397999D01*
X00702000Y02397999D01*
X00702000Y02352000D01*
X00733778Y02352000D01*
X00741240Y02353182D01*
X00748426Y02355517D01*
X00755157Y02358947D01*
X00761270Y02363388D01*
X00766612Y02368730D01*
X00771053Y02374843D01*
X00771281Y02375290D01*
X00778600Y02367972D01*
X00792485Y02362220D01*
X00807515Y02362220D01*
X00821400Y02367972D01*
X00829428Y02376000D01*
X00939211Y02376000D01*
X00950604Y02364608D01*
X00965948Y02358252D01*
X01034052Y02358252D01*
X01049396Y02364608D01*
X01054980Y02370192D01*
X01055069Y02369978D01*
X01069978Y02355069D01*
X01082215Y02350000D01*
X01069978Y02344931D01*
X01055069Y02330022D01*
X01054980Y02329808D01*
X01049396Y02335392D01*
X01034052Y02341748D01*
X00965948Y02341748D01*
X00950604Y02335392D01*
X00939211Y02324000D01*
X00879428Y02324000D01*
X00871400Y02332028D01*
X00857515Y02337779D01*
X00842485Y02337779D01*
X00828600Y02332028D01*
X00817972Y02321400D01*
X00812220Y02307515D01*
X00812220Y02292485D01*
X00817972Y02278600D01*
X00828600Y02267972D01*
X00842485Y02262220D01*
X00857515Y02262220D01*
X00871400Y02267972D01*
X00879428Y02276000D01*
X00939211Y02276000D01*
X00950604Y02264608D01*
X00965948Y02258252D01*
X01034052Y02258252D01*
X01049396Y02264608D01*
X01054980Y02270192D01*
X01055069Y02269978D01*
X01069978Y02255069D01*
X01082215Y02250000D01*
X01069978Y02244931D01*
X01055069Y02230022D01*
X01054980Y02229808D01*
X01049396Y02235392D01*
X01034052Y02241748D01*
X00965948Y02241748D01*
X00950604Y02235392D01*
X00938860Y02223648D01*
X00932504Y02208304D01*
X00932504Y02191696D01*
X00938860Y02176352D01*
X00950604Y02164608D01*
X00965948Y02158252D01*
X01034052Y02158252D01*
X01049396Y02164608D01*
X01054980Y02170192D01*
X01055069Y02169978D01*
X01069978Y02155069D01*
X01082215Y02150000D01*
X01069978Y02144931D01*
X01055069Y02130022D01*
X01054980Y02129808D01*
X01049396Y02135392D01*
X01034052Y02141748D01*
X00965948Y02141748D01*
X00950604Y02135392D01*
X00938860Y02123648D01*
X00932504Y02108304D01*
X00932504Y02091696D01*
X00938860Y02076352D01*
X00950604Y02064608D01*
X00965948Y02058252D01*
X01034052Y02058252D01*
X01049396Y02064608D01*
X01054980Y02070192D01*
X01055069Y02069978D01*
X01069978Y02055069D01*
X01082215Y02050000D01*
X01069978Y02044931D01*
X01055069Y02030022D01*
X01054980Y02029808D01*
X01049396Y02035392D01*
X01034052Y02041748D01*
X00965948Y02041748D01*
X00950604Y02035392D01*
X00938860Y02023648D01*
X00932504Y02008304D01*
X00932504Y01991696D01*
X00938860Y01976352D01*
X00950604Y01964608D01*
X00965948Y01958252D01*
X01034052Y01958252D01*
X01049396Y01964608D01*
X01054980Y01970192D01*
X01055069Y01969978D01*
X01069978Y01955069D01*
X01082215Y01950000D01*
X01069978Y01944931D01*
X01055069Y01930022D01*
X01054980Y01929808D01*
X01049396Y01935392D01*
X01034052Y01941748D01*
X00965948Y01941748D01*
X00950604Y01935392D01*
X00938860Y01923648D01*
X00932504Y01908304D01*
X00932504Y01891696D01*
X00938860Y01876352D01*
X00950604Y01864608D01*
X00965948Y01858252D01*
X01034052Y01858252D01*
X01049396Y01864608D01*
X01054980Y01870192D01*
X01055069Y01869978D01*
X01069978Y01855069D01*
X01082215Y01850000D01*
X01069978Y01844931D01*
X01055069Y01830022D01*
X01054980Y01829808D01*
X01049396Y01835392D01*
X01034052Y01841748D01*
X00965948Y01841748D01*
X00950604Y01835392D01*
X00938860Y01823648D01*
X00932504Y01808304D01*
X00932504Y01791696D01*
X00938860Y01776352D01*
X00950604Y01764608D01*
X00965948Y01758252D01*
X01018654Y01758252D01*
X01002150Y01741748D01*
X00965948Y01741748D01*
X00950604Y01735392D01*
X00938860Y01723648D01*
X00932504Y01708304D01*
X00932504Y01691696D01*
X00938860Y01676352D01*
X00950604Y01664608D01*
X00965948Y01658252D01*
X01034052Y01658252D01*
X01049396Y01664608D01*
X01061140Y01676352D01*
X01067496Y01691696D01*
X01067496Y01708304D01*
X01061757Y01722159D01*
X01087436Y01747838D01*
X01089458Y01747000D01*
X01110542Y01747000D01*
X01130022Y01755069D01*
X01144931Y01769978D01*
X01153000Y01789458D01*
X01153000Y01810542D01*
X01144931Y01830022D01*
X01130022Y01844931D01*
X01117785Y01850000D01*
X01130022Y01855069D01*
X01144931Y01869978D01*
X01153000Y01889458D01*
X01153000Y01910542D01*
X01144931Y01930022D01*
X01130022Y01944931D01*
X01117785Y01950000D01*
X01130022Y01955069D01*
X01144931Y01969978D01*
X01153000Y01989458D01*
X01150663Y01983817D02*
X01247428Y01983817D01*
X01255397Y01967818D02*
X01142772Y01967818D01*
X01122178Y01951820D02*
X01273411Y01951820D01*
X01258042Y01935821D02*
X01139132Y01935821D01*
X01149156Y01919823D02*
X01248610Y01919823D01*
X01245000Y01903824D02*
X01153000Y01903824D01*
X01152324Y01887826D02*
X01246243Y01887826D01*
X01252627Y01871827D02*
X01145697Y01871827D01*
X01130782Y01855829D02*
X01267225Y01855829D01*
X01262049Y01839830D02*
X01135123Y01839830D01*
X01147495Y01823832D02*
X01250415Y01823832D01*
X01245555Y01807833D02*
X01153000Y01807833D01*
X01153000Y01791835D02*
X01245608Y01791835D01*
X01250584Y01775836D02*
X01147358Y01775836D01*
X01134791Y01759838D02*
X01262381Y01759838D01*
X01266768Y01743839D02*
X01083437Y01743839D01*
X01067438Y01727841D02*
X01252458Y01727841D01*
X01246190Y01711842D02*
X01066031Y01711842D01*
X01067496Y01695844D02*
X01245000Y01695844D01*
X01248718Y01679845D02*
X01062587Y01679845D01*
X01047559Y01663846D02*
X01258372Y01663846D01*
X01272759Y01647848D02*
X00050000Y01647848D01*
X00050000Y01663846D02*
X00641100Y01663846D01*
X00643943Y01661003D02*
X00660850Y01654000D01*
X00739150Y01654000D01*
X00756057Y01661003D01*
X00768997Y01673943D01*
X00776000Y01690850D01*
X00776000Y01709150D01*
X00768997Y01726057D01*
X00756057Y01738997D01*
X00739150Y01746000D01*
X00660850Y01746000D01*
X00643943Y01738997D01*
X00631003Y01726057D01*
X00624000Y01709150D01*
X00624000Y01690850D01*
X00631003Y01673943D01*
X00643943Y01661003D01*
X00628558Y01679845D02*
X00050000Y01679845D01*
X00050000Y01695844D02*
X00624000Y01695844D01*
X00625115Y01711842D02*
X00050000Y01711842D01*
X00050000Y01727841D02*
X00632787Y01727841D01*
X00646757Y01759838D02*
X00050000Y01759838D01*
X00050000Y01775836D02*
X00630219Y01775836D01*
X00631003Y01773943D02*
X00643943Y01761003D01*
X00660850Y01754000D01*
X00739150Y01754000D01*
X00756057Y01761003D01*
X00768997Y01773943D01*
X00769849Y01776000D01*
X00820572Y01776000D01*
X00828600Y01767972D01*
X00842485Y01762220D01*
X00857515Y01762220D01*
X00871400Y01767972D01*
X00882028Y01778600D01*
X00887779Y01792485D01*
X00887779Y01807515D01*
X00882028Y01821400D01*
X00871400Y01832028D01*
X00857515Y01837779D01*
X00842485Y01837779D01*
X00828600Y01832028D01*
X00820572Y01824000D01*
X00769849Y01824000D01*
X00768997Y01826057D01*
X00756057Y01838997D01*
X00739150Y01846000D01*
X00660850Y01846000D01*
X00643943Y01838997D01*
X00631003Y01826057D01*
X00624000Y01809150D01*
X00624000Y01790850D01*
X00631003Y01773943D01*
X00624000Y01791835D02*
X00050000Y01791835D01*
X00050000Y01807833D02*
X00624000Y01807833D01*
X00630081Y01823832D02*
X00050000Y01823832D01*
X00050000Y01839830D02*
X00645955Y01839830D01*
X00656435Y01855829D02*
X00050000Y01855829D01*
X00050000Y01871827D02*
X00633119Y01871827D01*
X00631003Y01873943D02*
X00643943Y01861003D01*
X00660850Y01854000D01*
X00739150Y01854000D01*
X00756057Y01861003D01*
X00768997Y01873943D01*
X00776000Y01890850D01*
X00776000Y01909150D01*
X00768997Y01926057D01*
X00756057Y01938997D01*
X00739150Y01946000D01*
X00660850Y01946000D01*
X00643943Y01938997D01*
X00631003Y01926057D01*
X00624000Y01909150D01*
X00624000Y01890850D01*
X00631003Y01873943D01*
X00625253Y01887826D02*
X00050000Y01887826D01*
X00050000Y01903824D02*
X00624000Y01903824D01*
X00628421Y01919823D02*
X00050000Y01919823D01*
X00050000Y01935821D02*
X00640768Y01935821D01*
X00759232Y01935821D02*
X00951640Y01935821D01*
X00937275Y01919823D02*
X00771579Y01919823D01*
X00776000Y01903824D02*
X00932504Y01903824D01*
X00934107Y01887826D02*
X00774747Y01887826D01*
X00766881Y01871827D02*
X00943384Y01871827D01*
X00961318Y01839830D02*
X00754045Y01839830D01*
X00743565Y01855829D02*
X01069218Y01855829D01*
X01064877Y01839830D02*
X01038682Y01839830D01*
X01004241Y01743839D02*
X00744367Y01743839D01*
X00753243Y01759838D02*
X00962120Y01759838D01*
X00943052Y01727841D02*
X00767213Y01727841D01*
X00774885Y01711842D02*
X00933969Y01711842D01*
X00932504Y01695844D02*
X00776000Y01695844D01*
X00771441Y01679845D02*
X00937413Y01679845D01*
X00952441Y01663846D02*
X00758900Y01663846D01*
X00763204Y01631849D02*
X00778421Y01631849D01*
X00821579Y01631849D02*
X00947061Y01631849D01*
X00935630Y01615851D02*
X00834327Y01615851D01*
X00837779Y01599852D02*
X00932504Y01599852D01*
X00935752Y01583854D02*
X00834204Y01583854D01*
X00821118Y01567855D02*
X00947356Y01567855D01*
X01052939Y01631849D02*
X01255156Y01631849D01*
X01298000Y01583854D02*
X01302000Y01583854D01*
X01302000Y01567855D02*
X01298000Y01567855D01*
X01298000Y01551857D02*
X01302000Y01551857D01*
X01302000Y01535858D02*
X01298000Y01535858D01*
X01298000Y01519860D02*
X01302000Y01519860D01*
X01302000Y01503861D02*
X01298000Y01503861D01*
X01298000Y01487863D02*
X01302000Y01487863D01*
X01302000Y01471864D02*
X01298000Y01471864D01*
X01298000Y01455866D02*
X01302000Y01455866D01*
X01332826Y01455866D02*
X01369181Y01455866D01*
X01354287Y01471864D02*
X01347392Y01471864D01*
X01430819Y01455866D02*
X01469181Y01455866D01*
X01454287Y01471864D02*
X01445712Y01471864D01*
X01530819Y01455866D02*
X01650000Y01455866D01*
X01650000Y01471864D02*
X01545712Y01471864D01*
X01552339Y01487863D02*
X01650000Y01487863D01*
X01650000Y01503861D02*
X01553000Y01503861D01*
X01549141Y01519860D02*
X01650000Y01519860D01*
X01650000Y01535858D02*
X01539095Y01535858D01*
X01522267Y01551857D02*
X01650000Y01551857D01*
X01547356Y01567855D02*
X01542809Y01567855D01*
X01558280Y01439867D02*
X00941720Y01439867D01*
X00966127Y01423869D02*
X01533873Y01423869D01*
X01517874Y01407870D02*
X00982126Y01407870D01*
X00989805Y01391872D02*
X01510195Y01391872D01*
X01503569Y01375873D02*
X00996431Y01375873D01*
X00998992Y01359875D02*
X01501008Y01359875D01*
X01501008Y01343876D02*
X00998992Y01343876D01*
X00997985Y01327877D02*
X01502015Y01327877D01*
X01508642Y01311879D02*
X00991358Y01311879D01*
X00984731Y01295880D02*
X01515269Y01295880D01*
X01530122Y01279882D02*
X00969878Y01279882D01*
X00950775Y01263883D02*
X01549225Y01263883D01*
X01641720Y01439867D02*
X01650000Y01439867D01*
X01302000Y02002001D02*
X01298000Y02002001D01*
X01298000Y02097999D01*
X01302000Y02097999D01*
X01302000Y02045000D01*
X01302000Y02002001D01*
X01302000Y02015814D02*
X01298000Y02015814D01*
X01298000Y02031813D02*
X01302000Y02031813D01*
X01302000Y02047811D02*
X01298000Y02047811D01*
X01298000Y02063810D02*
X01302000Y02063810D01*
X01302000Y02079808D02*
X01298000Y02079808D01*
X01298000Y02095807D02*
X01302000Y02095807D01*
X01302000Y02102001D02*
X01298000Y02102001D01*
X01298000Y02197999D01*
X01302000Y02197999D01*
X01302000Y02145000D01*
X01302000Y02102001D01*
X01302000Y02111805D02*
X01298000Y02111805D01*
X01298000Y02127804D02*
X01302000Y02127804D01*
X01302000Y02143802D02*
X01298000Y02143802D01*
X01298000Y02159801D02*
X01302000Y02159801D01*
X01302000Y02175799D02*
X01298000Y02175799D01*
X01298000Y02191798D02*
X01302000Y02191798D01*
X01302000Y02202001D02*
X01298000Y02202001D01*
X01298000Y02297999D01*
X01302000Y02297999D01*
X01302000Y02245000D01*
X01302000Y02202001D01*
X01302000Y02207796D02*
X01298000Y02207796D01*
X01298000Y02223795D02*
X01302000Y02223795D01*
X01302000Y02239793D02*
X01298000Y02239793D01*
X01298000Y02255792D02*
X01302000Y02255792D01*
X01302000Y02271790D02*
X01298000Y02271790D01*
X01298000Y02287789D02*
X01302000Y02287789D01*
X01302000Y02302001D02*
X01298000Y02302001D01*
X01298000Y02397999D01*
X01302000Y02397999D01*
X01302000Y02355000D01*
X01302000Y02302001D01*
X01302000Y02303787D02*
X01298000Y02303787D01*
X01298000Y02319786D02*
X01302000Y02319786D01*
X01302000Y02335784D02*
X01298000Y02335784D01*
X01298000Y02351783D02*
X01302000Y02351783D01*
X01302000Y02367781D02*
X01298000Y02367781D01*
X01298000Y02383780D02*
X01302000Y02383780D01*
X01297999Y02399779D02*
X01153000Y02399779D01*
X01150832Y02415777D02*
X01247296Y02415777D01*
X01255103Y02431776D02*
X01143178Y02431776D01*
X01123158Y02447774D02*
X01272614Y02447774D01*
X01258446Y02463773D02*
X01138726Y02463773D01*
X01148988Y02479771D02*
X01248742Y02479771D01*
X01245000Y02495770D02*
X01153000Y02495770D01*
X01152492Y02511768D02*
X01246178Y02511768D01*
X01252420Y02527767D02*
X01145865Y02527767D01*
X01131188Y02543765D02*
X01266666Y02543765D01*
X01262454Y02559764D02*
X01134717Y02559764D01*
X01147327Y02575762D02*
X01250622Y02575762D01*
X01245619Y02591761D02*
X01153000Y02591761D01*
X01153000Y02607759D02*
X01245543Y02607759D01*
X01250377Y02623758D02*
X01147526Y02623758D01*
X01135197Y02639756D02*
X01261975Y02639756D01*
X01267326Y02655755D02*
X00743387Y02655755D01*
X00739150Y02654000D02*
X00756057Y02661003D01*
X00768997Y02673943D01*
X00776000Y02690850D01*
X00776000Y02709150D01*
X00768997Y02726057D01*
X00756057Y02738997D01*
X00739150Y02746000D01*
X00660850Y02746000D01*
X00643943Y02738997D01*
X00631003Y02726057D01*
X00624000Y02709150D01*
X00624000Y02690850D01*
X00631003Y02673943D01*
X00643943Y02661003D01*
X00660850Y02654000D01*
X00739150Y02654000D01*
X00739150Y02646000D02*
X00660850Y02646000D01*
X00643943Y02638997D01*
X00631003Y02626057D01*
X00624000Y02609150D01*
X00624000Y02590850D01*
X00631003Y02573943D01*
X00643943Y02561003D01*
X00660850Y02554000D01*
X00739150Y02554000D01*
X00756057Y02561003D01*
X00768997Y02573943D01*
X00769849Y02576000D01*
X00820572Y02576000D01*
X00828600Y02567972D01*
X00842485Y02562220D01*
X00857515Y02562220D01*
X00871400Y02567972D01*
X00882028Y02578600D01*
X00887779Y02592485D01*
X00887779Y02607515D01*
X00882028Y02621400D01*
X00871400Y02632028D01*
X00857515Y02637779D01*
X00842485Y02637779D01*
X00828600Y02632028D01*
X00820572Y02624000D01*
X00769849Y02624000D01*
X00768997Y02626057D01*
X00756057Y02638997D01*
X00739150Y02646000D01*
X00754223Y02639756D02*
X00961140Y02639756D01*
X00965948Y02658252D02*
X00950604Y02664608D01*
X00938860Y02676352D01*
X00932504Y02691696D01*
X00932504Y02708304D01*
X00938860Y02723648D01*
X00950604Y02735392D01*
X00965948Y02741748D01*
X01034052Y02741748D01*
X01049396Y02735392D01*
X01061140Y02723648D01*
X01067496Y02708304D01*
X01067496Y02691696D01*
X01061140Y02676352D01*
X01049396Y02664608D01*
X01034052Y02658252D01*
X00965948Y02658252D01*
X00943458Y02671753D02*
X00766807Y02671753D01*
X00774717Y02687752D02*
X00934137Y02687752D01*
X00932504Y02703750D02*
X00776000Y02703750D01*
X00771610Y02719749D02*
X00937245Y02719749D01*
X00951461Y02735748D02*
X00759306Y02735748D01*
X00756057Y02761003D02*
X00739150Y02754000D01*
X00660850Y02754000D01*
X00643943Y02761003D01*
X00631003Y02773943D01*
X00624000Y02790850D01*
X00624000Y02809150D01*
X00631003Y02826057D01*
X00643943Y02838997D01*
X00660850Y02846000D01*
X00739150Y02846000D01*
X00756057Y02838997D01*
X00768997Y02826057D01*
X00776000Y02809150D01*
X00776000Y02790850D01*
X00768997Y02773943D01*
X00756057Y02761003D01*
X00762798Y02767745D02*
X00947467Y02767745D01*
X00950604Y02764608D02*
X00965948Y02758252D01*
X01034052Y02758252D01*
X01049396Y02764608D01*
X01061140Y02776352D01*
X01067496Y02791696D01*
X01067496Y02808304D01*
X01061140Y02823648D01*
X01049396Y02835392D01*
X01034052Y02841748D01*
X00965948Y02841748D01*
X00950604Y02835392D01*
X00938860Y02823648D01*
X00932504Y02808304D01*
X00932504Y02791696D01*
X00938860Y02776352D01*
X00950604Y02764608D01*
X00935798Y02783743D02*
X00773056Y02783743D01*
X00776000Y02799742D02*
X00932504Y02799742D01*
X00935584Y02815740D02*
X00773270Y02815740D01*
X00763315Y02831739D02*
X00946950Y02831739D01*
X00957459Y02859457D02*
X00964008Y02857329D01*
X00970809Y02856252D01*
X00999999Y02856252D01*
X00999999Y02899999D01*
X01000000Y02899999D01*
X01000000Y02856252D01*
X01029191Y02856252D01*
X01035992Y02857329D01*
X01042541Y02859457D01*
X01048677Y02862583D01*
X01054248Y02866631D01*
X01059117Y02871500D01*
X01063165Y02877071D01*
X01066291Y02883207D01*
X01068419Y02889756D01*
X01069496Y02896557D01*
X01069496Y02899999D01*
X01000001Y02899999D01*
X01000001Y02900000D01*
X01069496Y02900000D01*
X01069496Y02903443D01*
X01068419Y02910244D01*
X01066291Y02916793D01*
X01063165Y02922929D01*
X01059117Y02928500D01*
X01054248Y02933369D01*
X01048677Y02937417D01*
X01042541Y02940543D01*
X01035992Y02942671D01*
X01029191Y02943748D01*
X01000000Y02943748D01*
X01000000Y02900001D01*
X00999999Y02900001D01*
X00999999Y02943748D01*
X00970809Y02943748D01*
X00964008Y02942671D01*
X00957459Y02940543D01*
X00951323Y02937417D01*
X00945752Y02933369D01*
X00940883Y02928500D01*
X00936835Y02922929D01*
X00933709Y02916793D01*
X00931581Y02910244D01*
X00930504Y02903443D01*
X00930504Y02900000D01*
X00999999Y02900000D01*
X00999999Y02899999D01*
X00930504Y02899999D01*
X00930504Y02896557D01*
X00931581Y02889756D01*
X00933709Y02883207D01*
X00936835Y02877071D01*
X00940883Y02871500D01*
X00945752Y02866631D01*
X00951323Y02862583D01*
X00957459Y02859457D01*
X00949737Y02863736D02*
X00758789Y02863736D01*
X00756057Y02861003D02*
X00768997Y02873943D01*
X00776000Y02890850D01*
X00776000Y02909150D01*
X00768997Y02926057D01*
X00756057Y02938997D01*
X00739150Y02946000D01*
X00660850Y02946000D01*
X00643943Y02938997D01*
X00631003Y02926057D01*
X00624000Y02909150D01*
X00624000Y02890850D01*
X00631003Y02873943D01*
X00643943Y02861003D01*
X00660850Y02854000D01*
X00739150Y02854000D01*
X00756057Y02861003D01*
X00771396Y02879734D02*
X00935478Y02879734D01*
X00930634Y02895733D02*
X00776000Y02895733D01*
X00774931Y02911731D02*
X00932064Y02911731D01*
X00940323Y02927730D02*
X00882764Y02927730D01*
X00905885Y02943728D02*
X00970685Y02943728D01*
X00965948Y02958252D02*
X00950604Y02964608D01*
X00938860Y02976352D01*
X00932504Y02991696D01*
X00932504Y03008304D01*
X00938860Y03023648D01*
X00950604Y03035392D01*
X00965948Y03041748D01*
X01034052Y03041748D01*
X01049396Y03035392D01*
X01061140Y03023648D01*
X01067496Y03008304D01*
X01067496Y02991696D01*
X01061140Y02976352D01*
X01049396Y02964608D01*
X01034052Y02958252D01*
X00965948Y02958252D01*
X00962387Y02959727D02*
X00919160Y02959727D01*
X00925786Y02975725D02*
X00939486Y02975725D01*
X00932504Y02991724D02*
X00929307Y02991724D01*
X00929307Y03007722D02*
X00932504Y03007722D01*
X00938932Y03023721D02*
X00926016Y03023721D01*
X00919389Y03039719D02*
X00961051Y03039719D01*
X01038949Y03039719D02*
X01159070Y03039719D01*
X01167238Y03023721D02*
X01061068Y03023721D01*
X01067496Y03007722D02*
X01447000Y03007722D01*
X01447000Y02991724D02*
X01408362Y02991724D01*
X01408304Y02991748D02*
X01391696Y02991748D01*
X01376352Y02985392D01*
X01364608Y02973648D01*
X01358252Y02958304D01*
X01358252Y02941696D01*
X01364608Y02926352D01*
X01376352Y02914608D01*
X01391696Y02908252D01*
X01408304Y02908252D01*
X01423648Y02914608D01*
X01435392Y02926352D01*
X01441748Y02941696D01*
X01441748Y02958304D01*
X01435392Y02973648D01*
X01423648Y02985392D01*
X01408304Y02991748D01*
X01391638Y02991724D02*
X01308362Y02991724D01*
X01308304Y02991748D02*
X01291696Y02991748D01*
X01276352Y02985392D01*
X01264608Y02973648D01*
X01258252Y02958304D01*
X01258252Y02941696D01*
X01264608Y02926352D01*
X01276352Y02914608D01*
X01291696Y02908252D01*
X01308304Y02908252D01*
X01323648Y02914608D01*
X01335392Y02926352D01*
X01341748Y02941696D01*
X01341748Y02958304D01*
X01335392Y02973648D01*
X01323648Y02985392D01*
X01308304Y02991748D01*
X01291638Y02991724D02*
X01208362Y02991724D01*
X01208304Y02991748D02*
X01191696Y02991748D01*
X01176352Y02985392D01*
X01164608Y02973648D01*
X01158252Y02958304D01*
X01158252Y02941696D01*
X01164608Y02926352D01*
X01176352Y02914608D01*
X01191696Y02908252D01*
X01208304Y02908252D01*
X01223648Y02914608D01*
X01235392Y02926352D01*
X01241748Y02941696D01*
X01241748Y02958304D01*
X01235392Y02973648D01*
X01223648Y02985392D01*
X01208304Y02991748D01*
X01191638Y02991724D02*
X01067496Y02991724D01*
X01060514Y02975725D02*
X01166685Y02975725D01*
X01158841Y02959727D02*
X01037613Y02959727D01*
X01029315Y02943728D02*
X01158252Y02943728D01*
X01164037Y02927730D02*
X01059677Y02927730D01*
X01067936Y02911731D02*
X01183296Y02911731D01*
X01216704Y02911731D02*
X01283296Y02911731D01*
X01264037Y02927730D02*
X01235963Y02927730D01*
X01241748Y02943728D02*
X01258252Y02943728D01*
X01258841Y02959727D02*
X01241159Y02959727D01*
X01233315Y02975725D02*
X01266685Y02975725D01*
X01267238Y03023721D02*
X01232762Y03023721D01*
X01240929Y03039719D02*
X01259070Y03039719D01*
X01332762Y03023721D02*
X01367238Y03023721D01*
X01359070Y03039719D02*
X01340929Y03039719D01*
X01333315Y02975725D02*
X01366685Y02975725D01*
X01358841Y02959727D02*
X01341159Y02959727D01*
X01341748Y02943728D02*
X01358252Y02943728D01*
X01364037Y02927730D02*
X01335963Y02927730D01*
X01316704Y02911731D02*
X01383296Y02911731D01*
X01416704Y02911731D02*
X01447492Y02911731D01*
X01447000Y02895733D02*
X01069365Y02895733D01*
X01064522Y02879734D02*
X01451027Y02879734D01*
X01461311Y02863736D02*
X01050263Y02863736D01*
X01053050Y02831739D02*
X01255076Y02831739D01*
X01247284Y02815740D02*
X01064416Y02815740D01*
X01067496Y02799742D02*
X01297999Y02799742D01*
X01298000Y02797999D02*
X01302000Y02797999D01*
X01302000Y02745000D01*
X01302000Y02702001D01*
X01298000Y02702001D01*
X01298000Y02797999D01*
X01298000Y02783743D02*
X01302000Y02783743D01*
X01302000Y02767745D02*
X01298000Y02767745D01*
X01298000Y02751746D02*
X01302000Y02751746D01*
X01302000Y02735748D02*
X01298000Y02735748D01*
X01298000Y02719749D02*
X01302000Y02719749D01*
X01302000Y02703750D02*
X01298000Y02703750D01*
X01298000Y02697999D02*
X01302000Y02697999D01*
X01302000Y02645000D01*
X01302000Y02602001D01*
X01298000Y02602001D01*
X01298000Y02697999D01*
X01298000Y02687752D02*
X01302000Y02687752D01*
X01302000Y02671753D02*
X01298000Y02671753D01*
X01298000Y02655755D02*
X01302000Y02655755D01*
X01302000Y02639756D02*
X01298000Y02639756D01*
X01298000Y02623758D02*
X01302000Y02623758D01*
X01302000Y02607759D02*
X01298000Y02607759D01*
X01298000Y02597999D02*
X01302000Y02597999D01*
X01302000Y02545000D01*
X01302000Y02502001D01*
X01298000Y02502001D01*
X01298000Y02597999D01*
X01298000Y02591761D02*
X01302000Y02591761D01*
X01302000Y02575762D02*
X01298000Y02575762D01*
X01298000Y02559764D02*
X01302000Y02559764D01*
X01302000Y02543765D02*
X01298000Y02543765D01*
X01298000Y02527767D02*
X01302000Y02527767D01*
X01302000Y02511768D02*
X01298000Y02511768D01*
X01298000Y02497999D02*
X01302000Y02497999D01*
X01302000Y02445000D01*
X01302000Y02402001D01*
X01298000Y02402001D01*
X01298000Y02497999D01*
X01298000Y02495770D02*
X01302000Y02495770D01*
X01302000Y02479771D02*
X01298000Y02479771D01*
X01298000Y02463773D02*
X01302000Y02463773D01*
X01302000Y02447774D02*
X01298000Y02447774D01*
X01298000Y02431776D02*
X01302000Y02431776D01*
X01302000Y02415777D02*
X01298000Y02415777D01*
X01247440Y02383780D02*
X01150648Y02383780D01*
X01142735Y02367781D02*
X01255424Y02367781D01*
X01273483Y02351783D02*
X01122089Y02351783D01*
X01139169Y02335784D02*
X01258015Y02335784D01*
X01248599Y02319786D02*
X01149171Y02319786D01*
X01153000Y02303787D02*
X01245000Y02303787D01*
X01246248Y02287789D02*
X01152309Y02287789D01*
X01145682Y02271790D02*
X01252645Y02271790D01*
X01267276Y02255792D02*
X01130745Y02255792D01*
X01135160Y02239793D02*
X01262012Y02239793D01*
X01250396Y02223795D02*
X01147511Y02223795D01*
X01153000Y02207796D02*
X01245549Y02207796D01*
X01245613Y02191798D02*
X01153000Y02191798D01*
X01147342Y02175799D02*
X01250603Y02175799D01*
X01262418Y02159801D02*
X01134754Y02159801D01*
X01131151Y02143802D02*
X01266717Y02143802D01*
X01252439Y02127804D02*
X01145850Y02127804D01*
X01152477Y02111805D02*
X01246184Y02111805D01*
X01245000Y02095807D02*
X01153000Y02095807D01*
X01149003Y02079808D02*
X01248730Y02079808D01*
X01258409Y02063810D02*
X01138763Y02063810D01*
X01123069Y02047811D02*
X01272687Y02047811D01*
X01255129Y02031813D02*
X01143141Y02031813D01*
X01150816Y02015814D02*
X01247308Y02015814D01*
X01076931Y02047811D02*
X00050000Y02047811D01*
X00050000Y02031813D02*
X00947024Y02031813D01*
X00935615Y02015814D02*
X00050000Y02015814D01*
X00050000Y01999815D02*
X00932504Y01999815D01*
X00935767Y01983817D02*
X00050000Y01983817D01*
X00050000Y01967818D02*
X00947393Y01967818D01*
X00952530Y02063810D02*
X00200597Y02063810D01*
X00206074Y02066078D02*
X00233921Y02093925D01*
X00248992Y02130309D01*
X00248992Y02169691D01*
X00233921Y02206074D01*
X00206074Y02233921D01*
X00169691Y02248992D01*
X00130309Y02248992D01*
X00093925Y02233921D01*
X00066078Y02206074D01*
X00051008Y02169691D01*
X00051008Y02130309D01*
X00066078Y02093925D01*
X00093925Y02066078D01*
X00130309Y02051008D01*
X00169691Y02051008D01*
X00206074Y02066078D01*
X00219804Y02079808D02*
X00937428Y02079808D01*
X00932504Y02095807D02*
X00234701Y02095807D01*
X00241327Y02111805D02*
X00933954Y02111805D01*
X00943015Y02127804D02*
X00247954Y02127804D01*
X00248992Y02143802D02*
X01068849Y02143802D01*
X01065246Y02159801D02*
X01037791Y02159801D01*
X00962209Y02159801D02*
X00753154Y02159801D01*
X00756057Y02161003D02*
X00768997Y02173943D01*
X00776000Y02190850D01*
X00776000Y02209150D01*
X00768997Y02226057D01*
X00756057Y02238997D01*
X00739150Y02246000D01*
X00660850Y02246000D01*
X00643943Y02238997D01*
X00631003Y02226057D01*
X00624000Y02209150D01*
X00624000Y02190850D01*
X00631003Y02173943D01*
X00643943Y02161003D01*
X00660850Y02154000D01*
X00739150Y02154000D01*
X00756057Y02161003D01*
X00769766Y02175799D02*
X00939412Y02175799D01*
X00932504Y02191798D02*
X00776000Y02191798D01*
X00776000Y02207796D02*
X00932504Y02207796D01*
X00939006Y02223795D02*
X00769934Y02223795D01*
X00754134Y02239793D02*
X00961229Y02239793D01*
X00943421Y02271790D02*
X00875219Y02271790D01*
X00850000Y02300000D02*
X01000000Y02300000D01*
X00951551Y02335784D02*
X00862331Y02335784D01*
X00837669Y02335784D02*
X00759269Y02335784D01*
X00756057Y02338997D02*
X00739150Y02346000D01*
X00660850Y02346000D01*
X00643943Y02338997D01*
X00631003Y02326057D01*
X00624000Y02309150D01*
X00624000Y02290850D01*
X00631003Y02273943D01*
X00643943Y02261003D01*
X00660850Y02254000D01*
X00739150Y02254000D01*
X00756057Y02261003D01*
X00768997Y02273943D01*
X00776000Y02290850D01*
X00776000Y02309150D01*
X00768997Y02326057D01*
X00756057Y02338997D01*
X00771594Y02319786D02*
X00817303Y02319786D01*
X00812220Y02303787D02*
X00776000Y02303787D01*
X00774732Y02287789D02*
X00814166Y02287789D01*
X00824781Y02271790D02*
X00766844Y02271790D01*
X00743476Y02255792D02*
X01069255Y02255792D01*
X01064840Y02239793D02*
X01038771Y02239793D01*
X01048449Y02335784D02*
X01060831Y02335784D01*
X01077911Y02351783D02*
X00050000Y02351783D01*
X00050000Y02335784D02*
X00640731Y02335784D01*
X00628406Y02319786D02*
X00050000Y02319786D01*
X00050000Y02303787D02*
X00624000Y02303787D01*
X00625268Y02287789D02*
X00050000Y02287789D01*
X00050000Y02271790D02*
X00633156Y02271790D01*
X00645866Y02239793D02*
X00191898Y02239793D01*
X00216201Y02223795D02*
X00630066Y02223795D01*
X00624000Y02207796D02*
X00232200Y02207796D01*
X00239835Y02191798D02*
X00624000Y02191798D01*
X00630234Y02175799D02*
X00246462Y02175799D01*
X00248992Y02159801D02*
X00646846Y02159801D01*
X00656524Y02255792D02*
X00050000Y02255792D01*
X00050000Y02239793D02*
X00108102Y02239793D01*
X00083799Y02223795D02*
X00050000Y02223795D01*
X00050000Y02207796D02*
X00067800Y02207796D01*
X00060165Y02191798D02*
X00050000Y02191798D01*
X00050000Y02175799D02*
X00053538Y02175799D01*
X00051008Y02159801D02*
X00050000Y02159801D01*
X00050000Y02143802D02*
X00051008Y02143802D01*
X00050000Y02127804D02*
X00052046Y02127804D01*
X00050000Y02111805D02*
X00058672Y02111805D01*
X00065299Y02095807D02*
X00050000Y02095807D01*
X00050000Y02079808D02*
X00080196Y02079808D01*
X00099403Y02063810D02*
X00050000Y02063810D01*
X00050000Y01951820D02*
X01077821Y01951820D01*
X01060868Y01935821D02*
X01048360Y01935821D01*
X01052607Y01967818D02*
X01057228Y01967818D01*
X01056859Y02031813D02*
X01052976Y02031813D01*
X01047469Y02063810D02*
X01061237Y02063810D01*
X00939043Y01823832D02*
X00879596Y01823832D01*
X00887648Y01807833D02*
X00932504Y01807833D01*
X00932504Y01791835D02*
X00887510Y01791835D01*
X00879264Y01775836D02*
X00939375Y01775836D01*
X00850000Y01800000D02*
X00700000Y01800000D01*
X00655633Y01743839D02*
X00050000Y01743839D01*
X00050000Y01631849D02*
X00636796Y01631849D01*
X00626776Y01615851D02*
X00050000Y01615851D01*
X00050000Y01599852D02*
X00624000Y01599852D01*
X00626898Y01583854D02*
X00050000Y01583854D01*
X00050000Y01567855D02*
X00637091Y01567855D01*
X00769781Y01775836D02*
X00820735Y01775836D01*
X00820940Y02367781D02*
X00947430Y02367781D01*
X01000000Y02400000D02*
X00800000Y02400000D01*
X00821653Y02431776D02*
X00946987Y02431776D01*
X00952619Y02463773D02*
X00811262Y02463773D01*
X00807515Y02462220D02*
X00821400Y02467972D01*
X00832028Y02478600D01*
X00837779Y02492485D01*
X00837779Y02507515D01*
X00832028Y02521400D01*
X00821400Y02532028D01*
X00807515Y02537779D01*
X00792485Y02537779D01*
X00778600Y02532028D01*
X00770572Y02524000D01*
X00769849Y02524000D01*
X00768997Y02526057D01*
X00756057Y02538997D01*
X00739150Y02546000D01*
X00660850Y02546000D01*
X00643943Y02538997D01*
X00631003Y02526057D01*
X00624000Y02509150D01*
X00624000Y02490850D01*
X00631003Y02473943D01*
X00643943Y02461003D01*
X00660850Y02454000D01*
X00739150Y02454000D01*
X00756057Y02461003D01*
X00768997Y02473943D01*
X00769849Y02476000D01*
X00770572Y02476000D01*
X00778600Y02467972D01*
X00792485Y02462220D01*
X00807515Y02462220D01*
X00788738Y02463773D02*
X00758826Y02463773D01*
X00735203Y02447774D02*
X01076842Y02447774D01*
X01061274Y02463773D02*
X01047380Y02463773D01*
X01053013Y02431776D02*
X01056822Y02431776D01*
X01057265Y02367781D02*
X01052570Y02367781D01*
X00937443Y02479771D02*
X00832513Y02479771D01*
X00837779Y02495770D02*
X00932504Y02495770D01*
X00933939Y02511768D02*
X00836018Y02511768D01*
X00825661Y02527767D02*
X00942978Y02527767D01*
X00962298Y02559764D02*
X00753065Y02559764D01*
X00744545Y02543765D02*
X01068812Y02543765D01*
X01065283Y02559764D02*
X01037702Y02559764D01*
X01038860Y02639756D02*
X01064803Y02639756D01*
X01056542Y02671753D02*
X01252664Y02671753D01*
X01246254Y02687752D02*
X01065862Y02687752D01*
X01067496Y02703750D02*
X01245000Y02703750D01*
X01248586Y02719749D02*
X01062755Y02719749D01*
X01048539Y02735748D02*
X01257989Y02735748D01*
X01273556Y02751746D02*
X00050000Y02751746D01*
X00050000Y02847737D02*
X01272542Y02847737D01*
X01298000Y02847737D02*
X01302000Y02847737D01*
X01302000Y02831739D02*
X01298000Y02831739D01*
X01298000Y02815740D02*
X01302000Y02815740D01*
X01327458Y02847737D02*
X01376752Y02847737D01*
X01356785Y02831739D02*
X01344924Y02831739D01*
X01423248Y02847737D02*
X01487678Y02847737D01*
X01512322Y02847737D02*
X01650000Y02847737D01*
X01650000Y02863736D02*
X01647291Y02863736D01*
X01552709Y02863736D02*
X01538689Y02863736D01*
X01546950Y02831739D02*
X01443214Y02831739D01*
X01450847Y02815740D02*
X01535584Y02815740D01*
X01532504Y02799742D02*
X01453000Y02799742D01*
X01450633Y02783743D02*
X01535798Y02783743D01*
X01547467Y02767745D02*
X01442698Y02767745D01*
X01439206Y02735748D02*
X01551461Y02735748D01*
X01537245Y02719749D02*
X01449186Y02719749D01*
X01453000Y02703750D02*
X01532504Y02703750D01*
X01534137Y02687752D02*
X01452293Y02687752D01*
X01445666Y02671753D02*
X01543458Y02671753D01*
X01535197Y02639756D02*
X01561140Y02639756D01*
X01638860Y02639756D02*
X01650000Y02639756D01*
X01650000Y02655755D02*
X01430708Y02655755D01*
X01435197Y02639756D02*
X01464803Y02639756D01*
X01452474Y02623758D02*
X01447526Y02623758D01*
X01422000Y02751746D02*
X01650000Y02751746D01*
X01650000Y02735748D02*
X01648539Y02735748D01*
X01468775Y02943728D02*
X01441748Y02943728D01*
X01441159Y02959727D02*
X01465320Y02959727D01*
X01452688Y02975725D02*
X01433315Y02975725D01*
X01432762Y03023721D02*
X01452459Y03023721D01*
X01440929Y03039719D02*
X01464766Y03039719D01*
X01454119Y02927730D02*
X01435963Y02927730D01*
X01247452Y02783743D02*
X01064202Y02783743D01*
X01052533Y02767745D02*
X01255451Y02767745D01*
X01000000Y02863736D02*
X00999999Y02863736D01*
X00999999Y02879734D02*
X01000000Y02879734D01*
X00999999Y02895733D02*
X01000000Y02895733D01*
X00999999Y02911731D02*
X01000000Y02911731D01*
X00999999Y02927730D02*
X01000000Y02927730D01*
X00999999Y02943728D02*
X01000000Y02943728D01*
X00817236Y02927730D02*
X00767324Y02927730D01*
X00744634Y02943728D02*
X00794114Y02943728D01*
X00780840Y02959727D02*
X00752976Y02959727D01*
X00769735Y02975725D02*
X00774213Y02975725D01*
X00773984Y03023721D02*
X00769964Y03023721D01*
X00780611Y03039719D02*
X00754312Y03039719D01*
X00655366Y02943728D02*
X00233724Y02943728D01*
X00240467Y02959727D02*
X00647024Y02959727D01*
X00630265Y02975725D02*
X00247093Y02975725D01*
X00248992Y02991724D02*
X00624000Y02991724D01*
X00624000Y03007722D02*
X00248992Y03007722D01*
X00247323Y03023721D02*
X00630036Y03023721D01*
X00645688Y03039719D02*
X00240696Y03039719D01*
X00217726Y02927730D02*
X00632676Y02927730D01*
X00625069Y02911731D02*
X00195579Y02911731D01*
X00163315Y02831739D02*
X00636685Y02831739D01*
X00626730Y02815740D02*
X00173270Y02815740D01*
X00176000Y02799742D02*
X00624000Y02799742D01*
X00626944Y02783743D02*
X00173056Y02783743D01*
X00162798Y02767745D02*
X00637202Y02767745D01*
X00640694Y02735748D02*
X00159306Y02735748D01*
X00171610Y02719749D02*
X00628390Y02719749D01*
X00624000Y02703750D02*
X00176000Y02703750D01*
X00174717Y02687752D02*
X00625283Y02687752D01*
X00633193Y02671753D02*
X00166807Y02671753D01*
X00143387Y02655755D02*
X00656613Y02655755D01*
X00645777Y02639756D02*
X00154223Y02639756D01*
X00169949Y02623758D02*
X00630051Y02623758D01*
X00624000Y02607759D02*
X00176000Y02607759D01*
X00176000Y02591761D02*
X00624000Y02591761D01*
X00630250Y02575762D02*
X00169750Y02575762D01*
X00153065Y02559764D02*
X00646935Y02559764D01*
X00655455Y02543765D02*
X00144545Y02543765D01*
X00167287Y02527767D02*
X00632713Y02527767D01*
X00625085Y02511768D02*
X00174915Y02511768D01*
X00176000Y02495770D02*
X00624000Y02495770D01*
X00628589Y02479771D02*
X00171411Y02479771D01*
X00158826Y02463773D02*
X00641173Y02463773D01*
X00664797Y02447774D02*
X00050000Y02447774D01*
X00050000Y02543765D02*
X00055455Y02543765D01*
X00056613Y02655755D02*
X00050000Y02655755D01*
X00050000Y02863736D02*
X00641210Y02863736D01*
X00628604Y02879734D02*
X00050000Y02879734D01*
X00050000Y02895733D02*
X00624000Y02895733D01*
X00879670Y02623758D02*
X00938969Y02623758D01*
X00932504Y02607759D02*
X00887678Y02607759D01*
X00887479Y02591761D02*
X00932504Y02591761D01*
X00939449Y02575762D02*
X00879191Y02575762D01*
X00850000Y02600000D02*
X00700000Y02600000D01*
X00769750Y02575762D02*
X00820809Y02575762D01*
X00774338Y02527767D02*
X00767287Y02527767D01*
X00800000Y02500000D02*
X00700000Y02500000D01*
X00698000Y02447774D02*
X00702000Y02447774D01*
X00702000Y02431776D02*
X00698000Y02431776D01*
X00698000Y02415777D02*
X00702000Y02415777D01*
X00697999Y02399779D02*
X00176000Y02399779D01*
X00173255Y02415777D02*
X00624656Y02415777D01*
X00633893Y02431776D02*
X00163278Y02431776D01*
X00173071Y02383780D02*
X00624800Y02383780D01*
X00634336Y02367781D02*
X00162835Y02367781D01*
X00104420Y02911731D02*
X00050000Y02911731D01*
X00050000Y02927730D02*
X00082274Y02927730D01*
X00066276Y02943728D02*
X00050000Y02943728D01*
X00050000Y02959727D02*
X00059533Y02959727D01*
X00052906Y02975725D02*
X00050000Y02975725D01*
X00050000Y02991724D02*
X00051008Y02991724D01*
X00051008Y03007722D02*
X00050000Y03007722D01*
X00050000Y03023721D02*
X00052677Y03023721D01*
X00050000Y03039719D02*
X00059304Y03039719D01*
X00698000Y02383780D02*
X00702000Y02383780D01*
X00702000Y02367781D02*
X00698000Y02367781D01*
X00765664Y02367781D02*
X00779060Y02367781D01*
X00778347Y02431776D02*
X00766106Y02431776D01*
D16*
X01000000Y02400000D02*
X01100000Y02400000D01*
X01100000Y02300000D02*
X01000000Y02300000D01*
X01000000Y02200000D02*
X01100000Y02200000D01*
X01100000Y02100000D02*
X01000000Y02100000D01*
X01000000Y02000000D02*
X01100000Y02000000D01*
X01100000Y01900000D02*
X01000000Y01900000D01*
X01100000Y01800000D02*
X01000000Y01700000D01*
X01500000Y01700000D02*
X01600000Y01700000D01*
X01600000Y01600000D02*
X01500000Y01600000D01*
X01500000Y01800000D02*
X01600000Y01800000D01*
X01600000Y01900000D02*
X01500000Y01900000D01*
X01500000Y02000000D02*
X01600000Y02000000D01*
X01600000Y02100000D02*
X01500000Y02100000D01*
X01500000Y02200000D02*
X01600000Y02200000D01*
X01600000Y02300000D02*
X01500000Y02300000D01*
X01500000Y02400000D02*
X01600000Y02400000D01*
X01600000Y02500000D02*
X01500000Y02500000D01*
X01500000Y02600000D02*
X01600000Y02600000D01*
X01600000Y02900000D02*
X01500000Y02900000D01*
X01500000Y03000000D02*
X01600000Y03000000D01*
X01100000Y02600000D02*
X01000000Y02600000D01*
X01000000Y02500000D02*
X01100000Y02500000D01*
D17*
X00150000Y02150000D03*
X00150000Y01350000D03*
X00900000Y01350000D03*
X01600000Y01350000D03*
X00150000Y03000000D03*
D18*
X00850000Y03000000D03*
M02*
