G75*
%MOIN*%
%OFA0B0*%
%FSLAX26Y26*%
%IPPOS*%
%LPD*%
%AMOC8*
5,1,8,0,0,1.08239X$1,22.5*
%
%ADD10C,0.000000*%
D10*
X00250000Y02350000D02*
X00250000Y02950000D01*
X00250029Y02952416D01*
X00250117Y02954831D01*
X00250263Y02957243D01*
X00250467Y02959651D01*
X00250729Y02962054D01*
X00251049Y02964449D01*
X00251427Y02966836D01*
X00251863Y02969213D01*
X00252356Y02971578D01*
X00252906Y02973932D01*
X00253512Y02976271D01*
X00254175Y02978595D01*
X00254894Y02980902D01*
X00255669Y02983191D01*
X00256498Y02985460D01*
X00257383Y02987709D01*
X00258321Y02989936D01*
X00259313Y02992140D01*
X00260357Y02994319D01*
X00261454Y02996472D01*
X00262603Y02998598D01*
X00263803Y03000696D01*
X00265053Y03002764D01*
X00266353Y03004801D01*
X00267702Y03006806D01*
X00269098Y03008779D01*
X00270542Y03010716D01*
X00272033Y03012619D01*
X00273568Y03014484D01*
X00275149Y03016312D01*
X00276773Y03018102D01*
X00278440Y03019851D01*
X00280149Y03021560D01*
X00281898Y03023227D01*
X00283688Y03024851D01*
X00285516Y03026432D01*
X00287381Y03027967D01*
X00289284Y03029458D01*
X00291221Y03030902D01*
X00293194Y03032298D01*
X00295199Y03033647D01*
X00297236Y03034947D01*
X00299304Y03036197D01*
X00301402Y03037397D01*
X00303528Y03038546D01*
X00305681Y03039643D01*
X00307860Y03040687D01*
X00310064Y03041679D01*
X00312291Y03042617D01*
X00314540Y03043502D01*
X00316809Y03044331D01*
X00319098Y03045106D01*
X00321405Y03045825D01*
X00323729Y03046488D01*
X00326068Y03047094D01*
X00328422Y03047644D01*
X00330787Y03048137D01*
X00333164Y03048573D01*
X00335551Y03048951D01*
X00337946Y03049271D01*
X00340349Y03049533D01*
X00342757Y03049737D01*
X00345169Y03049883D01*
X00347584Y03049971D01*
X00350000Y03050000D01*
X00352416Y03049971D01*
X00354831Y03049883D01*
X00357243Y03049737D01*
X00359651Y03049533D01*
X00362054Y03049271D01*
X00364449Y03048951D01*
X00366836Y03048573D01*
X00369213Y03048137D01*
X00371578Y03047644D01*
X00373932Y03047094D01*
X00376271Y03046488D01*
X00378595Y03045825D01*
X00380902Y03045106D01*
X00383191Y03044331D01*
X00385460Y03043502D01*
X00387709Y03042617D01*
X00389936Y03041679D01*
X00392140Y03040687D01*
X00394319Y03039643D01*
X00396472Y03038546D01*
X00398598Y03037397D01*
X00400696Y03036197D01*
X00402764Y03034947D01*
X00404801Y03033647D01*
X00406806Y03032298D01*
X00408779Y03030902D01*
X00410716Y03029458D01*
X00412619Y03027967D01*
X00414484Y03026432D01*
X00416312Y03024851D01*
X00418102Y03023227D01*
X00419851Y03021560D01*
X00421560Y03019851D01*
X00423227Y03018102D01*
X00424851Y03016312D01*
X00426432Y03014484D01*
X00427967Y03012619D01*
X00429458Y03010716D01*
X00430902Y03008779D01*
X00432298Y03006806D01*
X00433647Y03004801D01*
X00434947Y03002764D01*
X00436197Y03000696D01*
X00437397Y02998598D01*
X00438546Y02996472D01*
X00439643Y02994319D01*
X00440687Y02992140D01*
X00441679Y02989936D01*
X00442617Y02987709D01*
X00443502Y02985460D01*
X00444331Y02983191D01*
X00445106Y02980902D01*
X00445825Y02978595D01*
X00446488Y02976271D01*
X00447094Y02973932D01*
X00447644Y02971578D01*
X00448137Y02969213D01*
X00448573Y02966836D01*
X00448951Y02964449D01*
X00449271Y02962054D01*
X00449533Y02959651D01*
X00449737Y02957243D01*
X00449883Y02954831D01*
X00449971Y02952416D01*
X00450000Y02950000D01*
X00450000Y02350000D01*
X00350000Y02250000D02*
X00347584Y02250029D01*
X00345169Y02250117D01*
X00342757Y02250263D01*
X00340349Y02250467D01*
X00337946Y02250729D01*
X00335551Y02251049D01*
X00333164Y02251427D01*
X00330787Y02251863D01*
X00328422Y02252356D01*
X00326068Y02252906D01*
X00323729Y02253512D01*
X00321405Y02254175D01*
X00319098Y02254894D01*
X00316809Y02255669D01*
X00314540Y02256498D01*
X00312291Y02257383D01*
X00310064Y02258321D01*
X00307860Y02259313D01*
X00305681Y02260357D01*
X00303528Y02261454D01*
X00301402Y02262603D01*
X00299304Y02263803D01*
X00297236Y02265053D01*
X00295199Y02266353D01*
X00293194Y02267702D01*
X00291221Y02269098D01*
X00289284Y02270542D01*
X00287381Y02272033D01*
X00285516Y02273568D01*
X00283688Y02275149D01*
X00281898Y02276773D01*
X00280149Y02278440D01*
X00278440Y02280149D01*
X00276773Y02281898D01*
X00275149Y02283688D01*
X00273568Y02285516D01*
X00272033Y02287381D01*
X00270542Y02289284D01*
X00269098Y02291221D01*
X00267702Y02293194D01*
X00266353Y02295199D01*
X00265053Y02297236D01*
X00263803Y02299304D01*
X00262603Y02301402D01*
X00261454Y02303528D01*
X00260357Y02305681D01*
X00259313Y02307860D01*
X00258321Y02310064D01*
X00257383Y02312291D01*
X00256498Y02314540D01*
X00255669Y02316809D01*
X00254894Y02319098D01*
X00254175Y02321405D01*
X00253512Y02323729D01*
X00252906Y02326068D01*
X00252356Y02328422D01*
X00251863Y02330787D01*
X00251427Y02333164D01*
X00251049Y02335551D01*
X00250729Y02337946D01*
X00250467Y02340349D01*
X00250263Y02342757D01*
X00250117Y02345169D01*
X00250029Y02347584D01*
X00250000Y02350000D01*
X00350000Y02250000D02*
X00352416Y02250029D01*
X00354831Y02250117D01*
X00357243Y02250263D01*
X00359651Y02250467D01*
X00362054Y02250729D01*
X00364449Y02251049D01*
X00366836Y02251427D01*
X00369213Y02251863D01*
X00371578Y02252356D01*
X00373932Y02252906D01*
X00376271Y02253512D01*
X00378595Y02254175D01*
X00380902Y02254894D01*
X00383191Y02255669D01*
X00385460Y02256498D01*
X00387709Y02257383D01*
X00389936Y02258321D01*
X00392140Y02259313D01*
X00394319Y02260357D01*
X00396472Y02261454D01*
X00398598Y02262603D01*
X00400696Y02263803D01*
X00402764Y02265053D01*
X00404801Y02266353D01*
X00406806Y02267702D01*
X00408779Y02269098D01*
X00410716Y02270542D01*
X00412619Y02272033D01*
X00414484Y02273568D01*
X00416312Y02275149D01*
X00418102Y02276773D01*
X00419851Y02278440D01*
X00421560Y02280149D01*
X00423227Y02281898D01*
X00424851Y02283688D01*
X00426432Y02285516D01*
X00427967Y02287381D01*
X00429458Y02289284D01*
X00430902Y02291221D01*
X00432298Y02293194D01*
X00433647Y02295199D01*
X00434947Y02297236D01*
X00436197Y02299304D01*
X00437397Y02301402D01*
X00438546Y02303528D01*
X00439643Y02305681D01*
X00440687Y02307860D01*
X00441679Y02310064D01*
X00442617Y02312291D01*
X00443502Y02314540D01*
X00444331Y02316809D01*
X00445106Y02319098D01*
X00445825Y02321405D01*
X00446488Y02323729D01*
X00447094Y02326068D01*
X00447644Y02328422D01*
X00448137Y02330787D01*
X00448573Y02333164D01*
X00448951Y02335551D01*
X00449271Y02337946D01*
X00449533Y02340349D01*
X00449737Y02342757D01*
X00449883Y02345169D01*
X00449971Y02347584D01*
X00450000Y02350000D01*
M02*
