%
M48
M72
T01C0.02756
T02C0.03150
T03C0.04000
T04C0.12598
%
T01
X84500Y41000
X89500Y61000
X89500Y111000
X84500Y121000
X84500Y131000
X89500Y141000
T02
X104500Y141000
X104500Y131000
X104500Y121000
X104500Y111000
X104500Y101000
X104500Y91000
X104500Y81000
X104500Y71000
X104500Y61000
X104500Y51000
X104500Y41000
X164500Y41000
X164500Y51000
X164500Y61000
X164500Y71000
X164500Y81000
X164500Y91000
X164500Y101000
X164500Y111000
X164500Y121000
X164500Y131000
X164500Y141000
X164500Y151000
X164500Y161000
X164500Y171000
X164500Y181000
X144500Y176000
X144500Y186000
X134500Y186000
X134500Y176000
X124500Y176000
X124500Y186000
X104500Y181000
X104500Y171000
X104500Y161000
X104500Y151000
T03
X114500Y141000
X114500Y131000
X114500Y121000
X114500Y111000
X114500Y101000
X114500Y91000
X114500Y81000
X114500Y71000
X114500Y61000
X134500Y61000
X134500Y51000
X134500Y41000
X134500Y31000
X144500Y31000
X144500Y41000
X144500Y51000
X144500Y61000
X144500Y71000
X144500Y81000
X144500Y91000
X144500Y101000
X144500Y111000
X144500Y121000
X144500Y131000
X144500Y141000
X144500Y151000
X144500Y161000
X134500Y161000
X134500Y151000
X134500Y141000
X134500Y131000
X134500Y121000
X134500Y111000
X134500Y101000
X134500Y91000
X134500Y81000
X134500Y71000
X154500Y71000
X154500Y81000
X154500Y91000
X154500Y101000
X154500Y111000
X154500Y121000
X154500Y131000
X154500Y141000
X154500Y171000
X154500Y181000
X74500Y181000
X74500Y171000
X74500Y161000
X74500Y151000
X74500Y141000
X74500Y131000
X74500Y121000
X74500Y111000
X74500Y101000
X74500Y71000
X74500Y61000
X74500Y51000
X74500Y41000
X74500Y31000
X74500Y21000
X74500Y11000
X154500Y31000
X154500Y41000
X154500Y51000
X154500Y61000
X14500Y121000
X14500Y131000
X14500Y141000
X14500Y151000
X14500Y161000
T04
X19500Y16000
X89500Y16000
X159500Y16000
X19500Y96000
X19500Y176000
X89500Y176000
M30
