; NON-PLATED HOLES START AT T1
; THROUGH (PLATED) HOLES START AT T100
M48
INCH
T100C0.031555
T101C0.035000
T102C0.030000
T103C0.038000
T104C0.031496
%
T100
X006986Y003072
T101
X006555Y004572
X009555Y001572
X002555Y001572
X004555Y001572
X010555Y001572
X010555Y003572
X008555Y004572
X013555Y004572
X006555Y001572
X003555Y001572
X007555Y004572
X001555Y004572
X010555Y004572
X012555Y001572
X014555Y004572
X012555Y004572
X005555Y001572
X014555Y001572
X001555Y001572
X003555Y004572
X009555Y004572
X013555Y001572
X014555Y003572
X008555Y001572
X005555Y004572
X011555Y004572
X002555Y004572
X007555Y001572
X004555Y004572
X011555Y001572
T102
X013057Y003322
X012055Y003322
X003555Y003572
X003555Y002570
X008555Y003572
X008555Y002570
T103
X010555Y005572
X008555Y005572
X000555Y001572
X015555Y005572
X001555Y000572
X015555Y001572
X004555Y005572
X013555Y005572
X007555Y005572
X015555Y004572
X004555Y000572
X006555Y000572
X003555Y000572
X009555Y005572
X009555Y000572
X000555Y004572
X012555Y000572
X011555Y000572
X015555Y002572
X000555Y003572
X012555Y005572
X008555Y000572
X013555Y000572
X002555Y005572
X014555Y000572
X011555Y005572
X014555Y005572
X000555Y005572
X002555Y000572
X000555Y000572
X007555Y000572
X001555Y005572
X005555Y000572
X015555Y003572
X010555Y000572
X015555Y000572
X003555Y005572
T104
X005055Y003072
T00
M30
