G04 MADE WITH FRITZING*
G04 WWW.FRITZING.ORG*
G04 DOUBLE SIDED*
G04 HOLES PLATED*
G04 CONTOUR ON CENTER OF CONTOUR VECTOR*
%ASAXBY*%
%FSLAX23Y23*%
%MOIN*%
%OFA0B0*%
%SFA1.0B1.0*%
%ADD10C,0.088000*%
%ADD11C,0.085000*%
%ADD12C,0.080925*%
%ADD13C,0.080866*%
%ADD14C,0.080000*%
%ADD15R,0.085000X0.085000*%
%LNMASK1*%
G90*
G70*
G54D10*
X1456Y557D03*
X1356Y557D03*
X1256Y557D03*
X1156Y557D03*
X1056Y557D03*
X956Y557D03*
X856Y557D03*
X756Y557D03*
X456Y557D03*
X356Y557D03*
X256Y557D03*
X156Y557D03*
G54D11*
X1456Y457D03*
X1456Y157D03*
X1356Y457D03*
X1356Y157D03*
X1256Y457D03*
X1256Y157D03*
X1156Y457D03*
X1156Y157D03*
X1056Y457D03*
X1056Y157D03*
X956Y457D03*
X956Y157D03*
X856Y457D03*
X856Y157D03*
X756Y457D03*
X756Y157D03*
X656Y457D03*
X656Y157D03*
X556Y457D03*
X556Y157D03*
X456Y457D03*
X456Y157D03*
X356Y457D03*
X356Y157D03*
X256Y457D03*
X256Y157D03*
X156Y457D03*
X156Y157D03*
G54D12*
X699Y307D03*
G54D13*
X506Y307D03*
G54D14*
X856Y357D03*
X856Y257D03*
X356Y357D03*
X356Y257D03*
G54D11*
X1056Y357D03*
X1456Y357D03*
G54D10*
X56Y157D03*
X56Y57D03*
X56Y557D03*
X56Y457D03*
X56Y357D03*
X1556Y557D03*
X1556Y457D03*
X1556Y357D03*
X1556Y257D03*
X1556Y157D03*
X1556Y57D03*
X1456Y57D03*
X1356Y57D03*
X1256Y57D03*
X1156Y57D03*
X1056Y57D03*
X956Y57D03*
X856Y57D03*
X756Y57D03*
X656Y57D03*
X556Y57D03*
X456Y57D03*
X356Y57D03*
X256Y57D03*
X156Y57D03*
G54D14*
X1206Y332D03*
X1306Y332D03*
G54D15*
X1456Y457D03*
G04 End of Mask1*
M02*