G04 MADE WITH FRITZING*
G04 WWW.FRITZING.ORG*
G04 DOUBLE SIDED*
G04 HOLES PLATED*
G04 CONTOUR ON CENTER OF CONTOUR VECTOR*
%ASAXBY*%
%FSLAX23Y23*%
%MOIN*%
%OFA0B0*%
%SFA1.0B1.0*%
%ADD10C,0.078000*%
%ADD11C,0.075000*%
%ADD12C,0.070925*%
%ADD13C,0.070866*%
%ADD14C,0.070000*%
%ADD15R,0.075000X0.075000*%
%ADD16C,0.024000*%
%ADD17C,0.008000*%
%LNCOPPER0*%
G90*
G70*
G54D10*
X1456Y557D03*
X1356Y557D03*
X1256Y557D03*
X1156Y557D03*
X1056Y557D03*
X956Y557D03*
X856Y557D03*
X756Y557D03*
X456Y557D03*
X356Y557D03*
X256Y557D03*
X156Y557D03*
G54D11*
X1456Y457D03*
X1456Y157D03*
X1356Y457D03*
X1356Y157D03*
X1256Y457D03*
X1256Y157D03*
X1156Y457D03*
X1156Y157D03*
X1056Y457D03*
X1056Y157D03*
X956Y457D03*
X956Y157D03*
X856Y457D03*
X856Y157D03*
X756Y457D03*
X756Y157D03*
X656Y457D03*
X656Y157D03*
X556Y457D03*
X556Y157D03*
X456Y457D03*
X456Y157D03*
X356Y457D03*
X356Y157D03*
X256Y457D03*
X256Y157D03*
X156Y457D03*
X156Y157D03*
G54D12*
X699Y307D03*
G54D13*
X506Y307D03*
G54D14*
X856Y357D03*
X856Y257D03*
X356Y357D03*
X356Y257D03*
G54D11*
X1056Y357D03*
X1456Y357D03*
G54D10*
X56Y157D03*
X56Y57D03*
X56Y557D03*
X56Y457D03*
X56Y357D03*
X1556Y557D03*
X1556Y457D03*
X1556Y357D03*
X1556Y257D03*
X1556Y157D03*
X1556Y57D03*
X1456Y57D03*
X1356Y57D03*
X1256Y57D03*
X1156Y57D03*
X1056Y57D03*
X956Y57D03*
X856Y57D03*
X756Y57D03*
X656Y57D03*
X556Y57D03*
X456Y57D03*
X356Y57D03*
X256Y57D03*
X156Y57D03*
G54D14*
X1206Y332D03*
X1306Y332D03*
G54D15*
X1456Y457D03*
G54D16*
X1256Y486D02*
X1256Y527D01*
D02*
X1356Y486D02*
X1356Y527D01*
D02*
X1456Y486D02*
X1456Y527D01*
G54D17*
D02*
X781Y383D02*
X430Y383D01*
D02*
X430Y383D02*
X375Y364D01*
D02*
X836Y364D02*
X781Y383D01*
D02*
X930Y383D02*
X930Y357D01*
D02*
X906Y207D02*
X706Y207D01*
D02*
X706Y207D02*
X672Y174D01*
D02*
X930Y232D02*
X906Y207D01*
D02*
X930Y357D02*
X930Y232D01*
D02*
X872Y441D02*
X930Y383D01*
D02*
X930Y357D02*
X1033Y357D01*
D02*
X1456Y380D02*
X1456Y434D01*
D02*
X106Y107D02*
X73Y75D01*
D02*
X106Y183D02*
X106Y107D01*
D02*
X130Y207D02*
X106Y183D01*
D02*
X630Y207D02*
X130Y207D01*
D02*
X645Y178D02*
X630Y207D01*
D02*
X130Y383D02*
X73Y440D01*
D02*
X306Y383D02*
X130Y383D01*
D02*
X337Y367D02*
X306Y383D01*
D02*
X1330Y357D02*
X1320Y347D01*
D02*
X1433Y357D02*
X1330Y357D01*
D02*
X1506Y507D02*
X1538Y540D01*
D02*
X1506Y332D02*
X1506Y507D01*
D02*
X1455Y283D02*
X1506Y332D01*
D02*
X1255Y283D02*
X1455Y283D01*
D02*
X1220Y318D02*
X1255Y283D01*
D02*
X1530Y232D02*
X1538Y240D01*
D02*
X930Y232D02*
X1530Y232D01*
G04 End of Copper0*
M02*